<?xml version="1.0" encoding="utf-8"?>
<!-- Generator: Adobe Illustrator 22.1.0, SVG Export Plug-In . SVG Version: 6.00 Build 0)  -->
<svg version="1.1" id="Capa_1" xmlns="http://www.w3.org/2000/svg" xmlns:xlink="http://www.w3.org/1999/xlink" x="0px" y="0px"
	 viewBox="0 0 250.6 250.6" style="enable-background:new 0 0 250.6 250.6;" xml:space="preserve">
<style type="text/css">
	.st0{fill:#FFFFFF;}
</style>
<g id="Menu">
	<path class="st0" d="M22.4,76.1h205.8c12.4,0,22.4-10,22.4-22.4s-10-22.4-22.4-22.4H22.4C10,31.3,0,41.3,0,53.7
		C0,66.1,10,76.1,22.4,76.1z M228.2,102.9H22.4C10,102.9,0,112.9,0,125.3c0,12.4,10,22.4,22.4,22.4h205.8c12.4,0,22.4-10,22.4-22.4
		C250.6,112.9,240.6,102.9,228.2,102.9z M228.2,174.5H22.4C10,174.5,0,184.5,0,196.9c0,12.4,10,22.4,22.4,22.4h205.8
		c12.4,0,22.4-10,22.4-22.4C250.6,184.5,240.6,174.5,228.2,174.5z"/>
</g>
</svg>
