<?xml version="1.0" encoding="utf-8"?>
<!-- Generator: Adobe Illustrator 22.1.0, SVG Export Plug-In . SVG Version: 6.00 Build 0)  -->
<svg version="1.1" id="Layer_1" xmlns="http://www.w3.org/2000/svg" xmlns:xlink="http://www.w3.org/1999/xlink" x="0px" y="0px"
	 viewBox="0 0 283.5 283.5" style="enable-background:new 0 0 283.5 283.5;" xml:space="preserve">
<style type="text/css">
	.st0{fill:url(#SVGID_1_);}
	.st1{fill:url(#SVGID_2_);}
	.st2{opacity:0.3;fill:#231F20;enable-background:new    ;}
	.st3{opacity:0.6;fill:#231F20;enable-background:new    ;}
	.st4{fill:#FFFFFF;}
	.st5{opacity:0.4;}
	.st6{fill:#FCC62D;}
	.st7{fill:#E4AF18;}
	.st8{fill:#CE9912;}
	.st9{fill:#FFD949;}
	.st10{fill:#F0C41B;}
</style>
<g>
	<g>
		
			<linearGradient id="SVGID_1_" gradientUnits="userSpaceOnUse" x1="26.7667" y1="255.3254" x2="273.2022" y2="-9.885" gradientTransform="matrix(1 0 0 1 0 3.051758e-05)">
			<stop  offset="0" style="stop-color:#B1B7C2"/>
			<stop  offset="1" style="stop-color:#FFFFFF"/>
		</linearGradient>
		<path class="st0" d="M84.5,15C111-14.2,263.3,79,270.3,142.4s-151.8,164-197.4,121.2C33.4,226.5,12.6,93.9,84.5,15z"/>
		
			<linearGradient id="SVGID_2_" gradientUnits="userSpaceOnUse" x1="-25.8297" y1="288.7027" x2="208.4136" y2="56.9117" gradientTransform="matrix(1 0 0 1 0 3.051758e-05)">
			<stop  offset="0" style="stop-color:#EF184B"/>
			<stop  offset="1" style="stop-color:#FF9E15"/>
		</linearGradient>
		<path class="st1" d="M141.4,267C103.2,273.6-2.7,144,14.7,90.7S152.1,15,227.8,60.5C309.1,109.5,206.2,255.8,141.4,267z"/>
		<g>
			<path class="st2" d="M203.6,84.4c42.7,18.5,18.4,117-12.9,141.4c-32.9,25.7-141.4,14.3-145.8-81.6
				C42.9,100.5,110.8,44.4,203.6,84.4z"/>
			<path class="st3" d="M203.6,79.9c42.7,18.5,18.4,117-12.9,141.4C157.8,247,49.3,235.7,44.9,139.7C42.9,96.1,110.8,40,203.6,79.9z
				"/>
			<path class="st4" d="M203.6,74.6c42.7,18.5,18.4,117-12.9,141.4c-32.9,25.7-141.4,14.3-145.8-81.6
				C42.9,90.7,110.8,34.6,203.6,74.6z"/>
			<path class="st4" d="M203.6,71.9c42.7,18.5,18.4,117-12.9,141.4C157.8,239,49.3,227.6,44.9,131.7C42.9,88,110.8,31.8,203.6,71.9z
				"/>
			<g class="st5">
				<path class="st4" d="M147,225.3c-24.4,0-48.6-7.8-66.5-21.4c-22.1-16.7-34.6-41.8-36.1-72.4c-0.6-14.2,6.2-29.7,18.6-42.7
					c18.8-19.7,47.4-31,78.4-31c20.2,0,41.1,4.6,62.2,13.7c12.2,5.3,20.1,17.7,22.4,35.9c4.7,35.9-12.8,88.5-35.2,105.9
					C181.4,221,165.3,225.3,147,225.3z M141.4,58.4c-30.9,0-59.3,11.2-77.9,30.7c-12.4,12.9-19,28.3-18.4,42.2
					c3,64.4,53.3,93.1,101.9,93.1c18,0,33.9-4.3,43.4-11.8c22.3-17.5,39.5-69.6,34.9-105.3c-2.3-18-9.9-30.2-22-35.5
					C182.4,63.1,161.5,58.4,141.4,58.4z"/>
			</g>
		</g>
	</g>
</g>
<g id="XMLID_22_">
	<path id="XMLID_143_" class="st6" d="M181.1,138v2.3c0,13.4-22.6,24.3-50.3,24.3c-15.4,0-29-3.3-38.2-8.5c3.2,12.1,24.3,22,49.7,22
		c27.7,0,50.3-11.8,50.3-25.1C192.6,147.2,188.3,142,181.1,138"/>
	<path id="XMLID_142_" class="st7" d="M142.3,178.2c-27.7,0-50.3-11.8-50.3-25.1v16.3c0,13.4,22.6,24.3,50.3,24.3
		s50.3-10.8,50.3-24.3v-16.3C192.6,166.4,170.2,178.2,142.3,178.2"/>
	<path id="XMLID_141_" class="st8" d="M97.9,180.8c1.2,1,2.5,2.1,3.9,3v-16.1c-1.4-1-2.7-2-3.9-3.2V180.8z"/>
	<path id="XMLID_140_" class="st8" d="M182.9,167.7v16.1c1.4-0.9,2.7-2,3.9-3v-16.1C185.7,165.7,184.3,166.7,182.9,167.7"/>
	<path id="XMLID_139_" class="st8" d="M105.6,186c1.2,0.7,2.5,1.2,3.9,1.9v-15.8c-1.3-0.7-2.6-1.2-3.9-1.9V186z"/>
	<path id="XMLID_138_" class="st8" d="M175.2,187.8c1.3-0.6,2.6-1.2,3.9-1.9v-15.9c-1.2,0.7-2.5,1.3-3.9,1.9V187.8z"/>
	<path id="XMLID_137_" class="st8" d="M113.4,189.3c1.3,0.4,2.5,0.7,3.9,1.2v-15.7c-1.3-0.4-2.6-0.7-3.9-1.3V189.3z"/>
	<path id="XMLID_136_" class="st8" d="M167.5,190.4c1.3-0.4,2.6-0.7,3.9-1.2v-15.8c-1.3,0.4-2.5,0.9-3.9,1.3V190.4z"/>
	<path id="XMLID_135_" class="st8" d="M123.1,191.9c1.3,0.3,2.6,0.6,3.9,0.7v-15.5c-1.3-0.3-2.6-0.6-3.9-0.7
		C123.1,176.2,123.1,191.9,123.1,191.9z"/>
	<path id="XMLID_134_" class="st8" d="M157.8,192.6c1.3-0.3,2.6-0.4,3.9-0.7v-15.7c-1.3,0.3-2.6,0.6-3.9,0.7V192.6z"/>
	<path id="XMLID_133_" class="st8" d="M134.7,193.4c1.3,0.1,2.6,0.1,3.9,0.3v-15.5c-1.3,0-2.6-0.1-3.9-0.3V193.4z"/>
	<path id="XMLID_132_" class="st8" d="M146.3,193.6c1.3,0,2.6-0.1,3.9-0.3v-15.5c-1.3,0.1-2.6,0.1-3.9,0.3V193.6z"/>
	<path id="XMLID_131_" class="st7" d="M130.8,149.2c-27.7,0-50.3-11.8-50.3-25.1v16.3c0,13.4,22.6,24.3,50.3,24.3
		s50.3-10.8,50.3-24.3v-16.3C181.1,137.4,158.5,149.2,130.8,149.2"/>
	<path id="XMLID_130_" class="st8" d="M86.4,151.8c1.2,1,2.5,2.1,3.9,3v-16.1c-1.4-1-2.7-2-3.9-3.2V151.8z"/>
	<path id="XMLID_129_" class="st8" d="M171.3,138.7v16.1c1.4-0.9,2.7-2,3.9-3v-16.1C174,136.8,172.7,137.7,171.3,138.7"/>
	<path id="XMLID_128_" class="st8" d="M94,156.9c1.2,0.7,2.5,1.2,3.9,1.9V143c-1.3-0.7-2.6-1.2-3.9-1.9C94,141,94,156.9,94,156.9z"
		/>
	<path id="XMLID_127_" class="st8" d="M163.6,158.8c1.3-0.6,2.6-1.2,3.9-1.9V141c-1.2,0.7-2.5,1.3-3.9,1.9V158.8z"/>
	<path id="XMLID_126_" class="st8" d="M101.8,160.2c1.3,0.4,2.5,0.7,3.9,1.2v-15.7c-1.3-0.4-2.6-0.7-3.9-1.3V160.2z"/>
	<path id="XMLID_125_" class="st8" d="M155.9,161.4c1.3-0.4,2.6-0.7,3.9-1.2v-15.8c-1.3,0.4-2.5,0.9-3.9,1.3V161.4z"/>
	<path id="XMLID_124_" class="st8" d="M111.5,162.8c1.3,0.3,2.6,0.6,3.9,0.7V148c-1.3-0.3-2.6-0.6-3.9-0.7V162.8z"/>
	<path id="XMLID_123_" class="st8" d="M146.3,163.4c1.3-0.3,2.6-0.4,3.9-0.7v-15.7c-1.3,0.3-2.6,0.6-3.9,0.7V163.4z"/>
	<path id="XMLID_122_" class="st8" d="M123.1,164.4c1.3,0.1,2.6,0.1,3.9,0.3v-15.5c-1.3,0-2.6-0.1-3.9-0.3V164.4z"/>
	<path id="XMLID_121_" class="st8" d="M134.7,164.7c1.3,0,2.6-0.1,3.9-0.3v-15.5c-1.3,0.1-2.6,0.1-3.9,0.3V164.7z"/>
	<path id="XMLID_120_" class="st9" d="M179.6,145.9c-5.2,10.6-25.1,18.8-48.9,18.8c-8.9,0-17.2-1.2-24.5-3.2
		c7,4.9,19.5,8.9,36.1,8.9c26.4,0,42.5-10.3,42.5-17.4C184.8,150.7,183,148.2,179.6,145.9"/>
	<path id="XMLID_119_" class="st9" d="M140.4,145.3c-27.7,0-50.3-10.8-50.3-24.3v-10.9c-6.2,3.7-9.6,8.6-9.6,13.9
		c0,13.4,22.6,25.1,50.3,25.1c13.4,0,25.6-2.7,34.5-7C157.8,144.2,149.4,145.3,140.4,145.3"/>
	<path id="XMLID_118_" class="st7" d="M140.4,129.8c-27.7,0-50.3-11.8-50.3-25.1v16.3c0,13.4,22.6,24.3,50.3,24.3
		s50.3-10.8,50.3-24.3v-16.3C190.7,118.1,168.2,129.8,140.4,129.8"/>
	<path id="XMLID_117_" class="st8" d="M96,132.5c1.2,1,2.5,2.1,3.9,3v-16.1c-1.4-1-2.7-2-3.9-3.2V132.5z"/>
	<path id="XMLID_116_" class="st8" d="M181.1,119.4v16.1c1.4-0.9,2.7-2,3.9-3v-16.1C183.7,117.3,182.5,118.4,181.1,119.4"/>
	<path id="XMLID_115_" class="st8" d="M103.6,137.7c1.2,0.7,2.5,1.2,3.9,1.9v-15.8c-1.3-0.7-2.6-1.2-3.9-1.9V137.7z"/>
	<path id="XMLID_114_" class="st8" d="M173.2,139.5c1.3-0.6,2.6-1.2,3.9-1.9v-15.9c-1.2,0.7-2.5,1.3-3.9,1.9V139.5z"/>
	<path id="XMLID_113_" class="st8" d="M111.5,141c1.3,0.4,2.5,0.7,3.9,1.2v-15.7c-1.3-0.4-2.6-0.7-3.9-1.3V141z"/>
	<path id="XMLID_112_" class="st8" d="M165.6,142.1c1.3-0.4,2.6-0.7,3.9-1.2v-15.7c-1.3,0.4-2.5,0.9-3.9,1.3V142.1z"/>
	<path id="XMLID_111_" class="st8" d="M121.2,143.6c1.3,0.3,2.6,0.6,3.9,0.7v-15.5c-1.3-0.3-2.6-0.6-3.9-0.7
		C121.2,127.9,121.2,143.6,121.2,143.6z"/>
	<path id="XMLID_110_" class="st8" d="M155.9,144.2c1.3-0.3,2.6-0.4,3.9-0.7v-15.7c-1.3,0.3-2.6,0.6-3.9,0.7V144.2z"/>
	<path id="XMLID_109_" class="st8" d="M132.7,145.1c1.3,0.1,2.6,0.1,3.9,0.3v-15.5c-1.3,0-2.6-0.1-3.9-0.3V145.1z"/>
	<path id="XMLID_108_" class="st8" d="M144.3,145.3c1.3,0,2.6-0.1,3.9-0.3v-15.5c-1.3,0.1-2.6,0.1-3.9,0.3V145.3z"/>
	<path id="XMLID_107_" class="st6" d="M190.7,104.7c0,13.4-22.6,25.1-50.3,25.1s-50.3-11.8-50.3-25.1s22.6-23.2,50.3-23.2
		S190.7,91.3,190.7,104.7"/>
	<path id="XMLID_106_" class="st9" d="M140.4,122c-26.4,0-42.5-10.3-42.5-17.4c0-7.1,16.1-17.4,42.5-17.4s42.5,10.3,42.5,17.4
		C182.9,111.7,166.9,122,140.4,122"/>
	<path id="XMLID_105_" class="st10" d="M153.5,107.3c1.6-0.4,2.5-1.3,2.2-2.5l-0.4-1.2c-0.3-0.9-1.3-1.6-2.6-2
		c-1.7-3.7-6.2-5-12.8-5c-0.3,0-0.7,0-0.9,0c-2.2,0.1-4.6-0.1-6.3-0.7c-0.7-0.3-1.3-0.6-1.7-0.7c-0.1-0.1-0.7,0-0.7,0.1
		c0,0.3,0,0.7,0.1,1c0.3,1.4,0,1.2-1.4,2.6c-0.7,0.7-1.4,1.9-2,2.9c-1.3,0.4-2.3,1-2.6,2l-0.4,1.2c-0.4,1.2,0.7,2.1,2.2,2.5
		c0.4,2.9,2.3,5.3,6.6,6.8l-0.3,2c0,0.6-0.6,1-1.2,1.3l-8.5,3.2c4.9,1,10.6,1.7,16.9,1.7c6.2,0,11.8-0.7,16.7-1.6l-8.3-3.2
		c-0.7-0.3-1.2-0.7-1.2-1.3l-0.3-2C151.1,112.7,153.1,110.2,153.5,107.3"/>
</g>
</svg>
