<?xml version="1.0" encoding="utf-8"?>
<!-- Generator: Adobe Illustrator 22.1.0, SVG Export Plug-In . SVG Version: 6.00 Build 0)  -->
<svg version="1.1" id="Layer_1" xmlns="http://www.w3.org/2000/svg" xmlns:xlink="http://www.w3.org/1999/xlink" x="0px" y="0px"
	 viewBox="0 0 283.5 283.5" style="enable-background:new 0 0 283.5 283.5;" xml:space="preserve">
<style type="text/css">
	.st0{fill:url(#SVGID_1_);}
	.st1{fill:url(#SVGID_2_);}
	.st2{opacity:0.3;fill:#231F20;}
	.st3{opacity:0.6;fill:#231F20;}
	.st4{fill:#FFFFFF;}
	.st5{opacity:0.4;}
	.st6{fill:url(#SVGID_3_);}
	.st7{fill:url(#SVGID_4_);}
	.st8{fill:url(#SVGID_5_);}
	.st9{fill:url(#SVGID_6_);}
	.st10{fill:url(#SVGID_7_);}
	.st11{fill:url(#SVGID_8_);}
	.st12{fill:url(#SVGID_9_);}
	.st13{fill:url(#SVGID_10_);}
	.st14{fill:url(#SVGID_11_);}
	.st15{fill:url(#SVGID_12_);}
	.st16{fill:url(#SVGID_13_);}
</style>
<g>
	<g>
		<linearGradient id="SVGID_1_" gradientUnits="userSpaceOnUse" x1="18.4939" y1="264.0222" x2="261.0504" y2="5.8558">
			<stop  offset="0" style="stop-color:#B1B7C2"/>
			<stop  offset="1" style="stop-color:#FFFFFF"/>
		</linearGradient>
		<path class="st0" d="M92.3,32.1C115.2,7,246.9,87.5,253,142.4c6.1,54.9-131.3,141.8-170.7,104.8C48.1,215,30.1,100.3,92.3,32.1z"
			/>
		<linearGradient id="SVGID_2_" gradientUnits="userSpaceOnUse" x1="-3.1249" y1="268.8324" x2="199.4053" y2="68.4226">
			<stop  offset="0" style="stop-color:#1C1D1F"/>
			<stop  offset="1" style="stop-color:#595959"/>
		</linearGradient>
		<path class="st1" d="M141.5,250c-33,5.8-124.6-106.2-109.6-152.3c15-46.1,118.8-65.6,184.3-26.2
			C286.5,113.8,197.4,240.3,141.5,250z"/>
		<g>
			<path class="st2" d="M195.2,92.1c37,15.9,15.8,101.1-11.1,122.2C155.7,236.5,61.9,226.7,58,143.7C56.2,106.1,115,57.5,195.2,92.1
				z"/>
			<path class="st3" d="M195.2,88.3c37,15.9,15.8,101.1-11.1,122.2C155.7,232.7,61.9,222.9,58,139.9C56.2,102.3,115,53.7,195.2,88.3
				z"/>
			<path class="st4" d="M195.2,83.7c37,15.9,15.8,101.1-11.1,122.2C155.7,228.1,61.9,218.3,58,135.3C56.2,97.7,115,49.1,195.2,83.7z
				"/>
			<path class="st4" d="M195.2,81.3c37,15.9,15.8,101.1-11.1,122.2C155.7,225.7,61.9,215.9,58,132.9C56.2,95.3,115,46.7,195.2,81.3z
				"/>
			<g class="st5">
				<path class="st4" d="M146.4,214c-21,0-42-6.7-57.5-18.4c-19.2-14.5-29.9-36.1-31.2-62.7c-0.6-12.2,5.3-25.7,16-37
					c16.3-17,41-26.8,67.8-26.8c17.4,0,35.5,4,53.8,11.9c10.6,4.6,17.3,15.3,19.4,31.1c4,31.1-11.1,76.5-30.4,91.6
					C175.9,210.3,162.1,214,146.4,214z M141.5,69.8c-26.7,0-51.2,9.7-67.4,26.6c-10.6,11.2-16.4,24.5-15.9,36.6
					c2.6,55.6,46.1,80.5,88.1,80.5c15.6,0,29.3-3.7,37.5-10.2c19.2-15,34.2-60.2,30.2-91.1c-2-15.5-8.6-26.1-19-30.6
					C176.9,73.7,158.9,69.8,141.5,69.8z"/>
			</g>
		</g>
	</g>
</g>
<g>
	<linearGradient id="SVGID_3_" gradientUnits="userSpaceOnUse" x1="73.6035" y1="143.0865" x2="119.8809" y2="143.0865">
		<stop  offset="0" style="stop-color:#1C1D1F"/>
		<stop  offset="1" style="stop-color:#595959"/>
	</linearGradient>
	<path class="st6" d="M119.2,148.6c-1-0.2-1,0-1.1-0.4c-0.1-0.5-0.7-0.5-1.3-0.5c-0.6,0-0.8,0-1.3-0.4c-0.5-0.4-1.5-0.4-1.8-0.5
		c-0.3-0.1-0.2-0.9-0.8-1.7c-0.6-0.8-2-0.9-2.8-1.4c-0.9-0.4-0.6-2.1-1.8-2c-1.2,0.1-1.3,0.6-2.5,0c-1.1-0.5-1.9-0.9-2.5-0.5
		c-0.6,0.4-1.3,1.1-1.7,1.3c-0.4,0.2-1-0.1-1.4-0.1c-0.4,0-0.8-0.3-1.1-0.7c-0.3-0.3,0.5-2-0.2-2c-0.7,0-1.6-0.3-1.6-0.5
		c0-0.2,1.4-1.7,1-1.9c-0.4-0.2-1.3-0.1-2,0.8c-0.7,0.9-1.4,0.9-1.8,0.5c-0.4-0.3-1.2-2.3-0.5-3.4c0.7-1.1,1.6-1.8,2.5-1.7
		c0.9,0,1.2-0.2,2.1-0.2c0.9,0,1.7,0.3,1.9,0.6c0.2,0.3-0.2,0.8,0.3,1.4c0.5,0.6,0.9,0.3,0.9,0.6c0.1,0.2-0.4,0.5-0.6,0.5
		s-2,0.4-1.3,0.7c0.7,0.3,1.9,0,2.2,0.4c0.3,0.4-0.9,1.2,0.7,1.3c1.6,0,2.7,0.2,3.6,0.3c0.9,0,1.6,0.1,1.7,0.3
		c0.1,0.2,0.7-0.7-0.7-0.7c-1.5,0-2.7-0.8-3.5-0.9c-0.8-0.1-1.3-0.6-1.4-1.2c-0.1-0.6,0.1-1-0.3-1.5c-0.3-0.5-1.1-1.6-0.4-2.1
		c0.7-0.5,2.2-1.4,2.6-2c0.4-0.6,0.4-0.8,1.2-1.3c0.9-0.5,1.9-1.1,2.4-1.5c0.5-0.4,1.3-1.1,1.4-0.8c0.2,0.3,0.9,0.4,1.8,0.1
		c0.9-0.3,2-1,1.1-1c-1,0-1.6-0.2-1.3-0.6c0.3-0.3-0.6-0.5-0.9-0.4c-0.3,0-0.3-0.5,0.6-0.6c0.9-0.1,0.2,0.7,0.9,0.7
		c0.7,0,1.2-0.7,1.8-0.8c0.5-0.1,0.7,0.3,0.1,0.8c-0.7,0.4-0.9,0.3,0,0.5c0.9,0.2,1.2,0.6,1.7,0.2c0.5-0.4-0.1-0.6-0.2-1.2
		c-0.1-0.6,0.4-1.7-0.2-2.1c-0.6-0.4-0.9-0.8-0.9-1.2c0-0.4,0.1-1.2-0.5-0.8c-0.6,0.4-1.1,0.6-1.3,0.4c-0.2-0.2,0.1-0.6-0.4-0.9
		c-0.5-0.3-0.5-0.7-1.1-0.7c-0.6,0-1.2-0.4-1.5,0.2c-0.3,0.6-0.6,1.2-0.7,1.4c-0.1,0.2,0.4,0.9-0.1,1.2c-0.4,0.3-1.6,0.8-1.8,1.2
		c-0.2,0.3-0.8,1.2-1,0.6c-0.2-0.6,0.5-1.5-0.4-1.7c-1-0.2-1.7,0-1.9-0.6c-0.2-0.5-0.6-1,0.4-1.5c1-0.4,1.9-1.2,2.8-1.3
		c0.9-0.1,0.3,0.6,1,0.5c0.7,0-0.1-0.4,0.8-0.5c0.9-0.1,0.7-0.1,0.5-0.4c-0.3-0.3-0.1-0.3,0.6-0.6c0.7-0.3,0.2-0.5,0.9-0.7
		c0.7-0.2,0.9-0.5,1.2-0.5c0.4,0,0.3,0.1,0.1,0.6c-0.2,0.4-0.4,0.7,0.3,0.4c0.6-0.3,1-0.5,0.5,0c-0.5,0.4-0.8,0.4-1.5,0.5
		c-0.7,0.1-0.5,0.2-0.2,0.5c0.3,0.3,1.1,0.4,1.4,0.6c0.3,0.2,0.6,0.9,1.2,0.5c0.6-0.3,0.2-0.4,1-0.7c0.9-0.3,2.1-0.5,2-1
		c-0.1-0.4-1-0.7-1.1-1.2c-0.1-0.5,1.2-0.8-0.5-1.1c-1.7-0.2-0.7-0.4-1.5-0.4c-0.8,0-2.3,0-2.8,0.2c-0.5,0.2-0.9-0.1-1.1,0.2
		c-0.3,0.4,0.1,0.9-0.2,0.9c-0.3,0-0.7,0.4-1,0c-0.2-0.4-0.7-0.8-0.1-0.9c0.6-0.1,0.7,0,0.9-0.5c0.1-0.4-0.9-0.4-0.3-0.5
		c0.6-0.1,0.9,0,1.7,0c0.8,0,2.6,0.3,2.9-0.1c0.3-0.4-0.4-0.4-1.2-0.5c-0.8,0-2.2-0.3-2.8,0c-0.6,0.2-1.3,0.6-1.6,1
		c-0.3,0.4-0.3-0.1-0.8,0c-0.5,0.1-1.4,0.6-1,0.9c0.5,0.3,0.5,0.6-0.1,0.6c-0.5,0-0.7,0.5-1.1,0.5c-0.4,0-1.4,0-0.9-0.3
		c0.5-0.2,1-0.2,1-0.8c-0.1-0.6,0.5-0.8,0.5-1c0-0.2-1.3,0.4-2.3,0.1c-1-0.3-1.4-0.7-2.5-0.7c-1,0-2.4,1.3-1.7,1.4
		c0.6,0.1,1.1-0.1,1.2,0.2c0.1,0.3-0.1,0.5,0.3,0.7c0.4,0.1,1.1,0.5,0.2,0.3c-0.9-0.2-0.5-0.5-1.9-0.6c-1.4,0-2.2-0.4-3.7-0.1
		c-1.4,0.3-1.2,0.6-2.2,0.3c-1-0.3-3.3-1.4-4.9-1.1c-1.6,0.3-3.3,1.2-3.8,1.5c-0.5,0.3-0.7-0.4-1.6-0.4c-0.9,0-2.9-0.2-2.5,0.2
		c0.4,0.5,1,0.5,0.3,0.6c-0.6,0.1-1.5,0.1-1.8,0.6c-0.3,0.4-1.5,0.7-0.7,0.9c0.7,0.2,2,0.6,1.4,0.7c-0.5,0-3.3,1-4.4,1.3
		c-1.2,0.2-1.1,3-0.1,2.6c1.3-0.4,3.7-3,4.4-3.2c0.6-0.2,0.9,0,0.9,0.3c-0.1,0.3,0.7-0.1,1.4-0.6c0.6-0.4,0.8-1.5,1.3-1.2
		c0.5,0.3,0.7,0.2,1.1,0.1c0.4-0.1,2.5,0.6,2.9,0.8c0.4,0.2,0.9,0.7,1.2,0.9c0.3,0.2,0.4,0.6,0.1,0.7c-0.3,0-0.3,0.3-0.3,0.7
		c0.1,0.4,0.3,0.7-0.3,0.8c-0.5,0.1-0.4,0.7-0.1,0.6c0.3,0,0.5-0.2,0.6-0.5c0.1-0.3,0.7-0.8,0.6-0.4c-0.1,0.4-0.4,0.8-0.4,1.1
		c0,0.3-0.4,0.2-0.4,0.5c-0.1,0.3,0.1,0.3,0.3,0.5c0.3,0.2,0.1,0.4,0.1,0.9c-0.1,0.5-1.7,2-1.9,2.5c-0.2,0.5-0.1,1.2-0.1,1.7
		c0,0.5-0.2,1.2,0.4,1.4c0.6,0.2,0.6,0.3,0.6,0.8c0,0.5,0,1.1,0.3,1.4c0.3,0.3,0.2,0.3,0.2,0.8c0,0.5,0.4,0.2,0.4,0.7
		c0.1,0.4-0.3,0.6,0.3,1c0.5,0.3,1.1,0.6,0.9,0c-0.3-0.5-0.4-1-0.7-1.7c-0.3-0.8-0.4-2.2-0.1-1.7c0.3,0.4,0.7,1.7,1.2,2.7
		c0.5,0.9,1.1,0.8,1.1,1.5c0,0.7-0.6,1.3,0.6,1.7c1.2,0.4,2,1.4,2.7,1.3c0.7-0.1,1.1-0.5,1.4,0c0.3,0.4,0.9,1,1.5,1s0.9,0.4,1,1
		c0.1,0.6,0.5,0.7,1.2,0.9c0.6,0.2,0.8,0.8,1.3,0.8c0.5,0,1.1-0.2,1.1,0.2c0,0.4,0.2,1.5-0.6,2.2c-0.8,0.7-1.2,1.2-0.7,1.6
		c0.4,0.4,0.1,0.9-0.2,1.2c-0.2,0.3,0.2,0.6,0.6,1.2c0.4,0.5,1,1.2,1.4,2.2c0.4,1.1,0.9,1.5,1.8,1.8c0.9,0.3,1.6,0.9,1.6,1.7
		c0,0.8-0.1,3.6-0.1,4.4c0,0.8,0.5,1.6,0.3,2.3c-0.2,0.6,0,1.2,0.2,1.4c0.2,0.2,0.2,0.8,0.2,1.3c0.1,0.5,0.7,0.1,0.7,0.6
		c0,0.5-0.3,1.2,0.1,1.5c0.3,0.2-0.4,1.1,1.1,1.9c1.4,0.8,1.6,0.9,1.7,1c0.1,0.1,0.6-0.3,0.6,0c0,0.2-0.8,1.7,0.7,1.7
		c1.5,0,2.4-0.5,1.5-1.1c-0.9-0.6-1.4-0.3-1.6-1c-0.2-0.6-0.4-0.5-0.5-1c-0.1-0.4,0.4-0.6,0.2-1.1c-0.2-0.4-0.9-0.5-0.9-0.9
		c0.1-0.4,0.6-0.8,0.7-1c0.1-0.2,0.1-0.4-0.2-0.6c-0.3-0.2-0.2-0.2,0.2-0.3c0.4-0.1,0.4,0,0.6-0.4c0.2-0.5,0.6-0.4,0.9-0.6
		c0.2-0.1,1-0.3,0.7-1c-0.3-0.6-1-1-0.4-1c0.6,0,1.4,0,1.7-0.7c0.4-0.7,0.2-0.8,0.6-1.4c0.4-0.5,0.2-1,0.2-1.4c0-0.4,0-0.7,0.6-1
		c0.6-0.2,2.5-0.5,2.8-1.3c0.3-0.7,0.5-1.5,0.4-2.3c-0.1-0.8-0.2-1.3,0.4-1.9c0.6-0.6,1.3-1.2,1.3-1.7
		C119.8,149.7,120.1,148.9,119.2,148.6z"/>
	<linearGradient id="SVGID_4_" gradientUnits="userSpaceOnUse" x1="101.4851" y1="115.6457" x2="133.0852" y2="115.6457">
		<stop  offset="0" style="stop-color:#1C1D1F"/>
		<stop  offset="1" style="stop-color:#595959"/>
	</linearGradient>
	<path class="st7" d="M129.2,115.9c0.6-0.6,0.4-0.9,1.2-1.2c0.8-0.3,0.6-0.7,0.5-1.3c-0.1-0.6,0.3-0.3,0.6-0.5
		c0.3-0.2,0.5-0.3,1.2-0.4c0.7,0,0.1-0.3,0.1-0.6c0-0.3-0.5-0.2-1.3-0.1c-0.7,0.1-0.6,0-1.2-0.2c-0.5-0.2-3.7-0.2-4.5-0.2
		c-0.8,0-2.2,0.1-3,0.2c-0.7,0-0.7,0-2.1-0.1c-1.4-0.1-5.2,0-6.6,0.1c-1.4,0.1-2.2-0.2-3.1,0.3c-0.9,0.5-1.3,0.3-2.3,0.4
		c-1,0.1-1.7-0.1-2.2-0.1c-0.5,0-0.4-0.2-1.3,0c-0.9,0.3-0.6,0.5-0.9,0.1c-0.3-0.4-0.7,0-2.2,0.3c-1.5,0.3,0.7,1.5,1.2,1.7
		c0,0,1,0,1.6-0.2c0.6-0.1,0.9,0.2,1.2,0.1c0.4-0.1,0.5-0.4,2.6-0.9c2.1-0.4,3.6-0.1,4.5,0.2c0.9,0.3,0.9,0.1,1.6-0.3
		c0.7-0.4,2-0.8,3.4-1c1.3-0.2,0.5,0.2-0.4,0.5c-0.9,0.3-1.6,0.2-1.4,0.7c0.2,0.5,1.8,0.3,2.3,0.3c0.5,0,0.5,0.7,0.6,1.1
		c0.1,0.4-0.1,0.6,0.1,1c0.1,0.4,0.4,0.3-0.1,0.7c-0.5,0.4-0.7,0.3-0.7,1c0,0.7,0.3,1.4,1.1,1.9c0.7,0.5,1.2,0.5,1.6-0.2
		c0.4-0.8,1.4-1.3,2-1.5c0.5-0.2,1.3,0,2-0.6c0.7-0.6,1.6-0.3,2.6-0.6C128.7,116.3,128.6,116.5,129.2,115.9z"/>
	<linearGradient id="SVGID_5_" gradientUnits="userSpaceOnUse" x1="127.2328" y1="119.8713" x2="130.9857" y2="119.8713">
		<stop  offset="0" style="stop-color:#1C1D1F"/>
		<stop  offset="1" style="stop-color:#595959"/>
	</linearGradient>
	<path class="st8" d="M130.1,118.6c-1.6,0.2-3.1-0.3-2.8,0.5c0.3,0.8,0.4,2.2,1.2,2c1.5-0.4,2.8-0.9,2.4-1.6
		C130.5,118.9,131.7,118.4,130.1,118.6z"/>
	<linearGradient id="SVGID_6_" gradientUnits="userSpaceOnUse" x1="138.7752" y1="114.1411" x2="145.065" y2="114.1411">
		<stop  offset="0" style="stop-color:#1C1D1F"/>
		<stop  offset="1" style="stop-color:#595959"/>
	</linearGradient>
	<path class="st9" d="M140.4,114.9c0.1,0,0.1,0,0.2,0c0.5,0.2,0.9-0.1,1-0.5c0.6-0.8,0.4,0.6,1,0.4c0.6-0.2,1.6-0.8,2.3-1.2
		c0.7-0.3-0.9-0.2-2.2-0.4c-1.3-0.2-3.2,0.1-3.7,0.5C138.4,114.1,139.7,114.7,140.4,114.9z"/>
	<linearGradient id="SVGID_7_" gradientUnits="userSpaceOnUse" x1="147.2796" y1="112.6543" x2="152.5225" y2="112.6543">
		<stop  offset="0" style="stop-color:#1C1D1F"/>
		<stop  offset="1" style="stop-color:#595959"/>
	</linearGradient>
	<path class="st10" d="M148.3,112.9c0,0-0.3,0.3,0.4,0.3c0.6,0,2-0.4,3-0.4c1.1,0,0.7-0.3,0.5-0.3c-0.2,0-0.8-0.5-1.7-0.5
		c-0.9,0-0.8,0.4-1.3,0.4s-0.4-0.1-1.6-0.1C146.6,112.4,147.8,112.8,148.3,112.9z"/>
	<linearGradient id="SVGID_8_" gradientUnits="userSpaceOnUse" x1="126.8981" y1="136.9829" x2="198.7623" y2="136.9829">
		<stop  offset="0" style="stop-color:#1C1D1F"/>
		<stop  offset="1" style="stop-color:#595959"/>
	</linearGradient>
	<path class="st11" d="M198.7,115.7c-0.1-0.6,0-1.6-1.8-1.5c-3.2,0.2-4-0.1-4.6-0.1c-0.6,0-0.3-0.4,0.1-0.4c0.4,0,0.4-0.4,0-0.6
		c-0.4-0.2-1,0-1.2,0.4c-0.2,0.4,0.6,0.6-0.6,0.6c-1.2,0-2.9,1.6-4.3,1.4c-1.4-0.2-1.9-1.1-3.1-1.2c-1.2,0-2.3,1.1-3.5,1.1
		c-1.3,0-0.9-0.4-1.4-1c-0.5-0.5-0.8-0.4-2.4-0.4c-1.6,0-0.7,0.6-0.4,0.7c0.3,0.1,1.2,0.3,1.8,0.8c0.6,0.5-1.1,0.3-1.8,0.3
		c-0.7,0-0.6-0.3-1.4-0.8c-0.8-0.4-2.8-0.2-3.9-0.2c-1.1,0-1.2,0-1.6-0.7c-0.4-0.7-1.3-0.3-2.5-0.3c-1.2,0-1.8-0.5-2.4-0.9
		c-0.6-0.3-1.5-0.4-2.8-0.6c-1.3-0.2-0.6,0.7-0.1,0.8c0,0,0.5,0.2,1.1,0.2c0.5,0,1.7,0.1,2.2,0.7c0.6,0.6-1.8,0.4-2.9,0.9
		c-1.1,0.5-1.9,0.3-2.7,0.6c-0.7,0.3,0.4,0.8,0.6,1.4c0.3,0.6,0,0.6-0.5,0.8c-0.5,0.1,0.2-0.7-0.1-0.9c-0.2-0.2-1-1.5-1.7-1.9
		c-0.6-0.4-0.5,0.3-0.4,0.9c0.1,0.5,0.3,0.5,0.4,0.9c0.2,0.4-0.7,0-1.1-0.3c-0.4-0.3-1.8,0.4-2.5,0.1c-0.6-0.3,0.2-0.2,0.2-0.5
		c0-0.3-0.7,0-1-0.5c-0.2-0.4,1.3-1,2.3-1.1c1-0.1,0.9-0.1,0.9-0.6c0-0.4-1.7-0.3-3.2,0.3c-1.4,0.6-1.1,1.1-1.3,1.5
		c-0.2,0.4,0.5,0.5,0.8,0.7c0.3,0.2-0.4,0.3-1,0.5c-0.6,0.2-0.8,0-1.6,0.2c-0.7,0.2-0.3,0.5-1,0.8c-0.6,0.2-0.6,0.2-1.1,0.4
		c-0.5,0.2,0.1-0.7,0.9-0.8c0.7-0.1,0.5-0.5,0.3-0.6c-0.2-0.1-1.6-0.5-3.1-0.9c-1.5-0.4-3.9,0.1-4.7,0.5c-0.8,0.3-0.7,0.6-0.9,1.1
		c-0.1,0.5-1.9,1.2-2.8,1.6c-0.9,0.4-0.1,1,0.2,1.4c0.3,0.4,0.9,0.2,1.6,0c0.7-0.2,0.6,0.6,0.7,0.9c0.1,0.3,0.5,0.3,1.2,0
		c0.7-0.3,0.5-1,0.5-1.4c0-0.4-0.2-0.6,0.3-1.1c0.5-0.5,0.9-0.9,1.3-1.1c0.4-0.2,0.4,0.2-0.3,0.7c-0.6,0.5-0.2,0.6,0.1,1.2
		c0.3,0.6,1,0,1.8-0.1c0.8-0.1-0.7,0.6-1.3,0.6c-0.6,0,0,0.6-0.4,0.6c-0.4,0-0.4,0.2-0.5,0.8c-0.1,0.6-0.3,0.4-0.7,0.6
		c-0.4,0.1-1.1,0.2-1.8,0c-0.7-0.1-0.6-0.7-1.1-1.1c-0.5-0.4-0.6,0.2-0.6,0.4s-0.5,0.8-0.7,0.8c-0.2,0-0.9,0.6-1.2,1.1
		c-0.4,0.5-0.6,0.2-0.7,0c-0.1-0.2,0.3-0.5,0.1-1c-0.2-0.5-1.1-0.9-0.8-2c0.3-1.1-0.3-0.5-1.2-0.4c-0.9,0.1-1.1,0.4-1.2,0.7
		c-0.1,0.3-0.5,0.9-1.1,1.4c-0.5,0.5-0.2,1,0.1,1.5c0.3,0.6,1-0.2,1.2-0.7c0.2-0.5,0.5-0.7,0.8-0.5c0.3,0.2-0.5,0.7-0.6,1.3
		c-0.1,0.6,0.2,0.5,1,0.3c0.7-0.2,0.4-0.3,1-0.1c0.6,0.2-0.5,0.4-1.2,0.5c-0.7,0-0.4,0.5,0.2,0.9c0.6,0.4,0.3,1-0.1,1
		c-0.4,0-1.1,0.1-2.1,0.3c-1.1,0.2-0.1,1-0.3,1.4c-0.2,0.4-0.3,1.4,0.2,1.5c0.5,0,0.5,0.8,0.2,1c-0.3,0.2-0.3,0.5-1,0.9
		c-0.6,0.4-0.2,0.8-0.4,1.4c-0.2,0.6-0.7,0.2-1.4,0.9c-0.6,0.6-0.9,1.1-1.4,1.8c-0.5,0.7-0.5,0.8,0.1,1.6c0.6,0.9,0,1.1-0.5,1.9
		c-0.5,0.8,0.2,0.8,0.4,1.5c0.2,0.7,0.6,0.5,0.8,1.2c0.2,0.7,0.4,0.9,1.1,1.4c0.7,0.5,1.5,1.2,1.9,1c0.4-0.1,1-0.5,2.2-0.5
		c1.2,0,0.8-0.5,2.1-0.7c1.3-0.2,0.2,0.3,0.4,0.6c0.2,0.3,1.3,0.5,2.2,0.6c1,0,0.2,1.1,0.1,1.8c-0.1,0.7,0,0.7,0.5,1.3
		c0.5,0.6,1.1,1.9,1.3,2.6c0.2,0.7-0.2,1.4-0.6,2.1c-0.4,0.6-0.3,2.1,0.6,3.1c0.9,1.1,0.4,1,0.4,2.1c0,1.1,0.6,0.9,1.1,1.5
		c0.5,0.6,0.3,1.8,0.7,2.4c0.4,0.6,1.2,0,2-0.2c0.9-0.3,1.2-0.2,2.2-0.9c1-0.7,1.8-2,1.8-2.4c0-0.4,0.3-0.5,0.9-0.7
		c0.5-0.2,0.4-1.5,0.4-1.8c-0.1-0.3,0.1-0.6,0.3-0.8c0.2-0.2,1.6-1.4,2-1.8c0.5-0.5,0.1-1.2-0.1-1.9c-0.1-0.8-0.4-1.1-0.4-2
		c0-0.9-0.3-0.8,1.4-2.3c1.8-1.5,3.4-3.9,3.6-4.4c0.2-0.5,0.1-1,0-1.4c-0.1-0.4-2.4,0.4-2.9,0.4c-0.5,0-1.9-1-2-1.4
		c-0.1-0.4-0.5-0.8-1.2-1.4c-0.7-0.6-0.2-1.4-0.7-2c-0.5-0.6-0.8-1.5-0.9-2.1c-0.1-0.5,0.8,0.4,1.5,1.1c0.7,0.7,1.6,2.1,1.9,2.6
		c0.3,0.5,0.5,1.2,0.5,1.8c0.1,0.6,0.5,0.7,1.1,0.6c0.6,0,2.9-1.1,3.7-1.5c0.8-0.3,1.8-1.4,2.1-2.3c0.4-1-0.8-0.8-1.3-1.3
		c-0.5-0.5-0.5,0-1.2,0.1c-0.6,0.1-1.2-0.6-2.2-1.5c-1-0.9-0.4-0.6-0.2-0.8c0.2-0.2,1.2,0.4,1.8,1.1c0.6,0.6,0.7,0.4,1.4,0.4
		c0.7,0,0.9,0.3,1.8,0.5c0.9,0.2,1.4-0.1,2.2,0c0.8,0.1,0.7,0.4,1.2,1.2c0.5,0.8,0.3,0.5,1.5,0.6c1.2,0.1,0.3,0,0.3,0.7
		c0,0.7,0.1,0.9,0.8,1.7c0.7,0.8,1,2.4,1.2,3.1c0.2,0.8,0.6,0,1.3,0c0.7,0-0.2,0.7,0.6,1.3c0.9,0.7,0.9-0.3,0.9-0.6
		c0-0.3-0.3-1-0.6-1.2c-0.3-0.2-0.7-0.2-0.4-0.6c0.4-0.4-0.4-0.6-0.4-1.2c0-0.5,0.2-1.2,0.5-1.5c0.3-0.2,1.6-0.9,2.1-1.5
		c0.6-0.6,1.1-0.7,1.9-0.7c0.8,0,0.2,0.1,0.6,0.7c0.5,0.6,0.6,1.4,1.1,2c0.5,0.6,0.6-0.1,1-0.3c0.4-0.2,0.2,0.6,0.5,1.2
		c0.3,0.6,0.1,1.4,0.1,1.9c0,0.5,0.7,1.1,1.1,1.5c0.4,0.5,0.3,0.7,0,0.9c-0.3,0.2-0.8-0.5-1.2-0.9c-0.4-0.4-1.1-0.1-0.6,0.3
		c0.4,0.4,0.7,1.2,1.2,2c0.5,0.8,1.5,1.8,2.2,2.7c0.7,0.9,2.9,1.3,3.8,1.3c0.9,0,2.6,0.7,3.4,0.8c0.9,0.1,1.5,0,2.1-0.3
		c0.6-0.3,0.3-0.6,0.3-0.8c-0.1-0.1-0.5,0.1-1.1,0.2c-0.6,0.1-0.7,0.1-1.5,0.1c-0.7,0-0.3-0.2-1.1-0.3c-0.8,0-1.6-0.2-2.5-0.5
		c-0.9-0.3-1.4-0.5-2-0.7c-0.6-0.2-0.1-0.5-0.1-1.4c-0.1-0.8-0.6-0.5-1.1-0.8c-0.5-0.3-0.3-0.9-0.1-0.7c0.2,0.2,0.3,0.4,0.3-0.6
		c0-1-1-1.7-1.7-2.6c-0.6-0.9-0.5-1.4-0.5-1.8c0.1-0.4,1.2,0.4,1.8,1c0.6,0.6,0.6,0.6,0.9,0.5c0.3-0.1,1.3-0.6,1.5-1.4
		c0.2-0.8-1.7-2.3-2-3c-0.3-0.7,0.4-0.3,0.7-0.8c0.3-0.5,0.7,0.2,0.5,0.5c-0.2,0.3,0.1,0.5,0.3,0.9c0.2,0.3,0.2,0,0.4-0.4
		c0.2-0.4,0.1-0.6,0.4-0.9c0.4-0.3,1.8-0.7,2.2-1c0.4-0.3,0.6-0.7,1.1-1.9c0.5-1.2-0.1-1.2-0.3-1.6c-0.2-0.4-0.9-1.2-1.2-1.6
		c-0.4-0.4-0.1-0.3,0.2-0.5c0.3-0.1,0.1-0.5-0.6-0.7c-0.6-0.2-0.5,0.2-1.1,0.1c-0.6-0.1-0.3-0.5,0.4-1.2c0.6-0.7,0.3,0.1,0.7,0.4
		c0.4,0.3,0.5-0.2,0.9-0.1c0.3,0.1,1,0.4,1.4,1c0.5,0.6,0.5,1.4,1,1.4c0.5,0,0.5-0.4,0.7-0.8c0.2-0.4-0.5-0.9-0.9-1.2
		c-0.4-0.3-0.8-0.3-0.5-0.6c0.3-0.3,0.1-0.7,0.2-1.1c0.2-0.3,0.7-0.1,1.3-0.4c0.6-0.2,0.6-1.1,0.6-1.9c0-0.9-0.5-1.3-0.7-1.5
		c-0.3-0.3,0.3-0.1,0.8,0.2c0.5,0.3,1.2,2.2,1.4,2.9c0.2,0.7,0.1,0.7,0.7,1.4c0.6,0.6,0.4,0.5,0.2,1.3c-0.2,0.7-0.7,0.9-1.6,1.1
		c-0.8,0.2-0.5,0.3-1,1.1c-0.5,0.7,0.3,0.8,0.7,1c0.4,0.2,0.5-0.6,1-0.9c0.5-0.3,1.3-0.5,2.2-0.5c0.9,0-0.3-1.1-0.3-1.7
		c-0.1-0.6-0.1-1-0.3-1.4c-0.2-0.4,0.2-0.4,0.9-0.7c0.6-0.3,0.6-0.9,0.2-0.9c-0.4,0-0.7,0.2-1.6,0.2c-0.9,0-0.6-0.7-0.9-0.9
		c-0.2-0.2-0.5-0.8-0.5-1.2c-0.1-0.4-0.8-1-1.3-1.5c-0.5-0.4-0.9-0.7-0.9-0.5c0,0.2-0.3,0-1.1-0.1c-0.7,0-0.9,0.1-1.5,0
		c-0.6,0,0.1-1,0.3-1.7c0.3-0.7,1-0.3,1.6-0.3s2.7-2.3,3.5-2.1c0.9,0.2,0.5-0.5,0.6-1c0.2-0.5,0.5-0.2,1,0c0.5,0.2,0.6,0.2,0.6-0.2
		s0.4-0.5,0.8-0.1c0.2,0.2,0.2,0.5,0.1,0.8c-0.2,0.5-0.2,1-0.1,1.6c0.1,0.5,0.2,1,0.5,1.2c0.6,0.3,0.4,1.9,1,2.3
		c0.7,0.4,0.5-0.7,0.5-1.6c0-0.8-0.3-2.2-0.8-3c-0.5-0.8-0.2-0.4,0.7-0.4c0.9,0,1-0.3,1.2-0.5c0.2-0.2,0.4-0.3,1.2-0.3
		c0.8,0,0.3-0.3-0.1-0.7c-0.4-0.4-1.1-0.3-0.9-0.5c0.3-0.2,1.7,0.1,2.4,0.4C198.9,116.5,198.8,116.3,198.7,115.7z M148.8,131.8
		c-0.3,0.6-0.5,1-1,0.8c-0.5-0.1-2.1-0.1-2.9-0.3c-0.8-0.2-2-0.7-2.2-0.1c-0.2,0.5,0.5,1-0.8,0.5c-1.3-0.4-2.8-1-2.9-1.4
		c-0.2-0.4,0.5-1.4-0.4-1.4c-1,0-2.3,0-2.7,0.2c-0.4,0.3-2.1,0.8-2.6,0.7c-0.5-0.1-1.2-0.3-0.4-0.6c0.9-0.3,1.9-0.1,2-0.6
		c0.1-0.5-0.7-0.6,0.1-1c0.9-0.4,0.5-0.8,1.1-1.1c0.6-0.2,1.4-0.2,1.8-0.3c0.4-0.1-0.2-0.3,0.7,0.1c0.9,0.4,1.4,1.3,1.8,1.3
		c0.4,0,0.7,0.3,0.4,0.5c-0.3,0.2-0.7,0.3-0.9,0.3c-0.2,0-0.3,0.4-0.1,0.4c0.2,0,0.5,0.7,0.8,0.5c0.3-0.2-0.1-0.5,0.4-0.7
		c0.5-0.1,1.1-0.3,0.8-0.6c-0.2-0.3-0.4-0.6,0-0.4c0.4,0.2,0.9,0.2,0.4-0.3c-0.5-0.4-0.8-0.5-1.4-0.9c-0.6-0.4-1.2-0.6-1.2-0.9
		c0-0.3-0.4-0.8,0.2-0.6c0.6,0.2,2.6,1.2,2.6,1.6c0,0.4,0.5,1.1,0.1,1.4c-0.5,0.3,0.5,0.4,0.7,0.6c0.2,0.2,0.1,0.7,0.7,0.6
		c0.6-0.1,1,0,0.7-0.6c-0.3-0.5-0.9-0.8-0.3-1c0.5-0.2,0.6-0.4,0.8,0.4c0.2,0.8-0.1,1.1,1.2,1.2c1.3,0,2.1-0.3,2.3,0
		C148.9,130.6,149.1,131.2,148.8,131.8z M150.9,128.2c-0.9,0-2.1,0-2.8,0c-0.7,0-1.4,0.2-1.4,0.2c-0.6-0.1-1.7-0.1-1-0.9
		c0.7-0.8,0.3-1.9,1.1-1.6c0.9,0.3,0.9,1.3,1.4,0.6c0.5-0.7,1.1-1.4,1.3-0.8c0.2,0.5-0.7,1,0.4,1.4
		C151,127.4,151.7,128.2,150.9,128.2z M156.1,130.2c-0.8,0-1.9-0.4-1.9-0.8c0-0.4-0.1-0.9-0.1-0.9c-0.3-1.1-1.1-1.2-1.1-1.8
		s0.6-1.1,1.5-1.1c0.9,0,1.9,0,1.3,0.7c-0.6,0.7-1.9,0.6-1,1.7C155.7,129,156.9,130.2,156.1,130.2z"/>
	<linearGradient id="SVGID_9_" gradientUnits="userSpaceOnUse" x1="184.6823" y1="136.3451" x2="185.6519" y2="136.3451">
		<stop  offset="0" style="stop-color:#1C1D1F"/>
		<stop  offset="1" style="stop-color:#595959"/>
	</linearGradient>
	<path class="st12" d="M185.3,137c0.4,0.1,0.5-1.5-0.2-1.2C184.3,135.9,184.8,136.9,185.3,137z"/>
	<linearGradient id="SVGID_10_" gradientUnits="userSpaceOnUse" x1="185.2387" y1="141.4365" x2="188.9787" y2="141.4365">
		<stop  offset="0" style="stop-color:#1C1D1F"/>
		<stop  offset="1" style="stop-color:#595959"/>
	</linearGradient>
	<path class="st13" d="M186.3,141.7c0.4,0.2,0.4,0.6,0.4,1.2c-0.1,0.6-0.7,0.5,0.4,0.9c1,0.4,2.2,1,1.9-0.2
		c-0.3-1.2-0.1-1.4-1.1-2.3c-1.1-0.9-1.1-0.3-1.3-1.1c-0.1-0.8-0.4-2.2-0.8-1.6c-0.4,0.5-0.7,0.7-0.2,1.5
		C185.9,140.9,185.9,141.5,186.3,141.7z"/>
	<linearGradient id="SVGID_11_" gradientUnits="userSpaceOnUse" x1="181.1764" y1="146.0233" x2="185.4412" y2="146.0233">
		<stop  offset="0" style="stop-color:#1C1D1F"/>
		<stop  offset="1" style="stop-color:#595959"/>
	</linearGradient>
	<path class="st14" d="M184,143.6c-0.4,0.4-1.1,1.4-1.6,1.7c-0.5,0.3-1.3-0.1-1.3,0.7c0.1,0.8,0.1,1.1,0.2,1.6
		c0.1,0.5,0.2,0.9,1.1,0.9c0.9,0,1.3,0.3,1.6,0.2c0.3-0.1,0.2-0.6,0.6-1.2c0.4-0.7,1-0.5,0.7-1c-0.2-0.5-0.2-0.4-0.2-0.9
		c0-0.5,0.3-0.2,0.1-1C185.1,143.7,184.4,143.1,184,143.6z"/>
	<linearGradient id="SVGID_12_" gradientUnits="userSpaceOnUse" x1="185.5134" y1="148.6885" x2="200.238" y2="148.6885">
		<stop  offset="0" style="stop-color:#1C1D1F"/>
		<stop  offset="1" style="stop-color:#595959"/>
	</linearGradient>
	<path class="st15" d="M196.7,148.7c-0.8-0.8-2.1-1.3-2.6-1.2c-0.5,0.1-1,0.8-1.3,0.5c-0.3-0.3-1.2-1.6-1.7-1.2
		c-0.5,0.4,0.1,0.8-0.5,0.8c-0.6,0-0.8,0.7-0.9-0.2c-0.1-0.9-0.6-1.3-0.7-0.7c-0.1,0.7-0.2,1.1-0.5,0.6c-0.3-0.5-0.5-0.2-0.5-0.7
		c0-0.5-1.2-1-1.7-0.5c-0.3,0.3-0.4,0.4-0.5,1.1c-0.1,0.8-0.4,2,0.2,1.6c0.7-0.3,0.8-0.1,1.1-0.4c0.3-0.4,0.7-0.6,1.2-0.4
		c0.5,0.2,0.3,0.2,1.3,0.1c1-0.1,1.4-0.1,2.1,0.3c0.7,0.4,2,0.2,2,0.5c0,0.4-1.4,0.7,0,1c1.4,0.4,1.7,1.2,2.1,0.8
		c0.4-0.4,1-1,1.4-0.6c0.4,0.4,2,1.6,1.7,1c-0.3-0.7-0.2-1.2,0.7-2c1-0.7,0.7-1,0.3-1c-0.4,0-0.4,0.5-1.4,0.6
		C197.5,149,197.5,149.4,196.7,148.7z"/>
	<linearGradient id="SVGID_13_" gradientUnits="userSpaceOnUse" x1="181.0881" y1="158.8562" x2="198.4963" y2="158.8562">
		<stop  offset="0" style="stop-color:#1C1D1F"/>
		<stop  offset="1" style="stop-color:#595959"/>
	</linearGradient>
	<path class="st16" d="M197.1,155.7c-0.5-1.2-0.5-2.2-0.8-2.8c-0.3-0.5-0.1-1.2-1-1.2c-0.4,0-0.4,0.2-0.7,0.9
		c-0.3,0.7,0.1,2-0.7,1.8c-0.8-0.2-1.1-0.5-1.3-1.2c-0.2-0.7,0.2-1.4-0.4-1.4c-0.6,0-2.3-0.4-2.7,0.2c-0.4,0.6,0.1,0.8-0.8,0.8
		c-0.9,0-1.3,0-1.7,0.5c-0.5,0.5-1.1,2.1-3.7,2.2c-2.6,0.1-1.3,1.4-1.3,2.7c0,1.4-1.4,2.2-0.8,2.7c0.6,0.5-0.2,1.1,1.1,0.8
		c1.3-0.4,2.4-0.5,4.4-0.8c2-0.3,2.9-0.4,2.9,0.5c0.1,0.9-0.2,0.3,0.5,0.4c0.8,0.2-0.1,1.3,0.8,1.4c0.9,0.1,0.2,0.9,0.9,0.9
		c0.8,0,0.6,0.6-0.1,0.6c-0.7,0-0.7,1.5,0.3,1.1c1-0.4,1.7-0.8,1.7-1.5c0-0.7-0.1-0.7,1-1.5c1.1-0.8,3.8-2.8,3.6-4.3
		C198.3,157,197.6,156.9,197.1,155.7z"/>
</g>
</svg>
