<?xml version="1.0" encoding="utf-8"?>
<!-- Generator: Adobe Illustrator 22.1.0, SVG Export Plug-In . SVG Version: 6.00 Build 0)  -->
<svg version="1.1" id="Layer_1" xmlns="http://www.w3.org/2000/svg" xmlns:xlink="http://www.w3.org/1999/xlink" x="0px" y="0px"
	 viewBox="0 0 283.5 283.5" style="enable-background:new 0 0 283.5 283.5;" xml:space="preserve">
<style type="text/css">
	.st0{fill:url(#SVGID_1_);}
	.st1{fill:url(#SVGID_2_);}
	.st2{opacity:0.3;fill:#231F20;enable-background:new    ;}
	.st3{opacity:0.6;fill:#231F20;enable-background:new    ;}
	.st4{fill:#FFFFFF;}
	.st5{opacity:0.4;}
	.st6{fill:#E95454;}
	.st7{fill:#ED6362;}
	.st8{fill:#FFCC5B;}
	.st9{fill:#FDBC4B;}
	.st10{fill:#FFDB70;}
</style>
<g>
	<g>
		
			<linearGradient id="SVGID_1_" gradientUnits="userSpaceOnUse" x1="26.8223" y1="255.411" x2="273.3038" y2="-9.8486" gradientTransform="matrix(1 0 0 1 0 3.051758e-05)">
			<stop  offset="0" style="stop-color:#B1B7C2"/>
			<stop  offset="1" style="stop-color:#FFFFFF"/>
		</linearGradient>
		<path class="st0" d="M84.5,14.9C111-14.1,263.4,79,270.4,142.5s-151.9,164-197.5,121.2C33.3,226.5,12.6,93.8,84.5,14.9z"/>
		
			<linearGradient id="SVGID_2_" gradientUnits="userSpaceOnUse" x1="-25.8482" y1="288.7373" x2="208.4387" y2="56.9031" gradientTransform="matrix(1 0 0 1 0 3.051758e-05)">
			<stop  offset="0" style="stop-color:#124B97"/>
			<stop  offset="0.4258" style="stop-color:#7D4196"/>
			<stop  offset="0.8226" style="stop-color:#DA3894"/>
			<stop  offset="1" style="stop-color:#FF3494"/>
		</linearGradient>
		<path class="st1" d="M141.4,266.9C103.3,273.6-2.6,144,14.7,90.8s137.4-75.8,213.2-30.2C309.1,109.5,206.2,255.7,141.4,266.9z"/>
		<g>
			<path class="st2" d="M203.6,84.3c42.8,18.5,18.4,117-12.8,141.4C157.9,251.5,49.3,240,45,144.1C42.8,100.5,110.7,44.3,203.6,84.3
				z"/>
			<path class="st3" d="M203.6,79.9c42.8,18.5,18.4,117-12.8,141.4C157.9,247.1,49.3,235.6,45,139.7
				C42.8,96.1,110.7,39.8,203.6,79.9z"/>
			<path class="st4" d="M203.6,74.6c42.8,18.5,18.4,117-12.8,141.4C157.9,241.8,49.3,230.3,45,134.4
				C42.8,90.8,110.7,34.5,203.6,74.6z"/>
			<path class="st4" d="M203.6,71.8c42.8,18.5,18.4,117-12.8,141.4C157.9,238.9,49.3,227.5,45,131.5C42.8,88,110.7,31.8,203.6,71.8z
				"/>
			<g class="st5">
				<path class="st4" d="M147.1,225.4c-24.3,0-48.6-7.7-66.6-21.4c-22.2-16.8-34.6-41.8-36-72.5c-0.6-14.2,6.1-29.7,18.6-42.7
					c18.8-19.7,47.3-31,78.4-31c20.2,0,41,4.6,62.2,13.7c12.3,5.3,20.1,17.7,22.5,36c4.7,36-12.8,88.5-35.2,106
					C181.3,221.1,165.2,225.4,147.1,225.4z M141.4,58.5c-30.8,0-59.3,11.2-77.9,30.8c-12.3,13-19,28.4-18.4,42.3
					c3,64.4,53.4,93.2,102,93.2c18,0,33.9-4.3,43.4-11.8c22.2-17.4,39.6-69.7,34.9-105.4c-2.3-18-10-30.2-21.9-35.4
					C182.4,63.1,161.6,58.5,141.4,58.5z"/>
			</g>
		</g>
	</g>
</g>
<g>
	<polygon class="st6" points="121.6,133.6 99.9,174.3 119.5,172.5 129,189.7 150.7,149.1 	"/>
	<g>
		<path class="st7" d="M124,177.9c0.6-1.3,0-2.9-1.3-3.5l-1.2-0.7c-1.2-0.7-1.7-2.2-1-3.5c0.7-1.3,2.3-1.8,3.6-1.1l3.5,1.9
			c1.1,0.6,2.4,0.2,3-0.9l0.1-0.2c0.7-1,0.3-2.4-0.8-3l-10.5-5.6c-1.3-0.7-1.9-2.2-1.3-3.5c0.7-1.4,2.3-2,3.6-1.2l9.7,5.1
			c1.1,0.6,2.4,0.2,3-0.9l0.1-0.2l0,0c0.7-1.1,0.2-2.6-0.9-3.2l-5.5-2.9c-1.3-0.7-1.9-2.2-1.3-3.5c0.7-1.4,2.3-2,3.6-1.2l6.1,3.2
			c1.1,0.6,2.5,0.1,3.1-1l0,0l0,0c0.7-1.1,0.3-2.5-0.8-3.1l-6.5-3.5c-1.3-0.7-1.9-2.2-1.3-3.5c0.7-1.4,2.3-2,3.6-1.2l16,8.5
			l-21.6,40.7l-6-10.8C123.4,178.6,123.8,178.4,124,177.9z"/>
		<polygon class="st7" points="161.9,133.6 183.5,174.3 163.9,172.5 154.4,189.7 132.8,149.1 		"/>
	</g>
	<path class="st6" d="M159.4,177.9c-0.6-1.3,0-2.9,1.3-3.5l1.2-0.7c1.2-0.7,1.7-2.2,1-3.5s-2.3-1.8-3.6-1.1l-3.5,1.9
		c-1.1,0.6-2.4,0.2-3-0.9l-0.1-0.2c-0.7-1-0.3-2.4,0.8-3l10.5-5.6c1.3-0.7,1.9-2.2,1.3-3.5c-0.7-1.4-2.3-2-3.6-1.2l-9.7,5.1
		c-1.1,0.6-2.4,0.2-3-0.9l-0.1-0.2l0,0c-0.7-1.1-0.2-2.6,0.9-3.2l5.5-2.9c1.3-0.7,1.9-2.2,1.3-3.5c-0.7-1.4-2.3-2-3.6-1.2l-6.1,3.2
		c-1.1,0.6-2.5,0.1-3.1-1l0,0l0,0c-0.7-1.1-0.3-2.5,0.8-3.1l6.5-3.5c1.3-0.7,1.9-2.2,1.3-3.5c-0.7-1.4-2.3-2-3.6-1.2l-16,8.5
		l21.6,40.7l6-10.8C160,178.6,159.7,178.4,159.4,177.9z"/>
	<circle class="st8" cx="141.7" cy="127" r="36.1"/>
	<path class="st9" d="M146.6,122.8h-22.9c-1.8,0-3.3-1.5-3.3-3.3v-0.2v-0.1c0-1.9,1.5-3.5,3.4-3.5h15.9c2.1,0,3.9-1.6,4.1-3.6
		c0.1-2.2-1.7-4-3.8-4h-16.8c-1.9,0-3.3-1.6-3.2-3.5c0,0,0,0,0-0.1c0-0.1,0,0,0-0.1c0-1.9,1.4-3.5,3.2-3.5h17.5c2.1,0,3.9-1.6,4-3.6
		c0.1-2.2-1.7-4-3.8-4h-12.9c-13.2,5.4-22.4,18.3-22.4,33.4s9.2,28,22.4,33.4h16.3c2.1,0,3.9-1.6,4-3.6c0.1-2.2-1.7-4-3.8-4H126
		c-2.2,0-3.9-1.9-3.8-4c0.1-2.1,2-3.6,4-3.6h7.2c2.1-0.1,3.7-1.8,3.7-3.8c0-2.1-1.8-3.8-3.8-3.8h-10.9c-1.8,0-3.3-1.5-3.2-3.3v-0.3
		c-0.1-1.8,1.3-3.3,3.1-3.3h24.2c2.1,0,3.9-1.6,4.1-3.6C150.6,124.6,148.8,122.8,146.6,122.8z"/>
	<path class="st10" d="M141.7,152.7c-14.2,0-25.7-11.6-25.7-25.7s11.6-25.7,25.7-25.7s25.7,11.6,25.7,25.7S156,152.7,141.7,152.7z"
		/>
	<g>
		<path class="st7" d="M129.3,137.1c-0.4,0.4-0.7,0.8-0.8,1.3c-0.2,0.5-0.3,0.9-0.3,1.5c0,0.6,0.3,1.1,0.3,1.7c0,0.1,0,0.1,0,0.2
			c-1-1.4-2-2.8-2.7-4.4c0-0.3,0.1-0.6,0.2-0.8c0.2-0.5,0.6-0.7,0.8-1.2c0.3-0.4,0.4-0.8,0.5-1.3c0.1-0.5,0.2-0.9,0.1-1.5l-0.1-0.1
			c-0.5,0.3-0.7,0.6-1,0.9s-0.5,0.8-0.6,1.3c-0.1,0.5,0,1.1-0.1,1.6c0,0.1-0.1,0.2-0.1,0.3c-0.7-1.5-1.2-3.1-1.6-4.7
			c0.1-0.4,0.2-0.7,0.4-0.9c0.3-0.4,0.7-0.6,1-0.8c0.3-0.3,0.5-0.7,0.7-1.1c0.2-0.5,0.4-0.8,0.4-1.4l-0.1-0.1
			c-0.5,0.1-0.8,0.4-1.2,0.7c-0.4,0.3-0.7,0.7-0.8,1c-0.2,0.5-0.2,1-0.4,1.5c0,0.1-0.1,0.2-0.2,0.3c-0.3-1.6-0.5-3.2-0.5-4.8
			c0.2-0.4,0.4-0.7,0.7-0.9c0.3-0.3,0.7-0.4,1.1-0.6c0.4-0.2,0.7-0.6,0.8-0.9c0.3-0.4,0.5-0.7,0.7-1.2l-0.1-0.1
			c-0.5,0-0.8,0.1-1.2,0.3c-0.4,0.2-0.7,0.5-0.9,0.8c-0.3,0.4-0.4,0.9-0.7,1.3c-0.1,0.1-0.2,0.2-0.3,0.3c0.1-1.6,0.3-3.2,0.6-4.7
			c0,0,0,0,0-0.1c0.3-0.4,0.6-0.7,0.8-0.9c0.4-0.2,0.7-0.2,1.1-0.3c0.4-0.1,0.7-0.4,0.9-0.7c0.3-0.3,0.6-0.6,0.8-1
			c0-0.1,0-0.1-0.1-0.2c-0.5-0.1-0.8-0.1-1.2,0c-0.4,0.1-0.7,0.3-1,0.6c-0.3,0.3-0.6,0.7-0.8,1c-0.1,0.1-0.3,0.2-0.5,0.3
			c0.4-1.6,0.9-3.1,1.7-4.6c0,0,0,0,0,0.1c0.1-0.1,0.1-0.1,0.2-0.2c0.3-0.3,0.7-0.6,1-0.7c0.4-0.1,0.7,0.1,1.1,0
			c0.4,0,0.7-0.2,1-0.4c0.3-0.2,0.7-0.5,0.9-0.8c0-0.1,0-0.1,0-0.2c-0.4-0.2-0.7-0.3-1.1-0.3c-0.4,0-0.7,0.1-1,0.3
			c-0.4,0.2-0.7,0.7-1,0.8c-0.2,0.1-0.4,0.2-0.5,0.2v-0.1c1.1-2.1,2.5-4.1,4.3-5.9c-1.7,1.6-3.1,3.4-4.2,5.2c0-0.1,0-0.1,0-0.2
			c0-0.4,0-0.8,0-1.2c-0.1-0.7-0.3-1.5-0.8-2.1c-0.1,0-0.1,0-0.2,0.1c-0.6,1-0.7,2-0.7,2.7c0,0.4,0.1,0.7,0.3,1.1
			c0.1,0.4,0.3,0.7,0.5,0.9l0.1,0.1c-0.7,1.2-1.2,2.5-1.7,3.9l0,0c-0.1-0.4-0.2-0.8-0.3-1.2c-0.3-0.7-0.7-1.5-1.4-2
			c-0.1,0-0.1,0.1-0.2,0.1c-0.3,1.2-0.3,2.1,0,3c0.1,0.4,0.3,0.7,0.6,1.1c0.2,0.4,0.5,0.7,0.7,0.9l0,0c-0.4,1.3-0.6,2.7-0.7,4
			c-0.2-0.4-0.4-0.8-0.6-1.1c-0.5-0.7-1-1.4-1.9-1.8l-0.1,0.1c0,1.3,0.3,2.2,0.7,3.1c0.2,0.4,0.6,0.7,0.8,1c0.3,0.3,0.6,0.6,0.9,0.7
			c0,1.3,0,2.7,0.2,4c-0.3-0.4-0.6-0.7-0.8-1c-0.7-0.7-1.4-1.2-2.3-1.5c0,0.1-0.1,0.1-0.1,0.2c0.3,1.3,0.8,2.2,1.5,3
			c0.4,0.4,0.7,0.7,1.1,0.9c0.3,0.2,0.7,0.4,1,0.6c0.3,1.3,0.7,2.6,1.1,3.8c-0.4-0.3-0.7-0.6-1-0.8c-0.8-0.5-1.8-0.9-2.8-1.1
			c0,0.1,0,0.1-0.1,0.2c0.7,1.3,1.5,2.1,2.3,2.8c0.5,0.3,0.9,0.6,1.4,0.7c0.4,0.2,0.7,0.2,1,0.3c0.6,1.2,1.2,2.4,2,3.5
			c-0.4-0.2-0.8-0.4-1.2-0.6c-1-0.4-2.1-0.7-3.2-0.6c0,0.1,0,0.1,0,0.2c1,1.2,2.1,1.9,3.2,2.3c0.6,0.2,1.1,0.4,1.6,0.5
			c0.4,0.1,0.7,0.1,1,0.1c0.6,0.7,1.2,1.5,1.9,2.1c0.4-0.4,0.7-0.7,1-1c-0.7-0.7-1.5-1.5-2.1-2.3c0-0.3,0-0.6,0-0.7
			c0.1-0.6,0.4-0.9,0.5-1.4s0.2-1,0.1-1.5c0-0.6-0.1-1-0.2-1.6C129.4,137.1,129.4,137.1,129.3,137.1z"/>
		<path class="st7" d="M154.1,137.1c0.4,0.4,0.7,0.8,0.8,1.3c0.2,0.5,0.3,0.9,0.3,1.5c0,0.6-0.3,1.1-0.3,1.7c0,0.1,0,0.1,0,0.2
			c1-1.4,2-2.8,2.7-4.4c0-0.3-0.1-0.6-0.2-0.8c-0.2-0.5-0.6-0.7-0.8-1.2c-0.3-0.4-0.4-0.8-0.5-1.3c-0.1-0.5-0.2-0.9-0.1-1.5l0.1-0.1
			c0.5,0.3,0.7,0.6,1,0.9c0.3,0.4,0.5,0.8,0.6,1.3c0.1,0.5,0,1.1,0.1,1.6c0,0.1,0.1,0.2,0.1,0.3c0.7-1.5,1.2-3.1,1.6-4.7
			c-0.1-0.4-0.2-0.7-0.4-0.9c-0.3-0.4-0.7-0.6-1-0.8c-0.3-0.3-0.5-0.7-0.7-1.1c-0.2-0.5-0.4-0.8-0.4-1.4l0.1-0.1
			c0.5,0.1,0.8,0.4,1.2,0.7c0.4,0.3,0.7,0.7,0.8,1c0.2,0.5,0.2,1,0.4,1.5c0,0.1,0.1,0.2,0.2,0.3c0.3-1.6,0.5-3.2,0.5-4.8
			c-0.2-0.4-0.4-0.7-0.7-0.9c-0.3-0.3-0.7-0.4-1.1-0.6s-0.7-0.6-0.8-0.9c-0.3-0.4-0.5-0.7-0.7-1.2l0.1-0.1c0.5,0,0.8,0.1,1.2,0.3
			c0.4,0.2,0.7,0.5,0.9,0.8s0.4,0.9,0.7,1.3c0.1,0.1,0.2,0.2,0.3,0.3c-0.1-1.6-0.3-3.2-0.6-4.7c0,0,0,0,0-0.1
			c-0.3-0.4-0.6-0.7-0.8-0.9c-0.4-0.2-0.7-0.2-1.1-0.3c-0.4-0.1-0.7-0.4-0.9-0.7c-0.3-0.3-0.6-0.6-0.8-1c0-0.1,0-0.1,0.1-0.2
			c0.5-0.1,0.8-0.1,1.2,0c0.4,0.1,0.7,0.3,1,0.6c0.3,0.3,0.6,0.7,0.8,1c0.1,0.1,0.3,0.2,0.5,0.3c-0.4-1.5-0.9-3.1-1.7-4.5
			c0,0,0,0,0,0.1c-0.1-0.1-0.1-0.1-0.2-0.2c-0.3-0.3-0.7-0.6-1-0.7c-0.4-0.1-0.7,0.1-1.1,0c-0.4,0-0.7-0.2-1-0.4
			c-0.3-0.2-0.7-0.5-0.9-0.8c0-0.1,0-0.1,0-0.2c0.4-0.2,0.7-0.3,1.1-0.3s0.7,0.1,1,0.3c0.4,0.2,0.7,0.7,1,0.8
			c0.2,0.1,0.4,0.2,0.5,0.2v-0.1c-1.1-2.1-2.5-4.1-4.3-5.9c1.7,1.6,3.1,3.4,4.2,5.2c0-0.1,0-0.1,0-0.2c0-0.4,0-0.8,0-1.2
			c0.1-0.7,0.3-1.5,0.8-2.1c0.1,0,0.1,0,0.2,0.1c0.6,1,0.7,2,0.7,2.7c0,0.4-0.1,0.7-0.3,1.1c-0.1,0.4-0.3,0.7-0.5,0.9l-0.1,0.1
			c0.7,1.2,1.2,2.5,1.7,3.9l0,0c0.1-0.4,0.2-0.8,0.3-1.2c0.3-0.7,0.7-1.5,1.4-2c0.1,0,0.1,0.1,0.2,0.1c0.3,1.2,0.3,2.1,0,3
			c-0.1,0.4-0.3,0.7-0.6,1.1c-0.2,0.4-0.5,0.7-0.7,0.9l0,0c0.4,1.3,0.6,2.7,0.7,4c0.2-0.4,0.4-0.8,0.6-1.1c0.5-0.7,1-1.4,1.9-1.8
			l0.1,0.1c0,1.3-0.3,2.2-0.7,3.1c-0.2,0.4-0.6,0.7-0.8,1c-0.3,0.3-0.6,0.6-0.9,0.7c0,1.3,0,2.7-0.2,4c0.3-0.4,0.6-0.7,0.8-1
			c0.7-0.7,1.4-1.2,2.3-1.5c0,0.1,0.1,0.1,0.1,0.2c-0.3,1.3-0.8,2.2-1.5,3c-0.4,0.4-0.7,0.7-1.1,0.9c-0.3,0.2-0.7,0.4-1,0.6
			c-0.3,1.3-0.7,2.6-1.1,3.8c0.4-0.3,0.7-0.6,1-0.8c0.8-0.5,1.8-0.9,2.8-1.1c0,0.1,0,0.1,0.1,0.2c-0.7,1.3-1.5,2.1-2.3,2.8
			c-0.5,0.3-0.9,0.6-1.4,0.7c-0.4,0.2-0.7,0.2-1,0.3c-0.6,1.2-1.2,2.4-2,3.5c0.4-0.2,0.8-0.4,1.2-0.6c1-0.4,2.1-0.7,3.2-0.6
			c0,0.1,0,0.1,0,0.2c-1,1.2-2.1,1.9-3.2,2.3c-0.6,0.2-1.1,0.4-1.6,0.5c-0.4,0.1-0.7,0.1-1,0.1c-0.6,0.7-1.2,1.5-1.9,2.1
			c-0.4-0.4-0.7-0.7-1-1c0.7-0.7,1.5-1.5,2.1-2.3c0-0.3,0-0.6,0-0.7c-0.1-0.6-0.4-0.9-0.5-1.4c-0.1-0.5-0.2-1-0.1-1.5
			c0-0.6,0.1-1,0.2-1.6C154,137.1,154.1,137.1,154.1,137.1z"/>
	</g>
	<path class="st6" d="M141.2,109.9c-0.7,2.1-2.1,3.9-4.1,5.4c-1,0.8-2,1.4-2.9,1.9v6c2.1-0.9,4.1-2.1,5.8-3.7v24.5h6.5v-34.1
		L141.2,109.9L141.2,109.9z"/>
</g>
</svg>
