<?xml version="1.0" encoding="utf-8"?>
<!-- Generator: Adobe Illustrator 22.1.0, SVG Export Plug-In . SVG Version: 6.00 Build 0)  -->
<svg version="1.1" id="Layer_1" xmlns="http://www.w3.org/2000/svg" xmlns:xlink="http://www.w3.org/1999/xlink" x="0px" y="0px"
	 viewBox="0 0 70.9 70.9" style="enable-background:new 0 0 70.9 70.9;" xml:space="preserve">
<style type="text/css">
	.st0{fill:#FFFFFF;}
	.st1{fill-rule:evenodd;clip-rule:evenodd;fill:#FFFFFF;}
</style>
<g>
	<path class="st0" d="M35.4,0c9.8,0,18.6,4,25,10.4c6.4,6.4,10.4,15.3,10.4,25.1c0,9.8-4,18.6-10.4,25c-6.4,6.4-15.3,10.4-25,10.4
		c-9.8,0-18.6-4-25-10.4C4,54.1,0,45.2,0,35.4c0-9.8,4-18.7,10.4-25.1C16.8,4,25.6,0,35.4,0L35.4,0z M58.5,12.3
		c-5.9-5.9-14.1-9.6-23.1-9.6c-9,0-17.2,3.6-23.1,9.6c-5.9,5.9-9.6,14.1-9.6,23.1c0,9,3.6,17.2,9.6,23.1c5.9,5.9,14.1,9.6,23.1,9.6
		c9,0,17.2-3.7,23.1-9.6c5.9-5.9,9.6-14.1,9.6-23.1C68.1,26.4,64.4,18.2,58.5,12.3L58.5,12.3z"/>
	<path class="st1" d="M53.5,24.4c-1.3,0.6-2.7,1-4.3,1.2c1.5-0.9,2.7-2.3,3.3-4.1c-1.4,0.8-3,1.5-4.7,1.8c-1.3-1.4-3.3-2.3-5.4-2.3
		c-4.1,0-7.4,3.3-7.4,7.3c0,0.6,0.1,1.1,0.2,1.7c-6.2-0.3-11.7-3.2-15.3-7.6c-0.6,1.1-1,2.3-1,3.7c0,2.5,1.3,4.8,3.3,6.1
		c-1.2,0-2.4-0.4-3.4-0.9c0,0,0,0.1,0,0.1c0,0.9,0.2,1.8,0.5,2.6c0.9,2.3,3,4,5.5,4.5c-0.6,0.2-1.3,0.3-2,0.3
		c-0.5,0-0.9-0.1-1.4-0.2c1,2.9,3.7,5,6.9,5.1c-2.6,2-5.7,3.1-9.2,3.1c-0.6,0-1.2,0-1.8-0.1c3.3,2.1,7.2,3.3,11.4,3.3
		c11.6,0,18.8-8,20.6-16.4c0.3-1.5,0.5-3,0.5-4.4c0-0.3,0-0.6,0-0.9C51.3,27.1,52.5,25.9,53.5,24.4L53.5,24.4z"/>
</g>
</svg>
