<?xml version="1.0" encoding="utf-8"?>
<!-- Generator: Adobe Illustrator 22.1.0, SVG Export Plug-In . SVG Version: 6.00 Build 0)  -->
<svg version="1.1" id="Layer_1" xmlns="http://www.w3.org/2000/svg" xmlns:xlink="http://www.w3.org/1999/xlink" x="0px" y="0px"
	 viewBox="0 0 70.9 70.9" style="enable-background:new 0 0 70.9 70.9;" xml:space="preserve">
<style type="text/css">
	.st0{fill:#FFFFFF;}
	.st1{fill-rule:evenodd;clip-rule:evenodd;fill:#FFFFFF;}
</style>
<g>
	<path class="st0" d="M35.4,0c9.8,0,18.6,4,25.1,10.4c6.4,6.4,10.4,15.3,10.4,25.1c0,9.8-4,18.6-10.4,25.1
		c-6.4,6.4-15.3,10.4-25.1,10.4c-9.8,0-18.6-4-25.1-10.4C4,54.1,0,45.2,0,35.4c0-9.8,4-18.6,10.4-25.1C16.8,4,25.6,0,35.4,0L35.4,0z
		 M58.5,12.3c-5.9-5.9-14.1-9.6-23.1-9.6c-9,0-17.2,3.7-23.1,9.6c-5.9,5.9-9.6,14.1-9.6,23.1c0,9,3.7,17.2,9.6,23.1
		c5.9,5.9,14.1,9.6,23.1,9.6c9,0,17.2-3.6,23.1-9.6c5.9-5.9,9.6-14.1,9.6-23.1C68.1,26.4,64.5,18.2,58.5,12.3L58.5,12.3z"/>
	<path class="st1" d="M38.1,28.2v-2.9c0-1.4,0.9-1.7,1.6-1.7c0.6,0,4.1,0,4.1,0v-6.2h-5.6c-6.2,0-7.6,4.6-7.6,7.6v3.3H27v4.4v2.9
		h3.6c0,8.2,0,18.1,0,18.1h7.2c0,0,0-10,0-18.1h5.4l0.2-2.8l0.4-4.4H38.1z"/>
</g>
</svg>
