<?xml version="1.0" encoding="utf-8"?>
<!-- Generator: Adobe Illustrator 22.1.0, SVG Export Plug-In . SVG Version: 6.00 Build 0)  -->
<svg version="1.1" id="Layer_1" xmlns="http://www.w3.org/2000/svg" xmlns:xlink="http://www.w3.org/1999/xlink" x="0px" y="0px"
	 viewBox="0 0 70.9 70.9" style="enable-background:new 0 0 70.9 70.9;" xml:space="preserve">
<style type="text/css">
	.st0{fill:#FFFFFF;}
	.st1{fill-rule:evenodd;clip-rule:evenodd;fill:#FFFFFF;}
</style>
<g>
	<path class="st0" d="M35.4,0c9.8,0,18.7,4,25.1,10.4c6.4,6.4,10.4,15.3,10.4,25.1c0,9.8-4,18.6-10.4,25.1
		c-6.4,6.4-15.3,10.4-25.1,10.4c-9.8,0-18.6-4-25.1-10.4C4,54.1,0,45.2,0,35.4c0-9.8,4-18.6,10.4-25.1C16.8,4,25.7,0,35.4,0L35.4,0z
		 M58.5,12.3c-5.9-5.9-14.1-9.6-23.1-9.6c-9,0-17.2,3.7-23.1,9.6c-5.9,5.9-9.6,14.1-9.6,23.1c0,9,3.7,17.2,9.6,23.1
		c5.9,5.9,14.1,9.6,23.1,9.6c9,0,17.2-3.6,23.1-9.6c5.9-5.9,9.6-14.1,9.6-23.1C68.1,26.4,64.5,18.2,58.5,12.3L58.5,12.3z"/>
	<path class="st1" d="M26.4,35.4c0-5,4.1-9.1,9.1-9.1c5,0,9.1,4.1,9.1,9.1c0,5-4.1,9.1-9.1,9.1C30.4,44.5,26.4,40.5,26.4,35.4
		L26.4,35.4z M44.8,17.7H26.1c-4.6,0-8.4,3.8-8.4,8.4v18.7c0,4.6,3.8,8.4,8.4,8.4h18.7c4.6,0,8.4-3.8,8.4-8.4V26.1
		C53.2,21.4,49.4,17.7,44.8,17.7L44.8,17.7z M26.1,19.8h18.7c3.5,0,6.3,2.8,6.3,6.3v18.7c0,3.5-2.8,6.3-6.3,6.3H26.1
		c-3.5,0-6.3-2.8-6.3-6.3V26.1C19.8,22.6,22.6,19.8,26.1,19.8L26.1,19.8z M46.7,22.4c-1,0-1.8,0.8-1.8,1.8c0,1,0.8,1.8,1.8,1.8
		c1,0,1.8-0.8,1.8-1.8C48.5,23.2,47.7,22.4,46.7,22.4L46.7,22.4z M46.9,35.4c0-6.3-5.1-11.5-11.5-11.5C29.1,24,24,29.1,24,35.4
		c0,6.3,5.1,11.5,11.5,11.5C41.8,46.9,46.9,41.8,46.9,35.4L46.9,35.4z"/>
</g>
</svg>
