<svg id="Layer_1" data-name="Layer 1" xmlns="http://www.w3.org/2000/svg" viewBox="0 0 302.758 137.604">
  <defs>
    <style>
      .cls-1, .cls-3 {
        fill: none;
      }

      .cls-1, .cls-3, .cls-4, .cls-5 {
        stroke: #fff;
      }

      .cls-1, .cls-4, .cls-5 {
        stroke-miterlimit: 10;
      }

      .cls-1 {
        stroke-width: 1.123px;
      }

      .cls-2, .cls-4 {
        fill: #fff;
      }

      .cls-3 {
        stroke-linecap: round;
        stroke-linejoin: round;
        stroke-width: 0.838px;
      }

      .cls-4 {
        stroke-width: 0.25px;
      }

      .cls-5 {
        fill: #4d4d4d;
      }
    </style>
  </defs>
  <title>اللوغو</title>
  <g>
    <g>
      <path class="cls-1" d="M126.455,295.831a1.35,1.35,0,0,0-1.588,1.059,1.687,1.687,0,0,0,1.323,1.985,2.109,2.109,0,0,0,2.481-1.654,2.636,2.636,0,0,0-2.068-3.1,3.3,3.3,0,0,0-3.877,2.585,4.119,4.119,0,0,0,3.231,4.846,5.148,5.148,0,0,0,6.058-4.039,6.435,6.435,0,0,0-5.048-7.572c-4.356-.871-8.368,1.089-9.239,5.446a11.277,11.277,0,0,0,7.662,12.7s18.98,7.395,58.666-.246c0,0-49.309,40.1-.01,113.8,0,0-76.4-47.74-66.544-125.386" transform="translate(-116.062 -289.175)"/>
      <path class="cls-1" d="M131.163,299.481a12.338,12.338,0,0,0-.491,10.174" transform="translate(-116.062 -289.175)"/>
      <path class="cls-1" d="M184.046,421.635s-39.183-62.9.01-107.885h-5.735" transform="translate(-116.062 -289.175)"/>
      <path class="cls-1" d="M184.046,421.635s-31.788-66.01,2.868-101.723l-7.121-.467" transform="translate(-116.062 -289.175)"/>
      <path class="cls-2" d="M126.375,304.323a5.8,5.8,0,0,1-4.667-1.5,6.323,6.323,0,0,1,0-9.334,5.8,5.8,0,0,1,4.668-1.5,6.666,6.666,0,0,0-4.048,2.115,6.054,6.054,0,0,0,0,8.1A6.657,6.657,0,0,0,126.375,304.323Z" transform="translate(-116.062 -289.175)"/>
      <g>
        <path class="cls-3" d="M127.765,325.107c.007.007,1.117-1.128,1.123-1.123.054.054,4.133,3.1,4.157,3.128s2.442-2.463,2.453-2.453c.051.051,4.832,2.517,4.856,2.541s1.973-2,1.985-1.985c.038.038,5.123,1.966,5.161,2,.015.015,1.605-1.624,1.615-1.615.052.052,7.054.137,7.116.2.014.014.628-.641.635-.635.071.071,6.838.24,6.908.311.008.008,1.379-1.395,1.387-1.387" transform="translate(-116.062 -289.175)"/>
        <path class="cls-3" d="M127.371,335.578c.01.01,1.359-1.375,1.367-1.367.054.054,4.121,3.116,4.145,3.14s2.452-2.473,2.463-2.463c.052.052,4.889,2.46,4.913,2.484s2-2.029,2.016-2.016c.039.039,5.323,1.765,5.362,1.8.016.016,1.661-1.681,1.671-1.671.055.055,7.423-.239,7.489-.173.015.015.736-.75.743-.743" transform="translate(-116.062 -289.175)"/>
        <path class="cls-3" d="M129.156,345.77s.944-.952.948-.948c.054.054,4.1,3.137,4.124,3.161s2.449-2.47,2.459-2.459c.052.052,4.994,2.354,5.018,2.379s2.045-2.073,2.059-2.059c.04.04,5.6,1.488,5.637,1.528.017.017,1.752-1.773,1.763-1.763.061.061,8.194-1.025,8.268-.952.014.014.638-.651.645-.645" transform="translate(-116.062 -289.175)"/>
        <path class="cls-3" d="M132.247,356.435l.822-.822c.054.054,4.1,3.14,4.12,3.164s2.465-2.487,2.476-2.476c.053.053,5.173,2.174,5.2,2.2s2.068-2.1,2.082-2.082c.043.043,6.193.885,6.236.929.019.019,1.9-1.925,1.913-1.913" transform="translate(-116.062 -289.175)"/>
        <path class="cls-3" d="M137.09,367.249l.807-.807c.054.054,4.113,3.123,4.138,3.147s2.464-2.485,2.475-2.475c.055.055,5.526,1.819,5.552,1.845s2.208-2.239,2.223-2.223" transform="translate(-116.062 -289.175)"/>
        <path class="cls-3" d="M143.684,377.862l.8-.8c.054.054,4.173,3.063,4.2,3.088s2.489-2.511,2.5-2.5c.062.062,6.487.853,6.516.882s3.045-3.1,3.072-3.072" transform="translate(-116.062 -289.175)"/>
        <path class="cls-3" d="M152.039,388.054l.786-.786c.054.054,4.282,2.954,4.306,2.979s2.621-2.646,2.634-2.634" transform="translate(-116.062 -289.175)"/>
      </g>
    </g>
    <g>
      <path class="cls-4" d="M226.588,314.679l-.669,2.522c0,.052,0,.052-.052.052h-.051l-7.051-.1-4.323.515h-.051l-3.243-.515-3.037.154.154,2.162v.052l-.309,3.551,5.1-.36,4.169.721,2.728-.36h3.345a.05.05,0,0,1,.052.051v1.853l.309,3.5v.052l-.36,1.853c0,.052,0,.052-.051.052l-2.574.36h-7.926l-2.471.36-2.007-.36-.515,5.456.721,6.9a.179.179,0,0,1-.051.1l-.875.154-1.853.36-4.889-.36h-2.265l-.052-.051v-3.706l.155-2.728.515-5.507c.051,0,.051,0,.051-.052l-.669-5.559a.05.05,0,0,0-.052-.051l-.154-2.368v-.1l1.029-7.514-1.338-2.059-.052-.052V313.6l.669-4.632a.05.05,0,0,0,.051-.051l2.47-.36,4.118.309,2.625-.309,2.059.36,3.088-.36,6.022.36,6.434-.515c.051,0,.051,0,.1.051l.309.772v1.9l.669,3.5Zm-26.66-.463-.463-2.007-.721-2.831-.669,4.22Zm-.515,1.39.257-.618.257-.618-1.647-.566-.1-.052Zm1.647,4.992-2.625,2.728.154,2.162Zm.154-.412-1.75-4.22-.978,7.154Zm2.11,20.742-4.529-3.86-.206,2.573Zm-4.221-.206-.515-.823v3.4h2.11Zm-.309-14.462,1.493,5.713,1.338-1.75.669-.875-3.6-3.448Zm2.007,16.984,2.676-2.162-4.787-1.287Zm-2.059-17.653,4.529-2.625-.978-1.338-.926-1.287Zm1.39,6.331-.875-3.4-.515-1.956.566,4.838Zm-1.338-6.228,2.522.463.823-1.287,1.029-1.7Zm1.853,9.625-1.853,1.6,4.581,3.86Zm-1.8-26.146,1.184,4.992,2.007-2.934-1.081-.72Zm2.419,17.087-.412-.052-2.007-.36,3.346,3.294Zm-1.132,5.867-.566-.412-.257-.206-.463,4.684Zm1.853-21.05-.515-1.338-.412-1.029-2.162.309Zm-1.39,24.087-.36-2.728-.926,2.985-.412,1.287.669-.618Zm.926-19.815-1.492-.927-.463,1.03-.052.154,1.184-.154Zm-.257,4.581.309-3.191.1-1.287-2.162.309Zm-1.132-5.61,1.544.926.36-3.757Zm.566,20.536,1.493-5.147-1.853,2.419.051.412Zm1.7-5.4-1.287,4.426-.36,1.184,3.963-2.985-1.235-1.441Zm1.956,7.36.1-1.081.309-3.5-3.963,2.985Zm-.772,4.066.772-3.912-2.007-.926-1.544-.721Zm1.956,2.728-.824-1.029-1.132-1.39-2.625,2.11Zm-4.066-34.278.669,1.8,2.985-2.11-3.912-.309Zm-.1,10.706,1.956-1.441,1.956-1.492-3.5-1.647-.206,2.316Zm1.956,2.779,1.956-5.559-3.86,2.934.618.875Zm4.271.515-6.176,2.934.669,2.007.309.926,3.4-3.809Zm-4.22-.309-1.441,2.316-.463.72,6.125-2.882Zm1.9-6.073-1.544-2.779-1.544-2.779-.412,3.912,1.647.824Zm2.728.155-.1-5.044-.1-3.346-5.559,2.522Zm-.1.1-5.456-5.558,3.037,5.4Zm-.206,6.228-1.6,1.75-3.654,4.169,2.367,2.625,1.493-4.426Zm-2.368-14.411-2.676,1.9,4.838-2.213Zm.052,8.389-.927,2.625-.926,2.625,1.75-1.956.463-.515Zm.412,2.882-2.265,2.625,4.22.155-.669-.978Zm1.853,16.161-3.963,4.632,1.9,1.081,1.9,1.081.052-2.265Zm-3.912,4.375,3.809-4.478-3.088.618Zm3.6,2.47-3.5-2.007.051.051,1.853,2.265Zm.669-12.4-3.139,1.235v.052l-.36,4.478,2.728-4.478Zm-3.448,5.919,2.316-.463.772-.154.515-5.2Zm.412-4.838,3.191-1.287-.36-4.529Zm.515-1.7-.309.926,2.625-5.353v-2.213Zm2.419-12.97-2.419-.154.36,2.831,1.03-1.287Zm-1.956,2.934,1.235,1.75.669.978.309-3.4-1.132.36Zm2.059-2.779L206,320.083l2.162-.618Zm-.412,25.219v.566l.721-.1-.566-5.919Zm.515-25.631,2.11-3.6-2.265-4.478.1,4.426Zm-.154,6.125V325.8l.772-.463,4.066-2.471Zm2.573,3.449-1.287-.309L207.957,326l.051.875.257,3.654.824-1.441Zm-.309-13.536-.257-3.5-.051-.566-1.9-.309Zm-2.11,12.815,2.522.618.36-.463,1.184-1.441Zm2.985-8.853-.875-3.4-1.029,1.75-1.029,1.8Zm1.853,5.919-4.581,2.728,3.963-1.235.463-1.132Zm-2.316,3.706-1.441,2.471-.824,1.441,3.912-2.265Zm1.493,1.853-3.706,2.162,1.8.309,1.029-1.338Zm-.36-17.962-1.75-1.441.309,4.066Zm-1.081-1.029,1.132.875.823-1.184.309-.515-2.831.309Zm2.728,3.191-1.544-2.059-.515.875-.926,1.8,1.8-.36Zm.1.1-1.029.206-2.059.463,3.911,3.912Zm-3.088.823.772,3.4,3.037.463Zm2.213,17.036-.051-.566-.257-1.647-.927,1.287-.978,1.235Zm2.573-5.662-4.478,1.6,1.647,1.6Zm-4.375,1.39,1.493-.515,2.831-1.029-2.779-.309L211.3,325.9Zm1.132-15.9,1.7.515,1.9.566-2.522-2.882Zm1.647,2.162,1.8-.824.206-.1-3.6-1.132Zm3.294,15.389-4.478.309.309,2.264,1.8-1.081Zm-3.809-5.2-.463,1.132-.154.412,4.375-.926Zm3.191,3.6-.824-1.492-2.934,3.294,4.581-.36Zm-3.5-1.956,2.676.309,1.235-1.03.257-.206Zm4.375,3.551L213,330.634l5.146-.978Zm3.86-17.087-7.771-2.213,2.573,2.934ZM218.2,329.759l-4.838.927h7l-.463-.206Zm2.831-18.94-2.007-1.8-5.4-.309Zm-2.11,2.573-5.25-.566.824,4.632Zm-.206-.154L215.78,311.8l-1.956.926Zm0,3.809.051-.875.206-2.676-.515.463-3.809,3.551Zm-3.088,7.823,5.4,2.522-3.809-3.809-1.39,1.081Zm.669,1.338.926,1.7,3.809-.36-5.4-2.522Zm-.206-14.462,2.985,1.544,2.059-2.213-2.882.36Zm1.235,11.786,3.86,3.809-1.287-4.117Zm.926,6.073,2.831-1.9-3.757.309.463.823Zm3.088-1.9-2.934,1.956,4.684.669Zm-2.676,2.11,2.007.875,2.11-.309Zm.257-13.948-.1,1.184,6.793.1-6.485-3.706Zm.309-6.845,2.11,1.9,4.117-1.544Zm4.838,4.684-2.625-2.522-.1-.1-2.11,2.213Zm.154.154-4.838-.412,6.279,3.6-.618-1.441Zm-4.168-4.89,5.713.257-.257-.72Zm0,14.308,1.338,4.169,1.184-1.647.618-.823-1.029-.566Zm3.191,1.6v-1.7h-3.037Zm-1.8,2.728,2.11.772-.309-3.243Zm.052-16.624.412.257.978.618,2.676-2.368Zm.412,16.933-.412-.154,1.7,2.419.36-1.647Zm0-16.47,1.75,1.7L222.831,312Zm3.809-.206-2.728.772.669.875.618.824.926-1.6Zm.1-.154v-1.647l-2.676,2.419Zm-.515,1.081-.926,1.6,2.059.772-.618-3.242Zm-.515,1.9-.412-.155.72,1.544.721,1.544.618-2.316Z" transform="translate(-116.062 -289.175)"/>
      <path class="cls-4" d="M263.647,312.723v.1l-.154,7.566-.721,2.573.875,4.632v.052l-.875,3.654-.515,4.117L258.14,341.7v.1l-.052.051-9.007,2.213h-.051l-9.625-.823a.05.05,0,0,1-.051-.051l-4.735-4.272h-.051l-.052-.052v-.051l-2.573-3.551c-.051-.051-.051-.051,0-.051-.051,0,0-.052,0-.052l-1.132-8.75v-.051l.721-4.221-.824-7.668.36-5.559h.051l3.757-.36h1.39l2.625-.36.051.052,2.059.669v.051l.515,2.368v.1L241.207,319l-.051.051H241.1l-.618.823.875,7.412-.669,2.934.824,2.059,4.271,3.037,6.176-1.338,2.059-5.353-.669-5.25v-.1l.154-8.955-.669-3.037v-.052h0c-.051-.051,0-.051,0-.051l1.029-2.419s0-.052.051,0l8.441.154h.052l1.029.721a.05.05,0,0,1,.051.051l-.206,1.184Zm-31.6-3.345-.875-.309-.309,4.838Zm.1.154-1.287,4.889,2.471,1.03.772.309-1.544-4.941Zm3.037,12.558-4.324-7.309.772,7.309Zm0-.206-.155-.772-.875-5.2-3.242-1.287Zm-.052.36h-3.5l-.669,4.015Zm-3.14,12.764,2.162-4.632-3.191-3.757Zm-.978-8.646h4.375l-.154-4.066Zm3.191,3.912,1.184-3.809h-4.375Zm-2.059-21,1.956-.515-2.676.257Zm2.47,29.491,3.243-3.14-5.765-.36Zm2.471-5.61-2.831-2.676-2.11,4.632Zm-4.838-23.675,1.9,6.022.36-4.735Zm5.3,24.859-.463-1.132-4.838,1.956,5.662.36Zm-5.25-25.014,1.853,1.081.36.206.309-1.9-1.75.412Zm2.316,1.6-.257,3.912-.051.978,3.551,1.338-2.779-5.353Zm3.294,6.382-3.6-1.338.412,2.419.618,3.6,1.081-2.007Zm-2.47,9.213-1.132,3.809,6.125-.1Zm1.7,6.588,3.294-2.779-6.073.1Zm-2.47-22.646.875-1.029.618-.721h-1.184Zm0,.206,1.9.978-.36-2.831Zm3.139,6.073-.618-2.522-.617-2.419-.927-.515-.926-.412Zm2.779,23.366-5.816-1.132,4.632,4.118Zm-2.573-4.426-3.191,3.037,4.838-1.287Zm2.573,4.272-.875-2.419-4.786,1.287Zm-5.1-13.587,5.559.823L235.34,322.3Zm1.029-6.331-1.081,2.007,4.889-2.213-2.316-2.47Zm3.809-.052-4.889,2.213,4.426,1.647Zm-.412,4.015-4.272-1.647,5.507,4.735-.412-1.132Zm-4.22,2.522,3.654,2.728,1.235.927.618-2.831Zm.669-17.756.206,2.162.1.721,2.162-.412,1.03-.206Zm.1-.1,3.448,2.162-.669-1.544-.412-.926Zm3.551,2.47-3.294.669.772,1.235,3.5,5.559-.72-5.559Zm-3.243.978,1.287,5.1,2.882,1.647Zm.463,21.153.823,2.265,7.309-.154Zm3.345-2.882-3.191,2.676,4.015-.823Zm-3.14,2.779,7.978,2.059-3.963-2.831Zm.721,2.471,1.647,1.75,5.507-1.9Zm1.75-17.242-1.544-.824,2.059,2.213.618-.772Zm-.412-8.75.566,1.235.309-.72.463-1.132-1.853-.618Zm5.353,30.623-4.118-.154-.823,1.9-.412,1.029Zm-4.066-.309,4.735-4.375-5.661,1.9.875,2.471Zm7.257,1.956-2.934-1.6-.051-.052-5.2,2.779Zm.1.1-8.235,1.132,9.058.824Zm-7.72-21.668-.412,3.6,1.184,2.882Zm-.257-9.367.721.206.515.1-.463-2.11Zm0,.154.926,7.051.309-6.742Zm6.382,26.094L241,339.95l4.066.206Zm-.823-1.7-4.684,4.272,5.507-2.676-.36-.824Zm.926,1.7-1.441,2.934,4.889-.309Zm1.493,4.684,1.029-.978.926-.978-4.735.36Zm-1.493-4.889,4.993-2.882-5.765,1.287Zm.309,0,1.7-.206,3.912-.463-.309-1.132-.309-1.081Zm7.154,1.9-.463-.772-.978-1.647-5.662.618Zm-.154.1-6.948-1.75,1.544,1.184,1.75,1.338Zm3.6,2.831-9.264.154.824,1.956Zm-.154-.154-7.1-1.75-1.956,1.956Zm-3.191-2.625-3.654.824,7.154,1.75Zm3.037-7.154-3.14-3.14-2.007,5.146Zm-4.478,4.426,3.963.412,1.441.1-6.073-2.728.052.206Zm-.463-2.367,9.573,1.287-4.529-3.243-4.941,1.9Zm9.573,1.441-9.47-1.287,6.125,2.728,2.059-.875Zm-7.617,3.5,4.015-1.9-5.456-.515Zm7.617-29.9-7.926-.154-.978,2.264Zm-6.433,6.228,1.8-3.294-4.272-.669,1.235,1.956Zm-.206-.1-.875-1.39-1.39-2.213.618,2.728Zm2.059-3.294L262,309.121l-8.75,2.059Zm-2.779,6.794.875-3.243-1.8-.978-.154,8.39Zm-.412,9.882,4.169-5.662-4.838.515Zm-.618-5.4,4.426-3.963-2.419-3.6-1.853,7.051Zm4.684-2.162-.206-1.647-4.375,3.912,4.735-.515Zm-3.963,7.566,3.088-1.647.978-3.809Zm3.14,3.294,1.492-3.4-4.632.309Zm1.132,5.25-4.118,1.956,1.8,1.338,1.8,1.338.257-2.316Zm.36-8.8-1.492-1.235-2.882,1.544Zm-1.544-16.109-1.8,3.191,2.419,3.551-.309-3.4Zm2.368,2.521-2.265-2.521.669,6.69.155-.36ZM258.4,323.12l-.978,3.809,1.493,1.287Zm4.684-12.146-5.559.978,2.265,2.625Zm-4.015,17.4-1.338,2.882-.206.463,2.882-2.007,2.831-1.956Zm-1.493,3.6,4.581,3.345.515-4.014Zm.052-.1,5.044-.669.823-3.448Zm5.507-21.05-.412-.875-.412-.875-4.632,2.728Zm-4.787,10.757.1,1.132,4.735-2.316-5.044-1.132Zm-.154-2.471,5.147,1.184.206-7.36Zm3.86,16.418-3.4,1.493-.463,4.426Zm-2.213-20.793-1.6,4.117,5.043-5.867Zm2.728,8.286-4.118-.154.566,5.3Zm-3.912-.257,4.015.154.669-2.419Zm.463,5.456,4.375-.669-.823-4.426Zm1.8-14.72-.875.978,3.448-1.75-.309-1.7Zm1.956-3.6.309.72.154-.926-.824-.566Z" transform="translate(-116.062 -289.175)"/>
      <path class="cls-4" d="M297.926,317.149l-1.184.515h-.1l-8.6-.669-.823,1.184.875,5.97v4.89l-.669,1.9.515,1.853-.515,6.382,1.03,4.169a.051.051,0,0,1-.052.051h-6.228l-2.934.36h-.052l-2.728-.721h-.051v-.1l.051-.051.823-2.316-.36-6.176v-.1l1.029-2.007-.669-8.8v-.051l.669-4.426-.36-1.7-4.941.721-5.353-.515-.052-.052v-.051l.669-3.294-.669-3.191v-.1l.721-1.75v-.051l3.242-.618h.1l3.037.772c.052-.051.052-.051.1,0l2.676-.772h.052l8.44.618,7.566-.463h.051l2.779.721,1.7-.36a.05.05,0,0,1,.051.051l.515,6.382v.051Zm-26.969-8.6-2.934.566-.618,1.6Zm.206.052-3.757,2.264,2.779,2.419Zm-3.14,5.456,1.441-.463.669-.206-1.544-1.338-1.184-.978Zm2.059-.566-1.03.36-.978.36-.669,2.934Zm-2.625,3.809,5.764-1.75-2.934-2.059-2.265,3.037Zm5.816-1.647-5.61,1.75,4.941.463.463-1.441Zm-1.956-7.154-.206.926-.721,3.706,3.912-3.912Zm4.066,3.448.566-1.029-5.456,2.419,3.86.309Zm.618-1.184-1.6-1.441-3.86,3.86Zm-2.625,4.684.463-.824.463-.823-3.757-.36,1.493,1.081Zm.051.206-.206.721-.412,1.493,4.632-.618Zm.978-1.853-.463.875-.463.875,3.963,1.544Zm.1-.155,4.529.309-2.882-3.088Zm.052.155,3.088,3.345,1.493-3.037Zm4.22-3.4-4.169-1.081,1.544,1.39Zm.257-.1-1.9-1.8-2.47.72Zm2.779,2.11-5.507-1.544,2.934,3.088Zm-2.625-1.9-2.676.257,5.147,1.492Zm-.617,31.807-.566-1.287-1.441,1.9,2.573.669Zm-1.081-.824.412-.566-.566-.257-.669,1.9Zm-.412-7.206,1.956.412,1.184.257-2.213-2.574Zm.978,6.588,3.6-.72-4.581-5.559Zm-.926-6.434,4.581,5.507-.72-2.676-.618-2.162Zm.772,6.382-.772-5.044.257,4.735Zm1.338-30.469,5.919-1.235-7.823-.618Zm-1.132,11.632-.1-2.316-.618,3.757.875,2.059Zm.206,3.912-.875-2.059.566,7.514Zm2.264-10.139-1.338-1.6L277.8,317.2l4.015.155Zm-.154,5.507,1.441-3.757L277.8,317.3Zm-.36-.309-2.265-3.4.257,1.39Zm-1.647,4.89,3.243.978-3.551-7.514Zm-.309,6.176,1.235-1.492-.927-4.169Zm4.787-.772-3.5-.618-.823,1.03-.412.515Zm-4.735,1.081,2.265,2.625,2.625-3.6Zm3.809,10.962-3.809-2.213.309.721.823,1.8Zm-.206-2.985-3.551.618,3.139,1.9.721.412Zm-3.5-20.948,3.346,6.948-1.235-4.889ZM283,331.148l-4.529-5.043.978,4.375,2.368.463Zm-1.235-4.168L278.575,326l4.478,4.941Zm.257-14.668,3.345-3.088-5.97,1.235Zm3.5,2.779-3.5-2.625-2.574,1.544,8.235,2.728Zm-6.073-.927.875,1.081,1.7,2.11,5.61-.463Zm2.522,3.449-1.441,3.757,1.184.463,2.419.823Zm1.184,13.845-1.75,2.368-.875,1.184,3.6,1.338Zm1.029-8.6-3.6-1.338,1.6,3.139,1.647,3.037.309-3.912Zm-.36,18.168.36-4.529-3.6-1.338,1.6,2.934Zm-.1-13.227-3.088-5.867,1.235,4.941Zm-2.934,7.978-.154-.257,1.235,4.632,1.853.978Zm2.985,5.507-1.9-.978.154,1.132.206,1.75,1.03-1.287Zm.051-13.279-1.9-.978,1.287,3.963.052-.206Zm1.235-16.367-2.934.772,2.316,1.75,3.345,2.471-.978-1.8Zm2.059,6.536-4.992-.669,5.815,6.485Zm-4.941-.463,2.11,4.993,3.5,1.287Zm.154-5.456,2.728-.72.463-2.265-.463.463Zm1.184,31.035.257-1.544v-.257l-.36.463-1.081,1.338Zm-.824-25.837,4.478.618L287.89,317Zm.772,12.713-.206,1.029,3.911-.36-3.242-2.779Zm-.1,1.184,1.338,2.573,2.625,5.044.463-6.125Zm.927,5.044,2.779,2.47-3.706-7.205Zm3.037-5.456-3.809.36,4.271,1.39Zm-1.235,11.683-1.184-.721-.978-.515-.1.566-.206,1.287,1.7-.412Zm-1.184-18.631-.618-1.029-.309,4.941.978.257,2.882.721Zm1.287,18.477-1.9-5.713-.309,4.478,1.029.566Zm.1.257-2.265.566h3.963Zm-2.11-14.617,2.522,2.162.618.515.617-1.75Zm.206-5.147,3.6,5.816V324.2Zm2.882,16.264L284.39,336.6l1.956,5.764Zm.927-26.2-2.522-3.757-.412,1.7-.1.566Zm.1.206-1.544-.772-1.493-.721,1.338,2.471,1.39,2.47.206-2.573Zm.1-.154.052-.052,2.573-2.47L288.971,310l-3.14-.772Zm-2.368-3.963,5.1,1.338,1.9-1.75Zm.36,33.505,1.287.412.618.206-.978-3.757Zm4.632-27.484-1.287-.926-1.287-.927-.155,1.39-.206,2.11.206-.1Zm.154.1-.978.515-1.956,1.132,8.029.618Zm1.9-3.037-1.956-1.6-2.574,2.522,5.147-.412Zm-4.529,1.029,2.574,1.853,2.573-2.265Zm7.257-3.809-4.529,1.132,1.75,1.39.823.721Zm.72,8.029-2.625-4.581-2.625,2.265,2.419,1.081Zm-3.294-8.75-1.6,1.39-.309.309,4.375-1.081Zm4.89,6.537-2.162-5.816-1.956,3.294,3.088,1.9Zm0,.154-2.471-1.493-1.544-.926,2.574,4.478.72-.978Zm-.1-.823.1.36-.463-5.919-1.6.36Zm-1.132,2.882.926-.412.309-1.39-.463.669Z" transform="translate(-116.062 -289.175)"/>
      <path class="cls-4" d="M334.831,312.723v.1l-.154,7.566-.721,2.573.875,4.632v.052l-.875,3.654-.515,4.117-4.117,6.279v.1l-.052.051-9.007,2.213h-.052l-9.624-.823a.051.051,0,0,1-.052-.051L305.8,338.92h-.051l-.052-.052v-.051l-2.573-3.551c-.052-.051-.052-.051,0-.051-.052,0,0-.052,0-.052l-1.133-8.75v-.051l.721-4.221-.823-7.668.36-5.559h.051l3.758-.36h1.39l2.625-.36.051.052,2.059.669v.051l.516,2.368v.1l-.31,7.566-.051.051h-.052l-.618.823.875,7.412-.669,2.934.824,2.059,4.271,3.037,6.176-1.338,2.059-5.353-.669-5.25v-.1l.154-8.955-.669-3.037v-.052h0c-.051-.051,0-.051,0-.051l1.029-2.419s0-.052.052,0l8.44.154h.052l1.029.721a.051.051,0,0,1,.052.051l-.206,1.184Zm-31.6-3.345-.875-.309-.309,4.838Zm.1.154-1.287,4.889,2.471,1.03.771.309-1.544-4.941Zm3.036,12.558-4.323-7.309.772,7.309Zm0-.206-.154-.772-.875-5.2-3.242-1.287Zm-.052.36h-3.5l-.67,4.015Zm-3.14,12.764,2.162-4.632-3.191-3.757Zm-.978-8.646h4.375l-.154-4.066Zm3.191,3.912,1.184-3.809H302.2Zm-2.059-21,1.955-.515-2.676.257Zm2.47,29.491,3.243-3.14-5.765-.36Zm2.471-5.61-2.831-2.676-2.109,4.632Zm-4.838-23.675,1.9,6.022.36-4.735Zm5.3,24.859-.463-1.132-4.838,1.956,5.661.36Zm-5.249-25.014,1.853,1.081.36.206.309-1.9-1.75.412Zm2.315,1.6-.257,3.912-.052.978,3.552,1.338-2.779-5.353ZM309.1,317.3l-3.6-1.338.412,2.419.617,3.6,1.081-2.007Zm-2.47,9.213-1.133,3.809,6.125-.1Zm1.7,6.588,3.294-2.779-6.073.1Zm-2.471-22.646.875-1.029.617-.721h-1.184Zm0,.206,1.9.978-.36-2.831Zm3.14,6.073-.618-2.522-.617-2.419-.927-.515-.926-.412Zm2.779,23.366-5.816-1.132,4.633,4.118Zm-2.573-4.426-3.191,3.037,4.838-1.287Zm2.573,4.272-.875-2.419-4.786,1.287Zm-5.1-13.587,5.559.823-5.713-4.889Zm1.029-6.331-1.08,2.007,4.889-2.213-2.315-2.47Zm3.809-.052-4.889,2.213,4.426,1.647Zm-.411,4.015-4.272-1.647,5.508,4.735-.412-1.132Zm-4.221,2.522,3.654,2.728,1.235.927.617-2.831Zm.669-17.756.206,2.162.1.721,2.162-.412,1.029-.206Zm.1-.1,3.448,2.162-.669-1.544-.412-.926Zm3.551,2.47-3.294.669.772,1.235,3.5,5.559-.72-5.559Zm-3.242.978,1.286,5.1,2.883,1.647Zm.463,21.153.823,2.265,7.309-.154Zm3.346-2.882-3.191,2.676,4.015-.823Zm-3.14,2.779,7.978,2.059-3.963-2.831Zm.721,2.471,1.646,1.75,5.508-1.9Zm1.75-17.242-1.544-.824,2.059,2.213.617-.772Zm-.412-8.75.566,1.235.309-.72.463-1.132-1.853-.618Zm5.353,30.623-4.117-.154-.823,1.9-.412,1.029Zm-4.065-.309,4.734-4.375-5.661,1.9.875,2.471Zm7.257,1.956-2.934-1.6-.052-.052-5.2,2.779Zm.1.1-8.234,1.132,9.058.824Zm-7.72-21.668-.412,3.6,1.184,2.882Zm-.258-9.367.721.206.515.1-.463-2.11Zm0,.154.927,7.051.309-6.742Zm6.382,26.094-5.559,2.728,4.066.206Zm-.823-1.7-4.684,4.272,5.507-2.676-.359-.824Zm.927,1.7-1.441,2.934,4.89-.309Zm1.492,4.684,1.029-.978.927-.978-4.735.36Zm-1.492-4.889,4.992-2.882-5.765,1.287Zm.309,0,1.7-.206,3.912-.463-.31-1.132-.309-1.081Zm7.154,1.9-.464-.772-.978-1.647-5.661.618Zm-.154.1-6.948-1.75,1.544,1.184,1.75,1.338Zm3.6,2.831-9.265.154.824,1.956Zm-.154-.154-7.1-1.75-1.956,1.956Zm-3.191-2.625-3.654.824,7.154,1.75Zm3.037-7.154-3.14-3.14-2.008,5.146Zm-4.478,4.426,3.963.412,1.44.1-6.073-2.728.052.206Zm-.464-2.367,9.573,1.287-4.529-3.243-4.94,1.9Zm9.573,1.441-9.47-1.287,6.124,2.728,2.059-.875Zm-7.617,3.5,4.015-1.9-5.456-.515Zm7.617-29.9-7.926-.154-.979,2.264Zm-6.434,6.228,1.8-3.294-4.272-.669,1.235,1.956Zm-.206-.1-.875-1.39-1.39-2.213.618,2.728Zm2.059-3.294,4.684-2.728-8.749,2.059Zm-2.779,6.794.875-3.243-1.8-.978-.154,8.39Zm-.411,9.882,4.169-5.662-4.838.515Zm-.618-5.4,4.427-3.963-2.419-3.6-1.854,7.051Zm4.684-2.162-.205-1.647-4.375,3.912,4.734-.515Zm-3.963,7.566,3.088-1.647.979-3.809Zm3.14,3.294,1.492-3.4-4.632.309Zm1.133,5.25-4.118,1.956,1.8,1.338,1.8,1.338.257-2.316Zm.359-8.8-1.492-1.235-2.882,1.544ZM328.5,312.157l-1.8,3.191,2.419,3.551-.309-3.4Zm2.368,2.521-2.265-2.521.669,6.69.154-.36Zm-1.287,8.441-.978,3.809,1.492,1.287Zm4.684-12.146-5.559.978,2.265,2.625Zm-4.015,17.4-1.338,2.882-.206.463,2.883-2.007,2.83-1.956Zm-1.492,3.6,4.58,3.345.516-4.014Zm.052-.1,5.044-.669.823-3.448Zm5.507-21.05-.412-.875-.411-.875L328.86,311.8Zm-4.787,10.757.1,1.132,4.735-2.316-5.044-1.132Zm-.154-2.471,5.147,1.184.205-7.36Zm3.86,16.418-3.4,1.493-.464,4.426Zm-2.213-20.793-1.6,4.117,5.044-5.867Zm2.728,8.286-4.117-.154.566,5.3Zm-3.911-.257,4.015.154.669-2.419Zm.463,5.456,4.375-.669-.823-4.426Zm1.8-14.72-.875.978,3.448-1.75-.309-1.7Zm1.955-3.6.31.72.154-.926-.824-.566Z" transform="translate(-116.062 -289.175)"/>
      <path class="cls-4" d="M372.4,343.552h-.927l-2.934.206-7.257-.206h-.052l-.669-1.9-5.713-8.6-4.221-.515-.36,6.485,1.184,4.169.052.154a.05.05,0,0,1-.052.051l-3.345.36-4.838-.36h-2.522c-.051,0-.051,0-.1-.051l-.669-1.853v-.1l1.235-5.456c-.052,0-.052,0,0-.051l-.875-2.007v-.1l.978-8.029c0-.052,0-.052.052-.052l-.875-2.419.771-3.448-.771-8.9v-.1l.721-1.853c-.052,0,0,0,.051-.051l2.728-.36,4.169.721c0-.052.052,0,.052,0l2.985-.515h.052c0-.052.051,0,.051,0h6.125s.052-.052.052,0h.051l5.508.669,5.507,3.088c.052,0,.052,0,.052.052l2.934,5.919L370.5,325.9v.051l-3.964,4.272a.05.05,0,0,1-.051.052l-2.368,1.184,3.809,4.22,2.729,3.654.411.875ZM346.31,341.03l-5.044-4.992-1.132,5.353Zm-6.176.566.617,1.7h2.316Zm3.19,1.647,2.883-2.11-5.971.36.566.36Zm-.617-11.168-.411-1.9-.875-4.118-.979,7.669Zm-1.441,3.654.31-.824,1.029-2.573-2.162,1.544Zm1.133-21.823-1.184-4.735-.566,1.7Zm-1.081,5.559,1.184-5.1-1.853-3.191Zm2.728.772-2.676-.309-.721,3.191,2.059-1.75Zm-2.624,5.353,2.572-5.147-3.345,2.882Zm-.052-16.47,1.184,5.043,2.367-2.934-1.184-.72Zm0,26.66,1.286-.463.412-.154-.36-2.728-.875,2.213Zm1.8-.515-1.8.669,4.838,4.787-.412-.772Zm1.7-24.19-.257-.618-.669-1.75-2.521.309Zm-3.447,8.441,3.087-4.118-1.9-.978-.721,2.934Zm2.728.618.309-4.529-2.265,3.14-.771,1.029Zm-1.338,11.786,1.08-1.132,1.235-1.441-3.19-3.088-.412-.36.257,1.132Zm-1.235-6.331,4.58-2.625-.978-1.338-.979-1.287Zm.051.1,2.573.463.772-1.287,1.081-1.75Zm2.522.566-.412-.1-2.059-.309,3.4,3.294Zm-1.493-11.94,1.9.926.1-1.287.257-2.471Zm.206,17.808.36,2.728,1.853-5.25Zm.463,2.934,3.86-2.985-.669-.875-1.235-1.75-1.9,5.4Zm3.912-2.831-3.912,2.985,3.5,1.6.1-1.132Zm-.823,8.646.309-3.14.1-.772-1.956-.926-1.544-.669,1.544,2.728Zm1.646,2.728-1.6-2.419-2.985,2.11Zm-3.706-34.278.67,1.8,2.984-1.8-3.911-.618Zm-.1,10.706,1.956-1.441,1.955-1.492-3.5-1.647-.206,2.316Zm1.956,2.779,1.955-5.507-3.859,2.882,1.184,1.647Zm.051.257-1.955,3.088,5.867-.823Zm-.978,6.176,4.89-3.757-5.867.772Zm2.831-12.3-1.544-2.779-1.493-2.728-.411,3.86,1.646.824Zm.051-7.565-2.984,1.8,2.676.669,2.677.618-1.6-2.059Zm2.368,7.411.1-2.779.052-1.338-5.507-1.338Zm-5.2-5.146,2.985,5.4,2.109-.206Zm1.955,20.33,2.883-6.382-4.838,3.757Zm1.339-11.632-2.316,2.625,3.963,2.265-.051-.052Zm0-.154-.36-2.779-.927,2.625-.926,2.625,1.749-1.956Zm.463,17.808-.257-.1-1.9-.875-.36,3.86,1.9-2.162Zm.1.1-1.286,1.441-1.287,1.492,4.684,2.213-1.853-4.529Zm2.008,5.2-4.529-2.059,1.544,2.368Zm-.772-10.757-3.088-.36-.36,4.529,2.625-3.139Zm-.051.206-2.729,3.345-.669.824,2.162.978Zm.154-3.14-.154-3.912-2.883,6.176Zm-3.037,2.419,3.037.36v-2.573Zm.772-22.646,2.419,3.088.309-2.419.154-1.184Zm.463,10.6,1.75-2.985-2.11.154Zm1.956-1.029-1.9,1.287,1.081,3.346.515,1.441Zm-.154-1.853-1.184,2.059-.464.823.875-.566.927-.618Zm-.36,21.771.309-5.764-1.235,4.838Zm-.772-.566,1.647,3.809-.875-3.037Zm11.117-14,1.6-1.9-1.081-4.581-5.97-1.184-4.427.36.154,1.75v.1l-.309,6.485,5.816-.206h2.367Zm-7.978,1.956-1.029-.412-1.029-.36.052,1.6.1,2.419.669-1.132Zm-1.9-9.521,6.073-4.529-5.919.463-.051,1.39Zm0,13.073v2.573l4.066.515Zm.052-4.375.206.052,1.75.669,2.419-.669.669-.206Zm4.169,7.412.515-2.985.771-4.529-5.455,4.375.617.515Zm.154-16.315,1.75-4.169-5.971,4.478Zm.927,8.853L353.67,326l-.979.309-1.9,3.14Zm-5.1-12.867,5.919-.463-5.456-3.14ZM356.86,312l.566-3.139h-5.919Zm-1.8,20.536,3.551-7.257h-2.265l-.36,2.162Zm.051.155,1.854-1.544,3.294-2.779-1.544-3.037Zm.052-16.212,4.941-1.647-3.14-2.625-1.441,3.448Zm5.146,11.992-5.146,4.375,8.7-1.493Zm1.544,9.059-.463-2.471-.154-.823-6.073-1.132Zm-.257,3.345.309-3.191-6.69-4.426ZM355.316,333l5.919,1.132,2.625-2.625Zm5.713-15.286-.411-1.39-.412-1.389-3.294,1.081-1.544.515Zm.515,23.264-3.963-4.735-2.059-2.419,5.146,7.72Zm-4.015-31.961-.515,3.088,3.037,2.471Zm2.729,5.661,1.338-2.625,1.287-2.522-5.3-.669Zm-1.493,10.551,1.493,2.934.1-2.471.052-1.235Zm4.015-15.132-2.471,4.787.772,2.573Zm.258,16.83-.927-4.22-.875,2.934-.823,2.728,3.5,2.831Zm-2.419-2.573-.206,3.5.978-3.088.618-2.059Zm.823,17.55.154-.772-.154.1-.721.412.515,1.6Zm-.258-24.138,3.963,4.272-.515-4.941-.309-2.471Zm1.8-7.978-1.75,7.771,1.492-1.493,1.6-1.6Zm-.772,12.609,2.883-.206-3.86-4.221Zm-.669,12.918.464,2.162,2.059-3.191-2.729-.051Zm-.206,8.081,4.479-1.7-4.118-.618Zm2.625-11.786-2.521,2.522,2.676.051Zm2.11,10.139-4.478,1.7,6.794.154Zm-.206-.154-3.757-3.706-.1-.1-.052.412-.206,2.728,2.728.463Zm-1.75-7.206-.36.566-1.7,2.676,3.912,3.86-.052-.206Zm2.265-4.22-4.065-7.309,1.8,8.492Zm.927-4.735-2.059-3.088-2.883.154Zm.154.257-5.1-3.037,4.066,7.36Zm-1.7-14.565-2.625-1.441.978,3.551.31,1.184,3.911-1.853Zm-1.544,23.058,3.448,1.39-3.552-3.963Zm1.853,7.257.721-2.368,1.029-3.294-3.552-1.441Zm-1.6-26.918,1.39,2.985.1.154.051-.1,2.368-4.787Zm0,.309.515,4.786.258,2.213.36-2.265.257-1.75-1.286-2.728Zm.875,7.257,2.214-1.39-.67-1.184-.926-1.493-.31,2.007Zm2.265-1.287-.669.463-1.6,1.03,2.11,3.191.1-3.14Zm-1.6-3.037,1.6,2.779.823-7.617Zm1.9,18.117-1.749,5.662,4.323-2.213Zm2.934,4.478-4.632,1.338,2.316,1.9,2.007-2.831Zm-3.242-14.617-.978,4.014-.052.258,3.706-4.066Zm-.823,15.646,1.287-.36,2.83-.875-.309-.721Zm2.161-20.33-1.234-.257-.052,1.338-.052,3.191,1.39-2.574.823-1.493Zm1.39,4.787-.463-4.375-1.029,1.8-1.235,2.316Zm-1.8-12.764-.823,7.566.72.154,1.39.36Zm1.441,7.978,1.44-2.625-2.779-5.507Zm1.39,22.389-.464-2.985-.411.618-1.8,2.522Zm-1.39-22.183.463,4.118.927-6.588Zm1.184,19.506.257,1.956.1.721h.72Z" transform="translate(-116.062 -289.175)"/>
      <path class="cls-4" d="M405.654,343.5a.05.05,0,0,1-.052.051h-9.315l-3.088.36h-.052l-4.117-.875-10.859.721h-.052l-1.544-.36-.052-.051,1.029-3.294-1.029-3.551v-.1l.36-3.243-.36-5.043.721-4.324-.515-3.345c0-.051-.052-.051,0-.1l.823-6.845-1.029-5.044s0-.051.1-.051l3.448.515,6.176-.36h5.4l7.515.309,4.22-.309,1.287.875a.05.05,0,0,1,.051.051v2.162l-.257,3.345.515,1.235v.051h-.052l-3.809.721-5.559-.515-3.757.566-5.146.257-.515,3.4.515,2.007,4.786-.566h.052l8.389.052,1.544-.309h.052l1.39,2.059a.071.071,0,0,1,0,.1l-.36,3.86-.823,1.647a.051.051,0,0,0-.052.051l-1.9.36h-.1l-3.4-.206-4.889.515h-.1l-4.786-.36-.669,2.573.515,3.037,5.609-.36h.052l3.963.669,2.728-.515h.052l4.427-.669h2.161v.1l-.669,2.522.36,1.338V341.8Zm-26.248-17.756-2.06-1.75-.669,4.015Zm-2.06,7.1,1.235-.772-1.9-3.6.309,4.581Zm.412.978.721-1.493-1.493.875-.309,2.882Zm4.632,7.154-5.713-4.375.979,3.4Zm-4.323,2.625-.463-3.243-.927,2.934Zm.464-30.366.463,1.132L381,311.745l-4.271-3.139Zm-1.8,14.875,1.956.566,1.955.566-.565-1.7-.618-1.7Zm1.235,2.625.669,1.235,1.956-2.573-1.544-.463-2.316-.669Zm-1.235,5.559,2.265-1.132-.36-2.779Zm4.169,2.059-1.853-3.037-1.185.566-1.132.566,5.661,4.375Zm-3.242-24.962,1.184.927-2.059-5.2Zm3.242-1.853-.875-2.522-3.191-.463Zm-3.552,12.2,4.735-.309-5.25-2.934Zm.566-6.588,1.029-2.625-1.286-.978-.772,6.33Zm4.271,6.176-2.778-5.61-2.522,2.625Zm-5.249-3.191,2.419-2.574-.1-.566-.309-2.213L377.3,319.1Zm1.853,4.941.721.566,2.573-2.11-4.632.36Zm3.654,16.058-4.735-.978.464,3.448,1.44-.824Zm6.176,1.8-6.021-1.8-4.169,2.471Zm-9.521-8.08.721-2.574.772-2.625-1.9,2.47v.052Zm.31-17.6L380.95,312l-1.9,2.522Zm1.389,12.249-1.646,5.507,3.551-2.882-1.286-1.75Zm1.9,2.779-3.551,2.934,3.191,1.647.205-2.316Zm-.154,8.544-.205-3.809-2.214-1.184-.926-.463.771,1.235Zm-1.44-28.977-1.235,4.272-.36,1.287,1.286-1.029,2.265-1.9Zm1.595,7.412.36-4.632-3.551,2.985Zm-.051.1-3.088-1.6,2.728,5.456Zm-3.037,6.434,1.184,3.448,5.508-2.625Zm2.729-2.213-2.677,2.11,6.69.772-.72-.515Zm-2.214-14.565.979,2.625,4.838-2.934Zm6.279,17.705-5.559,2.625.979,1.338.978,1.338.875-1.338Zm-5.2-14.978,1.956,2.625,2.934-5.559Zm3.448,8.647-1.853-.978-.1.772-.309,3.037Zm-2.213,16.624.257,3.912,3.4-5.25Zm2.316-16.573-1.6,2.11-.669.823,1.7-.257,2.265-.412-.823-1.081Zm.823,12.095-2.728-.36-.36,4.529,2.367-3.139Zm-.36-7.051,1.338.978v-3.6l-4.015.669Zm.463,7.154-3.14,4.169,3.654-1.287Zm.772-15.389-3.242-2.625-.155,1.853-.257,2.728Zm-.258,18.528-2.265,3.5-1.132,1.75,3.4-.669Zm-3.345-16.47,1.9.978,1.7-2.882Zm4.838,22.543-1.493-1.39-3.294.618,5.816,1.75Zm-1.339-12.043.155-2.985-2.779,4.066-.721,1.03.463-.309Zm-3.345,2.265,2.676.309.618-2.367-.464.257Zm4.89-21.565-4.633,3.963,2.419,1.956.875.721Zm-1.647-1.8-1.646,3.14-1.235,2.368,4.529-3.86Zm-1.338,11.632,1.132.309.464-3.088Zm.051.154,1.185,1.6.309.412-.412-1.75Zm1.339,15.183v4.632l4.271-1.75ZM388,310.3l3.294-1.6h-4.89Zm3.911,30.16h-5.507l2.625,2.419Zm-2.779-14.977-2.47,1.132-.052.618-.1,2.316,2.47-3.809Zm-2.573,10.19,4.169,2.831.823-1.081.824-1.132Zm5.456,4.684-1.287-1.7-4.169,1.7Zm-.772-10.19-.206-1.132-.36-2.265-4.065,3.037Zm-4.58-3.706,2.47-1.184-2.47-2.368Zm2.624-1.029-1.749,2.779-.875,1.39,4.014-2.934Zm-.359-10.6L388,310.613l-1.287,6.434,1.081-1.081Zm2.059,1.6-1.956-1.441-2.265,2.213,4.838-.309Zm-4.118,6.537,2.368,2.265,1.44-.721.412-.206Zm.052-.154,1.39.463,2.883.927.205-1.9Zm5.456,13.381-.464-.926-4.94.309ZM388.1,310.458l.464,2.162.515,2.162,4.786-1.493Zm5.867,2.728-.359-1.956-.155-.978-5.249.154Zm-2.367-4.478-3.346,1.6,5.044-.206-1.132-.926Zm2.265,4.684-4.735,1.493,1.029.772,1.6,1.184,1.441-2.419Zm-.823,30.366-.927-3.243-.36.309-2.573,2.11Zm-2.316-17.19.206-1.081.206-1.029-.927.463-.771.463,1.234,1.132Zm5.146,2.831-4.58-4.941-.463,2.213,2.059,1.132Zm.1.257-5.146-2.882.515,3.4Zm-5.1,8.853,4.169-.566-2.573-1.6-.566.721Zm0,.154.618.823.669.824,2.882-2.213-1.286.155Zm.515-15.389-.1.978h3.4l-.771-.463-2.368-1.441Zm3.448,1.081H391.4l4.735,5.146Zm-1.132-.824,1.184.721,2.779-1.081-2.934-.412-2.934-.412Zm-.617-13.793.411.36,5.2-1.132-6.845-.257Zm2.367,6.588-1.441-2.934-.721,1.184-1.39,2.316Zm-3.4,18.992.464.875,2.934-.309Zm2.985,2.882-2.83,2.213.823,2.831.1.412.979-2.728Zm2.883-15.131,1.544-.721-6.9-.051Zm-3.6,14.308.824.515.463-1.287.206-.618-3.14.309Zm-1.08,6.382,3.294-1.338-1.287-4.168Zm.823-30.624,1.338-1.029,1.287-1.081-3.14-.772.309,1.956Zm2.161,30.315.1-.309.154-.566-2.882,1.184ZM393.816,310.2l1.235.309,1.854.412,2.007-1.9Zm2.985.978-2.676,2.11,1.44,2.934,1.184-4.838Zm.927,15.44L395,324.458l.617,2.522.617,2.521.721-1.441Zm.206-3.4-1.441.566-1.441.515,2.677,2.11.1-1.544Zm-1.956,12.764-.618,1.853,3.089-2.316Zm.669,6.228.412-1.235.875-2.573-2.574-.36Zm-1.132-4.272,2.47.309,3.6-2.471,1.08-.823Zm1.44-26.866-1.286,5.147,5.353-5.147Zm1.75,24.4-3.036,2.264,7-2.882Zm2.368-18.631.154-1.132.36-2.213-5.816,2.882Zm-5.2-.669,5.714-2.831-.515-2.213-4.581,4.426Zm2.831,12.146-.926-1.6-1.441,2.934,3.242.206ZM396.7,342.523l-.309.875,3.5-1.441Zm5.559.154-1.854-.823L396.7,343.4Zm-5.508-.36,5.868-3.654-4.581-.257Zm3.6-.566,1.853-2.419.309-.463-5.609,3.5Zm-3.294-30.829h3.963l-1.853-1.9Zm5.146,32.322.154-.412-5.146.618h4.89Zm.412-19.2-4.581-.823-.1,1.647-.1,1.6,2.471-1.235Zm-4.684,2.522,4.478,1.184.36-3.654Zm0,.1,1.8,3.14,2.573-1.956Zm1.955-4.323-1.7.772,4.271.772Zm3.243,12.455-4.684,3.294,2.83-.823,2.522-.824-.206-.515Zm-.31,3.706.927-1.9-5.3,1.647Zm-3.5-29.543.875.927.978,1.029,2.007-2.213Zm.617,20.845,1.647-.36.72-1.441Zm2.677-6.022-1.185-1.8-1.39.309Zm-.824,18.58.669.309,2.265-3.86-4.169,2.934Zm1.081-3.706-2.161,2.831,4.014-2.831Zm-1.7-21.822,3.551-.669-3.036-2.625Zm.36-4.426.154.875,1.6-1.235-2.008-.927Zm-.206-1.493,3.242.618-.154-.463-1.081-2.368-.1.155Zm1.39.412-1.081-.154.979.463.771.36.979-.36Zm1.544,3.551-.927-2.728-.771.617-.823.618.823.515Zm.1.206-2.11-1.235,1.029.875,1.492,1.287Zm-1.8,27.689-.309.669h2.83l-1.7-.412Zm.1-.206,2.162-.824v-2.882Zm.412,0-.412.154,2.779.669-.565-1.493Zm.823-5.919-.926,1.75,1.492-1.132-.052-.052Zm.618.721-.36.309-1.081.824h1.75Zm-.618-.978,1.235-1.647h-1.853Zm-.257-27.278.926,2.059v-1.647l-1.08-.721Zm-.154,2.985.617,1.9.258.669.205-2.985Zm.463,24.4.515.566.052.1.617-2.213Z" transform="translate(-116.062 -289.175)"/>
    </g>
    <g>
      <path class="cls-4" d="M238,390.454v.072l-1.737.724-7.239,5.285a.071.071,0,0,1-.072.072l-6.008,1.665h-8.9l-9.121-1.665a.071.071,0,0,1-.072-.072l-4.995-4.054-1.81.217h-.072l-.072-.073-1.086-2.1,1.23-4.271a.071.071,0,0,1,.073-.072l5.5-4.85h.145l6.515,4.633,7.745.941,5.791-.435,1.593-3.33-5.5-2.823v-.073l-.435-.651-5.356-.724-8.759-3.692-6.08-5.067c0-.073-.073-.073,0-.145l-.29-9.845v-.072l.724-2.678a.071.071,0,0,1,.072-.073l4.343-5.139.217-1.593a.071.071,0,0,1,.072-.072l10.858-2.389a.071.071,0,0,0,.072-.073l7.383.29,8.18,1.665c.072,0,.072,0,.072.072l6.3,4.633v.072l-1.448,1.737-3.837,6.949-.072.073-1.52.724h-.072l-.073-.072-6.37-3.764h-.072l-5.5-1.23-5.574,1.665-.941,3.764,7.746,2.461.724.941,11.872,2.172h.072l1.158,1.23a.071.071,0,0,1,.073.072l5.284,6.949.072.072Zm-40.03-.072.072-3.4-1.085,3.547.941,1.737Zm5.791-3.186-5.574-.8v1.52l-.072,4.488Zm-3.981,5.067,3.257-4.126-4.777,4.343Zm-1.375-6.008,5.5.8-.29-5.429Zm6.732-17.518-5.284-11.076-.652,2.389Zm-5.719,1.158h6.3l-6.515-9.483Zm5.863,4.995.507-4.777H199.56Zm-1.3,12.451-2.679,3.33-1.375,1.665,4.85,3.981Zm5.719-31.489-5.574-3.475-4.126,4.922ZM205.93,369.9l5.646-5.212-11.582-7.094Zm5.646-5.429L209.911,356l-9.845,1.448Zm-7.528,21.209.072,1.375,5.212-.145-5.574-5.285Zm7.528,8.976-7.456-7.311.651,6.8.217,2.244Zm.072-43.143-7.166-.869-.217,1.521Zm-1.665,4.271,2.461-4.126-8.035.724Zm-5.574,31.561,7.311,7.167.073-3.692.072-1.81-1.3-.29Zm5.14-.434.29-.435.29-.435-5.574-3.909Zm-.072.217-4.561.145,6.66,1.52Zm3.185-35.687.869-1.086,1.592-2.1-10.134,2.316Zm-.941,43.36-3.4.869-2.968.8,8.47,1.593ZM205.5,374.963l6.3-3.547-5.864-1.3-.145,1.592Zm8.252-.29-1.737-3.113-6.3,3.475,8.324.145Zm.362.652-8.252-.145,8.18,3.475V376.99ZM211.648,364.9l-5.574,5.067,5.936,1.375-.145-2.172Zm-1.3,21.209-.579.8h6.877Zm-.579,1.013.579.507,1.592,1.23,5.429-1.737Zm2.9-26.494,4.054-6.8L210.128,356Zm.072-8.976L210.2,355.78l6.37-2.172Zm-.145,9.193-2.316-4.344,1.013,5.429.434,2.316Zm-.8,4.126.217,4.2.145,2.1,2.389-.724,1.3-.362Zm4.2,5.14,3.33-2.968-7.384-2.316Zm-3.981,19.11-.073,2.533v2.606l1.882-2.678-1.448-1.955Zm2.026,8.687-.072-3.041-.145-2.968-1.882,2.75Zm-1.954-8.9.869,1.23.941,1.23,3.764-4.271-1.52.507Zm.217-17.59,5.357,4.343-1.665-5.429Zm5.14,4.488-4.995-4.054,1.81,3.33Zm-2.1-27.58-2.534,3.185,3.981,1.955-.362-1.23Zm.724,10.713,3.112-1.52-2.244-3.692-1.3,2.244-2.678,4.488Zm2.1,0,.724-1.013.145-.29-5.357,2.678Zm1.81,33.082-6.008-.362.145,3.113.145,3.185,10.207-5.574Zm-1.955-5-3.909,4.416,10.424.724Zm-3.764-11.654v3.185l4.922.724Zm10.424,17.083-10.207,5.574H222.8Zm-5.5-13.464-1.448-2.968-3.185-.724Zm-2.968-28.231.724,2.606,4.85-4.343.652-.651-6.949-.217Zm4.85,21.789-4.922-2.244,1.737,5.429Zm-.869-4.416-3.981,2.027,4.922,2.244Zm-1.086-.651-2.461,2.171,3.475-1.737-.652-.8Zm.217-10.207,1.882-1.593-4.054-1.955Zm5.356-5.14-2.027-3.692-5.429,4.922Zm-6.949,1.665,3.62,1.737,3.185-3.186-7.239,1.231Zm7.6,20.992-7.384,1.23,1.593,3.258,1.447-1.158Zm.072-.217-4.126-1.955-3.186,3.186Zm-5.284,13.9,4.56,3.475-.869-5.429-5.574.435Zm-.8-30.91-.435.652-.506.724,4.995,1.086Zm2.027-1.81-1.882,1.665,4.2,2.534-.507-.941Zm2.968,20.052-4.705,3.619.362.579Zm-4.054,4.2,7.6.507-1.086-2.9-1.085-2.823Zm.072-11.8.941,4.126,1.882-1.955-.941-.724ZM225.547,383l2.244-2.244-7.384-.434ZM223.3,370.33l7.963-.145-10.713-1.955Zm0,.29-1.954,1.955,4.126,1.955Zm-1.737-14.912,4.923,2.316-.869-2.751-.868-2.823Zm4.85,2.461L221.638,356l2.244,4.2,1.3-1.013Zm-3.547-9.482,1.955,3.547,5.574.724Zm2.027,43.867-1.882,5.5,5.791-1.593Zm-1.737-43.939,7.6,4.343.072-1.882v-.941Zm.29,21.934.362.724,1.955,3.33,7.167-3.113Zm9.7,17.3-7.528-4.561-1.665,3.185Zm-8.759,1.592.507,2.823,8.325-4.2-9.266-1.448Zm2.244-31.126-1.593,1.158-1.013.8,6.081,3.691Zm3.692-1.375-5.357-4.343,1.737,5.429,2.389-.724Zm-5.357,13.537,8.107.869-1.013-1.014Zm8.4,17.735-8.4,4.2,3.981,3.981Zm-2.606-35.036-5.646-.724,1.375,1.086,3.981,3.185.217-2.316ZM233.22,387.7l-5.212-6.877-2.316,2.316Zm-5.212-7.166,2.968-3.186-5.14-2.461Zm5.139-8.9-7.238,3.113,5.139,2.389Zm-2.678-14.55-2.389.724-1.3.362,4.923,5Zm-2.9,2.1-.434-.435,3.33,5.357,1.231-.652Zm3.475,18.314-1.375,1.52-1.592,1.737,5.284,6.877Zm2.534,10.641-2.751,5.067-1.592,2.968,6.877-5.067ZM230.9,353.174l-.145,1.882-.145,1.81,6.3-2.172Zm4.705,3.33-4.995.507,1.3,6.226Zm-4.705-4.416v.941l5.863,1.448-5.791-4.2Zm.362,4.706,4.416-.435,1.3-1.448Zm1.086,17.59-1.086,2.823,7.239,1.158-5.14-6.732Zm6.225,4.2-7.311-1.158,1.158,5.139,1.158,5.14.651-1.086Zm-1.013,2.171-3.837,7.239,4.126,2.316.724-11.437Zm.145,9.628-3.691-2.027,2.244,2.679Z" transform="translate(-116.062 -289.175)"/>
      <path class="cls-4" d="M290.915,360.7v.145l-1.23,5.574,1.013,5.284-.29,4.126v9.338l-.941,7.166.724,4.85v.072a.071.071,0,0,0-.072.073l-5.067.434h-.145l-5.719-.434-2.9.434h-.072l-.072-.072.507-3.4-.507-7.746.724-7.673-6.37.724-9.989-1.013-1.158.941.941,15.418v.145l-.941,2.389-.072.072H245.6l-.072-.072-.434-1.448v-.072l1.23-12.378-.507-2.534v-.072l-1.23-8.469v-.072l.941-7.456-.434-1.448v-.145l.434-11.075-.724-3.4v-.072h.072c0-.072,0,0,.072,0l3.837-1.014h.072l3.04,1.014c.072-.072.072,0,.072,0l1.882-.507H254l5.212.507c.072-.072.072,0,.072,0,.072,0,.072,0,.072.072l.941,8.252v.072l-.724,2.606a.071.071,0,0,1-.073.072l-.651,1.158,1.23,6.37,1.3-.869c0-.072.072-.072.072,0l7.239.724,2.9-.507h.072l4.488.724,1.014-8.614-1.448-2.9c-.072-.073-.072-.073,0-.145l.941-6.732c0-.072,0-.072.072-.072l3.836-.941c0-.073,0-.073.073-.073l.072.073,2.606.941,7.021-1.014.072.073v.145l-.506,2.316c.072,0,.072.072,0,.072ZM244.8,372.285l.362-.29.869-.579-.435-5.646Zm4.633,2.9-3.909-2.171-.724-.435,1.158,8.107Zm-.435-.507-.579-.579-2.316-2.461-1.23.8Zm-2.9-24.612.941,1.014,1.592-3.041-3.547.869Zm.217,1.665.651-.435-1.882-2.1.579,2.968Zm-.651,13.03,1.085-1.375,2.606-3.185-4.126,3.33Zm4.633,29.172-1.375.579-3.692,1.592.435,1.231Zm-4.995-30.91,1.737-3.113,4.271-7.6-2.1-.435-2.027-.434Zm1.665-11.51-.8.507-.434.29-.434,9.7Zm3.836,34.312-4.343-2.027-1.158,11.8Zm.073,7.673v-7.383l-5.5,9.7Zm-5.357-30.475,4.416-3.547,1.3-6.515L247.12,360.2Zm.651,8.252,5.067-5.285-2.751-.506-2.75-.435.145,2.461Zm-.289-6.515,7.383-1.81-3.257-3.257-1.014,1.3Zm5.863,30.837-.8-1.882L245.89,397.4h6.659ZM246.034,364.9l5.356.868.652-.868,1.158-1.81Zm4.126,16.215-.217-1.521-3.909,1.375,4.777,4.633Zm-3.691,2.461,2.533,1.23,1.448.651-1.955-1.882-2.461-2.316Zm3.475-4.2-.073-.724-.434-3.257-3.33,5.356,2.244-.8Zm1.013-11.365.362-1.882-5.067,5.356,3.257,3.4Zm-2.9-18.386-.724,1.448,4.416-2.172-2.9-.869Zm3.33,2.534.435-3.113-4.488,2.244,1.086.217Zm-1.737,22.947,2.679,2.678-.869-11.22Zm.435,4.271L252.332,378l-2.679-2.606Zm.869,5.791,1.3-6.949-.869.579-1.3.8.507,3.33Zm2.389-22.368,1.375-4.995-2.244.869-2.316.941Zm-3.113-3.836,3.909-7.89-2.606,1.3Zm4.561-1.448-.434-6.3-2.751,5.429-1.375,2.75,1.086-.434Zm.507,24.1-4.2,4.2,6.442,4.126Zm2.316,8.542-6.515-4.2v7.456Zm-4.054,3.981-2.461-.434,1.592,3.475.217-.869Zm-2.389-8.687,4.054-4.054-2.679-3.112ZM253.707,394l3.62-3.475-6.008,3.04Zm-.362-30.765-1.81,2.678.941,1.81,1.737,3.4-.507-4.705Zm-1.3-14.188-.435,3.113,2.606-1.375-1.086-.869Zm-.435,17.3.435,6.008.434,5.067,1.81-5.646Zm.507-17.445.724.579,1.375,1.158-.29-1.592-.072-.579Zm.507,29.027h3.619l1.52-4.416,1.882-5.212-3.692,5.067Zm3.547.217h-3.547L254,379.741l1.3,1.52.507-1.52Zm-1.665-6.37-1.81,5.791,6.8-9.555Zm-.145,23.526-.652-.941-.724,2.244-.217.8h2.9Zm-.869-32.14.941,8.324,5.357-3.909-2.1-1.448Zm.362-1.593-.29,1.086,3.185-2.679,3.113-2.75-4.922.507Zm4.85-.435-1.737.652-3.33,1.23,4.271,2.968,1.955,1.375Zm-2.9,36.049,1.81-6.732-3.836,3.619.651,1.086ZM254,348.542l.289,1.448.145.724,2.968-1.3-1.013-.29Zm.145,13.9,5.284-2.678.651-2.316Zm3.475-12.812-2.027.8-1.086.506.073,1.014.362,5.212Zm-1.448,12.016-1.52.8.217-.145,3.837-1.375.579-.869Zm1.592-11.944-2.1,6.008-.651,1.81,5.067-.435-2.171-6.949Zm-2.605-1.086,2.605.652,1.086-.362Zm3.909,31.054-3.62,1.81.652,2.461,1.665,5.791Zm-.072-.217-2.606-1.3-.869,3.041Zm1.085,15.563-.724-1.521-1.52-2.968-1.81,6.66,2.679-1.448Zm-3.909,2.389h3.041l.868-2.172Zm3.4-22.078-2.1,1.81-1.014.869,2.678,1.3Zm.072-.29.145-6.8-.724,2.244-2.534,7.239Zm-1.737-25.625,2.027,6.66-.724-7.094Zm1.3,31.127-1.3,9.627,1.52,3.04.651,1.375Zm.506-4.778-.29,2.461-.072,1.085,1.014-.8Zm.217-4.416-.145,3.619,6.876-4.2-6.587-3.041Zm.579,7.021,7.746-3.185h-8.4Zm8.035-3.33-.362-.868-1.447-3.258L260,375.035Zm-2.461-4.705-4.705-3.619-1.23.869Zm4.271,9.049-.435-1.81-.217-.869-8.687,1.81Zm-.724-2.9-.941-1.231-5.212,2.1-2.027.869Zm-2.823-5.864,1.737-3.185-6.8-.724Zm.145.073,2.1,1.375,3.691,2.172-4.054-6.732-.217.362Zm1.81,4.343,3.981-.434-5.646-3.547,1.013,2.389Zm.073-7.6,1.013,1.665,3.041,4.995-1.375-7.167Zm.941,9.049,2.9-1.665-2.751.217-1.085.145Zm6.732,2.244-6.587-2.027.652,2.679Zm.145-.145-3.547-3.764-.073-.072-3.04,1.81Zm-2.606-11.148-2.316-.507,1.375,7.384,1.3-2.823,1.665-3.836H276Zm-.8,7.167,3.113,1.448.29.145-.435-8.18-1.882,4.126Zm3.4,2.244v-.435l-1.23-.579-1.882-.869,3.257,3.475Zm.579-18.169L279.622,356l1.593-1.81L275.858,356Zm.507-6.008,2.678-4.416-3.62.941-.869,6.3ZM276,355.78l5.5-1.882-.217-1.375-.724-4.126Zm2.9,13.247.579.362-1.231-5.646-1.013-4.416-.869,8.18Zm-2.534-1.3.145,2.389.29,5.791,2.679-6.37Zm6.515,16.36-5.863-5.14-.651,7.456Zm-.072.217-6.442,2.316L276.8,394Zm-2.534,9.7-2.75.29-.724.072-.434,3.113Zm-1.158,3.113.941-2.316.289-.652-2.171,1.955-1.665,1.448Zm3.041-13.971-5.285-6.442.217,2.027Zm-5.212-6.949,4.56-.434.652-2.389,2.027-7.6-6.8,9.772Zm4.56-.289-4.56.506,5.936,7.311Zm-.941,17.807.869-4.922-4.488,5.429,2.678-.362Zm-3.33-18.242,4.343-6.153,2.461-3.62-4.343,3.909Zm4.271-13.464v-7.818l-4.126,4.633Zm-1.882,7.021,1.014-3.692.868-3.041-2.968-2.316-1.158-.941.579,2.678Zm1.882,19.4,1.231-3.692-5.067,8.325Zm2.027,4.126-4.2,4.633,5.5.434Zm-4.054,4.2,3.691-4.126-2.461,1.3Zm4.922-31.634-2.75-2.678-1.665,6.3-.145.506Zm-2.533-13.753.651-1.086.651-1.086-2.389-.869Zm1.52,40.971-1.737-3.547-.434,2.389-.435,2.389Zm-1.81-39.089.145-1.665-.869-2.534.072.724Zm1.882,4.2-1.158-2.1-.651-1.013v7.456Zm-1.52-5.791-.217,2.171,3.041-1.737-1.665-.29Zm2.9.579-3.113,1.81,1.81,3.113.651-2.461Zm-3.113,9.989,2.606,2.606-.362-3.113-.507-3.909-.651,1.665Zm0,13.609,3.185,1.81-.507-11.8-.072.29Zm1.375,7.818,1.81-5.791-2.533-1.52-.652-.362,1.231,6.877Zm-1.375,4.633,5.646-3.4,1.23-.724h-5.5Zm0,.217,1.81,3.692,5.067-7.818Zm1.593-39.162-1.3,2.1,2.823.507Zm1.737,28.521-1.81,5.863,2.968-3.33,3.764-4.343Zm5.139-1.737-6.949,7.891h5.574Zm-6.732-26.928,1.593,2.678,3.981-2.9,1.014-.724Zm.217,7.89,5.719-6.225-4.343,1.23Zm0,.29,2.751,4.633,3.185-11Zm2.678,4.85-2.678-4.416.29,2.534.579,4.488Zm0,28.811-2.678,1.375,1.3,4.923.145-.8Zm2.1-6.081-3.04,4.705-1.593,2.461,2.534-1.3,1.014-2.823Zm.869-18.749-2.9-3.836-.941,1.375-.869,1.3,3.475.869Zm-4.706-.8.145,3.62.29,8.107,1.81-8.542Zm4.778,1.014-2.316-.579-2.316-.507,1.448,2.027.8,1.086.8-.651Zm-.145,25.987-2.75-1.375-1.158,5.356-.217.941,3.113-3.692Zm-2.316-23.526-.362,1.448-1.375,6.877,3.041-5.067Zm1.448,3.475-3.185,5.285,4.995-1.81Zm.941,20.2-2.027,2.534-2.1,2.533,4.778-.506ZM285.485,351.8l4.271-1.3.434-2.1Zm4.343-.8-3.257,11.075,4.2-1.375Zm-3.257,11.292,1.014,1.3,1.954,2.606,1.158-5.284Zm0,28.593,2.751,1.375.868-6.8Zm2.389-6.66-1.52,4.2-.651,1.81,3.4-5.14Zm.579-17.663-1.086.869-1.375,1.158,3.4,2.9Zm-2.389,2.316,1.3,3.257,1.955-.434Zm1.375,3.4.579,1.086,1.158,2.171.217-3.691Zm1.737,4.561-1.3,7.167,1.3.941Z" transform="translate(-116.062 -289.175)"/>
      <path class="cls-4" d="M349.115,397.476v.072h-.072l-2.9.507h-.072l-4.561-1.014-3.908.507H333.7a.071.071,0,0,1-.072-.072l-.941-5.284v-.072l-1.447-3.33-6.732.507h-.072l-5.791-.507-5.719.507-3.4,7.239a.071.071,0,0,0-.072.072l-1.375.434H308l-4.344.507h-.145l-4.271-.217-3.836.217h-.145v-.217l1.955-7.167c0-.073,0-.073.072-.073l4.271-6.732,1.955-6.8a.071.071,0,0,1,.072-.072l3.836-5.791,1.955-7.167c0-.073-.072-.073,0-.145l2.9-4.85,1.954-10.641v-.073h.145l4.344,1.014,3.836-.507h.073l4.271.941,3.909-.941h.072v.072l.507,7.239,2.823,3.33a.071.071,0,0,1,.072.072l1.014,6.8,1.882,4.343s.072.072,0,.072c.072,0,0,0,0,.072l4.416,9.555v.073l2.389,4.343.072.073,2.9,4.777,2.171,8.252Zm-47.775-8.107-3.981.869-1.81,6.8Zm-5.791,7.963,3.619-.941,1.158-3.547,1.014-3.113L297.5,394.8Zm3.691-.724-2.968.724,2.968-.217,3.33.217Zm2.316-7.456v-5.5l-4.053,6.37Zm1.955,8.18-1.811-7.746-2.316,6.8,2.027.507Zm1.375-9.483-1.3-10.786-1.81,6.3Zm-3.112,1.23,1.158-.29,1.954-.579-3.112-4.488Zm3.112-.724-3.112.941,1.013,4.343.8,3.4Zm-1.158-11.8,1.23.941,2.461,1.81v-8.252ZM305.1,387.7l2.316-8.18-3.691-2.751,1.014,8.107Zm1.811,6.442-1.811-5.429-.361,2.389-1.014,6.3,4.126-.507Zm-1.738-5.936,3.113,1.81-.217-2.533-.652-7.456Zm3.186,2.027-3.112-1.737,2.679,8.035.361-5.429Zm1.955-19.544-.146-.941-.8-5.863-1.81,6.8Zm-.941,5.863-.869-2.606-.94-2.678v7.962Zm-1.81,2.9,3.185,3.185-1.375-5.791Zm3.185,3.475-3.185-3.185.94,9.917Zm-3.112-12.089.868,2.678.869,2.606.8-4.416.146-.869Zm4.923,18.531-3.982.869-.506,6.37Zm-1.955,3.547-2.389,3.909,1.158-.435,2.823-5.936Zm.289-9.772-2.316,6.949,2.027-.434,2.1-.507-1.665-5.429Zm-1.375-19.689,4.633,3.186-.941-3.909-.868-3.909Zm.941,7.094,3.619-3.692-1.52-1.086-3.041-2.1.435,3.475Zm-.941,5.936,3.113,3.185-1.086-4.271-1.158-4.271Zm1.375,6.153,1.811-2.678-3.113-3.113.145.8Zm-.361-11.872,4.126,4.633-.218-4.126-.217-4.2Zm1.81,6.949.579,2.027,1.737-4.126-.218-.289-3.764-4.126Zm5.936,6.949L312.85,380.1l-.941,1.375-.868,1.375Zm-7.238-1.521,1.882,6.008,5.5-.506Zm7.6,5.429.434-1.737-2.243-1.085-4.923-2.244Zm-.072-3.692-6.588-1.592,7.021,3.33Zm-4.777-26.06,2.75.579-2.1-10.424-.145-.651-1.882,10.207Zm-1.3-.145,1.665,7.384.145.506,1.086-3.33,1.23-3.62-1.375-.29Zm.507,21.137,3.547-1.3-1.23-1.954-.507-.8Zm.072.217,5.43,4.488-1.811-5.863Zm1.3-32,2.316,10.931.362-1.955,1.448-8.035Zm.435,27,1.81-4.777-2.244-3.113Zm-.362-8.107,2.244,3.113,2.244-4.054-2.244.507Zm5.864-8.18-3.475.869-2.316,6.732Zm-4.344,7.673,3.112-.652,1.376-6.8-5.936,7.746Zm3.981,5.791-3.186-1.81-1.809,5Zm-4.994,3.4,1.809,2.751,3.113-5.863Zm7.6-11-2.316,7.6-.072.072-.072.072-3.257,6.081,5.284.941,5.719-.941-2.461-9.121Zm-2.605,7.456-.289-2.389-.58-3.547-.94,1.737-1.3,2.389Zm2.316-23.019L316.9,359.4l2.679-.651.94-.217ZM316.9,378.8l1.81,5.863,2.751-2.244Zm1.81-29.824-.507,3.041-1.23,6.877,5.429-10.424Zm-1.665,29.679,4.416,3.62.507-2.751Zm2.1,7.89,1.447-2.461.651-1.23-2.461,2.026.289,1.3Zm5.646.724-5.573-.435-.435,1.81,2.316-.507Zm-5.573-21.354.94,5.863,2.244-7.167-.651.29Zm5.212,23.236.868-1.737-6.08,1.3Zm-3.837-30.258-.362,1.737-.94,5.139.507-.217,2.678-1.158-.94-2.751Zm-1.23,27.724,7.745-2.244-5.5-1.882Zm.29.145,5.719.434,1.81-2.678Zm2.895-37.859-1.809,9.555,1.158-.29,2.026-.651-.868-5.356Zm-1.809,9.772,1.809,5.429,1.3-6.37-1.014.29Zm.94,23.526,5.791-3.547-5.356.941-.145.651Zm5.646,2.027.435-5.574-5.936,3.692Zm-4.705-35.687.435,2.9.94,5.791,2.751-7.818ZM324,358.169l-.8,3.475-.579,2.751,2.678,4.488-.651-5.356Zm1.521,10.641,1.014-3.692,1.23-4.561-3.62-2.75Zm2.389-8.4,3.185-4.561-6.876,1.81Zm-.435-7.311-3.185,4.343,5.212-1.3,1.737-.506-.507-6.949Zm-.435-3.692-1.81,5.212-.868,2.389,6.225-8.469Zm3.692,39.234-5.212-1.3-.869,1.737Zm-5.14-19.4,2.678,1.521.507.29-.289-3.33-.651-6.66-.651,2.461Zm1.81,15.274-.941,1.375-.868,1.3,5.429,1.375Zm-1.737-14.767,2.1,7.963-.218-5Zm2.027,2.823.506-.651.507-.651-2.533-1.448-.435-.289Zm.289,6.153-.362,4.2-.145,1.3,7.456,1.448ZM335,385.894l-7.311-1.375,3.619,4.054Zm-6.3-14.333-.94,1.158.145,4.633.507-3.257Zm-.724-11.075,3.258,3.258v-7.818Zm0,.29.362,3.764.579,6.226.724-2.172,1.521-4.633Zm.072,17.3.8-1.52,4.56-8.832-4.487,3.62Zm.072.29,4.054-.869,1.376-9.7-.8,1.592Zm6.8,7.021-1.81-5.284-.941-2.461-1.375.289-2.679.652,3.475,3.475ZM331.309,364.1l-.725,2.316-1.52,4.56,3.4-2.678,1.158-.941Zm.072-.435,2.751-4.56-2.751-3.186Zm2.678-4.271-2.678,4.488,1.954,2.751.29.434.217-3.836Zm-.868,31.344,1.737-4.633-3.547,2.678,1.375,3.113Zm.507-22.585-.651,4.416-.651,4.922,3.112,1.81-1.086-7.167Zm1.882,11.365-3.185-1.81,2.678,7.528Zm-.868,16,1.3-2.389-1.158-.29-2.027-.579.941,4.922Zm-1.737-3.764,4.054-3.981-1.811-1.81-1.882,4.778Zm3.112,1.23.217-1.013.652-3.909L335,390.02l-2.026,2.027,2.1.652Zm-2.172-27.362-.072,1.52,1.23-1.3-.8-5.936Zm-.072,1.737,3.04,2.534-1.737-3.836Zm2.751,27.29-.435-1.375-2.316,4.126h3.619Zm-2.679-27.073,1.448,9.555.289,1.81,1.376-8.687-1.014-.869Zm1.665,13.537-.289,4.488,6.008-5.574-5.574-.435Zm5.356,4.633.435-5.5-6.008,5.5Zm-3.764,1.882,3.475-1.737h-5.284Zm0-17.083-1.375,8.832,5.573.506Zm-.941,22.368,3.619-1.3-.868-1.23-1.882-2.389-.435,2.461Zm3.692-1.158-1.014.362-2.679,1.013,1.376,4.054,1.158-2.678Zm0-.434.94-5.357-3.619,1.81Zm.289,1.375-.217-.724-1.882,4.416-.362.941,3.619-.435Zm1.3,3.909,1.3-6.3-2.679,1.375.579,2.172Zm1.3-6.442-1.23-2.9-.507-1.158-.507,3.04-.362,2.316Zm-1.3-9.627-.434,5.139,1.737-.434Zm-.361,5.356,1.737,3.909v-4.344ZM346,397.837l-.507-2.606-.651-3.836-3.185,5.5Zm-4.271-1.448,3.04-5.212-1.737-.869-.651,2.9Zm1.3-11.22.8-.869-2.026-3.619Zm0,.651v4.271l1.737.869Zm.869-1.3-.8.8,3.33,3.33Zm-.725,1.158,1.158,3.475.579,1.81,1.81-1.737Zm1.81,5.5,3.837,5.791-2.027-7.6Zm.073.362,1.158,6.3,2.678-.434Z" transform="translate(-116.062 -289.175)"/>
      <path class="cls-4" d="M406.595,387.2v.073l-.507,9.7c0,.072,0,.072-.072.072l-3.909,1.014-3.619-1.014-6.009.507h-.145v-2.027l-.507-12.161,1.014-9.917c-.072,0,0,0,0-.072l-.941-2.678-3.257,4.85a.071.071,0,0,1-.072.072v.073l-1.665,4.343-4.851,5.574-.072.072h-2.172c-.072,0-.072-.072-.145-.072v-.072l-3.33-3.041-.072-.072-4.271-4.777-.072-.073-2.968-5.718-1.3-2.1-.146,1.014.724,1.23-.506,5.067v.072l-.507,6.732,2.461,9.193.217,4.416a.071.071,0,0,1-.072.072h-1.954l-6.008.507h-.146l-2.389-1.014-4.777,1.014h-.072l-.072-.072.072-8.759-.507-2.9-.507-5.864,1.448-5.863-1.448-14.55.507-9.7v-.072l3.836-1.448h.218l3.547.941,6.008-.941h.146l2.389,2.389.072.072-.072.073,2.461,4.705v.072l2.9,3.113,4.777,8.4,1.665-2.534a.071.071,0,0,1,.072-.072l.869-.651,2.461-5.646.941-.434,2.9-6.515a.071.071,0,0,1,.072-.072l2.968-3.4,6.08.507h.072l2.316.941,4.778-.941c.072,0,.072-.072.072,0,.072-.072.072,0,.072,0,.072.072.072.072,0,.072v5.284l.507,3.4v4.488l-.941,5.719,1.955,9.266-1.955,7.238Zm-48.862-38.076-3.619,1.3-.435,9.048Zm.579,14.188-.507-13.826-4.126,10.569Zm-3.257,10.858,3.257-10.641-1.81-1.3-2.823-1.954Zm5.066,9.989-2.533-4.633-2.533-4.633-1.376,5.5Zm-4.487,1.52,4.487-1.375-6.442-3.691.435,5.574Zm2.533.435,1.737-1.52-5.791,1.81.507,2.606Zm-.362,6.008-3.185-2.679v8.18Zm-3.112-2.9,3.186,2.75,1.665-5.429.651-1.882-2.316,1.882Zm3.186,3.185-3.186,5.429,4.561-.941Zm2.389-8.4V369.968l-5.14,4.705Zm0-14.333-1.086-3.4-.8-2.533L355.2,374.384l.869-.8Zm-1.81-7.021.361-2.1,1.23-6.3-2.026-4.778.145,4.561Zm-.435,29.389,3.619-.506-1.3-6.877-1.014,3.185Zm3.619-.29-3.619.435,1.375,4.561Zm-1.521-37.786,1.3-4.054-3.33-.941Zm.218,15.418,2.679-14.116-4.488,8.18ZM358.6,362.8l4.488-8.035-2.9-.434Zm3.112,35.036v-5.791l-.8,1.665-1.448,3.257Zm-1.447-43.722,2.9.507-1.521-4.271-.072-.217-.651,1.955ZM362.221,378l-1.158-4.85-.651-2.678v13.319Zm.651-2.9.8-3.113-3.186-2.027,1.81,7.673Zm-2.389,9.338,1.086,5.357.29,1.375,1.52-4.416.724-2.316Zm2.9-29.679-1.882,9.411-.941,4.995,9.266-17.663Zm4.2,5.574-7.021,9.338,7.021-.217Zm-5.212,17.807-1.81,5.864,6.8-6.8-1.158.217Zm4.923-.579-6.732,6.66h3.62Zm-6.66-7.746,3.113,2.027,3.619-2.244Zm9.121-17.735-8.831,16.794,6.659-8.9Zm-8.107-2.171.507,1.52,1.158,3.113,2.027-2.823,2.1-2.751Zm2.027,42.854.94-2.389-2.678,1.3v.724l-.072,5.067Zm.507-7.963L362,391.4l2.605-1.3Zm3.619,12.6-.145-1.665-.58-4.777-2.533,3.4L362,397.837Zm-.869-6.66-2.172-.435-2.678,7.094,1.086-1.448Zm.507-13.754-3.619-4.85-1.376,5.791,2.534-.506Zm-3.909-22.512,6.37-3.186-2.243-2.316Zm.435,17.59,3.692,4.705.361-4.705Zm.362,12.378.434,5.284L367,383.939l-1.81.362Zm.072-12.812,2.9-.941.217-1.014Zm2.968-.8-2.968,1.014h3.547Zm-2.172,11.727-.8,1.665,1.81-.29.868-.145.435-6.226Zm-.289,7.528,2.171.435V384.3l-.506,1.448Zm2.316.507,2.171,2.244-2.171-8.325Zm.072.651.651,6.153h1.737Zm2.244,1.882-2.1-2.027,2.244,5.719Zm-1.81-24.1,4.561-12.6-4.561,3.692Zm2.389-17.518-2.316,8.252,4.561-3.62Zm2.75,17.446-5.066.651,1.23,2.027Zm-.506-12.161-3.33,9.193-1.158,3.113,4.271-4.922Zm.8,11.944-.941-4.343-2.389,2.823-1.882,2.171Zm-.724,4.995.651-4.705-3.981,2.823,2.823,5.356Zm.868-4.488-1.086,7.963,2.823-2.823Zm2.679,6.443-.8-1.158L372.21,377.5l5.43.434Zm.361,6.587,1.3-4.126-5.43-.506ZM372.5,359.617l-.145,4.271,2.968-4.561-2.751-2.968Zm-.072,4.561,7.6,3.4-4.633-8.107Zm2.823,4.778-1.448-2.316-1.375-2.027.434,2.172.435,1.955.651.072Zm-2.679-4.561,2.968,4.561,4.416-1.158Zm2.533,9.555.218-4.126.072-.724-2.027-.145Zm.435-4.706-.217,3.765-.072,1.3,7.094.724Zm-.145,5.212,2.533,3.4,4.488-2.678Zm4.777-6.515-1.447.362-3.041.8,6.877,5.719Zm-2.316,10.424-.724,1.955-.651,2.027,3.112,2.968Zm4.705-3.04-4.633,2.75,1.593,6.225.217.8,2.389-8.325Zm-.651,10.134.651-9.482-.94,3.4-1.665,6.08Zm-1.52-17.59,1.52,4.633.651,1.882-.651-8.976Zm1.664-2.606.218,2.678.507,6.8.434-1.231,2.751-7.311-2.605-.651Zm.725,10.062-.362,4.271-.362,5.719,4.633-5.356Zm2.533-9.483.217.072-.217-.145-2.389-1.23-.724.579Zm-2.389,8.9,2.823-2.823.217-5.212Zm0,.434,3.836,4.561.146-3.547.072-2.389Zm.145-10.786,2.9,1.592-.651-6.8Zm2.751,7.673-2.751,2.823,3.765-1.3-.29-.507Zm-.362-13.174.579,5.791.218-5.864v-.362Zm6.226,8.976-5.5-1.593-.073,1.3-.145,4.2,2.9-1.955ZM385.964,372l.579.724.507.8,4.416-5.284Zm.218-6.515,2.678-7.673-2.461.651Zm0,.579,1.882.579,3.691,1.013L389,357.879l-.217.579Zm.289-7.891,2.461-.651.145-5.212Zm1.882,17.518-1.23-1.737-.072,1.592-.145,3.837Zm3.258-4.85-4.416,2.823.651.869.652.941Zm.217-2.751-4.343,5.212,4.343-2.823Zm-2.461-15.853-.29,5.212,1.738-1.014.434-.29-1.014-2.027Zm.29,6.225,1.664,2.244v-4.416l-2.171,1.375Zm-.435-.362,2.533,8.9v-.579l-.435-5.357v-.072Zm.145-6.3,3.837,3.185L392.7,351.8l-.579-3.185Zm2.1,4.2,1.737-.8-3.692-3.04.941,1.882Zm.072.217v4.271l1.665-5.067-.8.362ZM391.973,367l1.3-6.3-1.737.434Zm1.447-11.655-1.737,5.285,3.475-4.416Zm-1.665,5.5,1.521-.362,1.665-3.619Zm1.158,12.306,1.014-1.448L397.039,367l-2.172.362-2.822.579Zm-.435-1.882-.434-2.244v1.448l.579,1.882Zm2.244,13.826-.8-4.633-1.014-6.37-.868,9.266Zm-2.026,9.048,2.026-8.759-1.737-1.23-.94-.651.434,11.437Zm6.3-33.515h-5.5l-1.375,6.876Zm-6.732-12.161.362,2.171.8,4.343,2.316-3.04,2.316-2.968Zm4.922,18.314.725-2.172,1.086-3.691-6.732,6.732,3.909-.651Zm-2.605,29.172,1.737-1.231-3.837.869v1.737Zm2.1-1.52,1.3-10.352-5.43,11.292,1.665-.362Zm-3.909.145,2.823-5.791,2.461-5.212-3.112,1.81Zm5.573,2.316-.506-.8-1.014-1.448-3.981,2.679Zm-3.4-11.727,3.185-1.81-5.067-9.483.579,3.475ZM393.2,373.153l7.311-4.343L397.329,367Zm10.278,2.027L393.2,373.588l8.4,8.614Zm1.448-7.167-11.654,5.357,10.206,1.665Zm-6.66,15.274,1.014-.29,2.172-.651-8.18-8.47,1.737,3.258ZM393.492,355.2l1.737.8,1.23-2.9,1.376-3.547-3.113,4.054Zm.145,5.212,7.384-1.882-1.086-1.448-1.737-2.244-1.158,1.375Zm.072-.362,4.2-5.067-2.534,1.3Zm.362.434h5.067l1.737-1.737Zm6.66,8.4-6.3,3.692,9.627-4.416-1.954.434Zm-2.606-19.472L395.447,356l2.678-1.375Zm-1.158,44.808,4.561-4.995-3.186-5.5Zm1.521,2.606.651-.869.651-.869-1.158-.145-1.665-.29,1.014,1.448Zm1.447-1.882.579-2.171.941-3.185-.8.869-3.619,3.981Zm-.724-34.022-1.81,5.863,2.533,1.52.651.362Zm-.869-11.944v5.285l1.086-2.1,1.086-2.244Zm3.692,4.416-3.692,1.375.941,1.231,1.81,2.389.579-2.968Zm-.579,29.172-2.1.579-1.014.29,3.113,5.356Zm-.8-32.5-2.171,4.488,3.547-1.375Zm-.072,45.966-.651-.869-1.3,1.737,3.258.941Zm-1.23-35.108,1.376,7.745,2.1-.434,2.027-.507-1.3-1.665Zm.072-.217,2.172,2.75,3.4,4.2.941-5.574Zm.146-.217,6.37,1.375v-4.126Zm1.665-1.81-1.521,1.52,2.679-1.085,3.547-1.593-.507-3.113Zm.8,39.017-.507-7.818-.289.941-1.231,4.2Zm-.218-45.243.29.652,1.086-1.375,2.1-2.751-4.487.941Zm.362.941-.868,4.922,4.054-4.054-1.158-.29Zm2.679,30.765-1.3-8.542-1.811,6.732Zm.072.217-3.186-1.81v6.37Zm1.447,3.04-4.633,1.882.072,1.375.362,6.877.869-2.1Zm-1.375-2.9-3.112,4.488,4.487-1.81Zm-2.751-31.344,2.1.651,1.086.29v-4.995l-1.23,1.448Zm2.462,38.583-2.462,6.081,3.692-.941.434-9.121Zm.361-23.526-1.375,6.877,3.185,1.81Zm-.724,7.383-.651-.362,1.375,8.614,1.81-6.732Z" transform="translate(-116.062 -289.175)"/>
    </g>
    <g>
      <path class="cls-5" d="M204.11,422.636h-.354l-6.169-8.952v8.952h-.361V413.08h.361l6.169,8.932V413.08h.354Z" transform="translate(-116.062 -289.175)"/>
      <path class="cls-5" d="M213.359,417.9h-4.791v4.384h5.46v.354h-5.815V413.08h5.815v.354h-5.46v4.108h4.791Z" transform="translate(-116.062 -289.175)"/>
      <path class="cls-5" d="M219.242,422.045l.433-1.576,2.257-7.39h.394l2.245,7.39.426,1.576.446-1.576,1.969-7.39h.387l-2.573,9.556h-.4l-2.369-7.968-.335-1.011-.321,1.011-2.389,7.968h-.4l-2.579-9.556h.394l1.982,7.39Z" transform="translate(-116.062 -289.175)"/>
      <path class="cls-5" d="M236.721,420.345a1.806,1.806,0,0,0-.286-1.034,2.416,2.416,0,0,0-.9-.748,9.673,9.673,0,0,0-1.854-.666,8.721,8.721,0,0,1-1.861-.689,2.46,2.46,0,0,1-.909-.807,2.056,2.056,0,0,1-.289-1.116,2,2,0,0,1,.879-1.69,3.775,3.775,0,0,1,2.291-.646,3.705,3.705,0,0,1,1.65.358,2.682,2.682,0,0,1,1.132,1,2.721,2.721,0,0,1,.4,1.46h-.354a2.264,2.264,0,0,0-.788-1.769,2.961,2.961,0,0,0-2.041-.7,3.4,3.4,0,0,0-2.038.561,1.707,1.707,0,0,0-.1,2.792,6.388,6.388,0,0,0,2.231.929,6.87,6.87,0,0,1,2.277.936,2.135,2.135,0,0,1,.919,1.811,2.1,2.1,0,0,1-.407,1.276,2.592,2.592,0,0,1-1.155.857,4.459,4.459,0,0,1-1.68.3,4.79,4.79,0,0,1-1.864-.345,2.65,2.65,0,0,1-1.244-.981,2.681,2.681,0,0,1-.417-1.5h.354a2.136,2.136,0,0,0,.879,1.824,3.76,3.76,0,0,0,2.291.65,3.5,3.5,0,0,0,2.067-.574A1.753,1.753,0,0,0,236.721,420.345Z" transform="translate(-116.062 -289.175)"/>
      <path class="cls-5" d="M246.575,417.372a5.92,5.92,0,0,1-.83-1.273,2.73,2.73,0,0,1-.253-1.123,2,2,0,0,1,.555-1.479,1.956,1.956,0,0,1,1.447-.555,1.806,1.806,0,0,1,1.316.482,1.668,1.668,0,0,1,.5,1.25,2.737,2.737,0,0,1-1.233,1.917l-1.024.814,3.117,3.537a4.092,4.092,0,0,0,.755-2.455h.361a4.456,4.456,0,0,1-.873,2.73l1.247,1.418h-.439l-1.03-1.156a3.882,3.882,0,0,1-2.776,1.287,3.083,3.083,0,0,1-2.083-.659,2.234,2.234,0,0,1-.765-1.782,2.471,2.471,0,0,1,.371-1.27,6.06,6.06,0,0,1,1.31-1.421Zm.833,5.041a3.207,3.207,0,0,0,1.388-.312,3.494,3.494,0,0,0,1.158-.89l-3.17-3.59-.341.269a6.169,6.169,0,0,0-1.152,1.253,2.16,2.16,0,0,0-.377,1.182,1.885,1.885,0,0,0,.679,1.509A2.706,2.706,0,0,0,247.409,422.412Zm-1.555-7.449a3.493,3.493,0,0,0,.984,2.2l1.148-.912a2.162,2.162,0,0,0,.952-1.575,1.313,1.313,0,0,0-.4-.991,1.44,1.44,0,0,0-1.04-.387,1.585,1.585,0,0,0-1.191.462A1.655,1.655,0,0,0,245.854,414.963Z" transform="translate(-116.062 -289.175)"/>
      <path class="cls-5" d="M265.572,413.434h-3.478v9.2h-.354v-9.2h-3.479v-.354h7.311Z" transform="translate(-116.062 -289.175)"/>
      <path class="cls-5" d="M273.87,417.9h-4.791v4.384h5.46v.354h-5.815V413.08h5.815v.354h-5.46v4.108h4.791Z" transform="translate(-116.062 -289.175)"/>
      <path class="cls-5" d="M284.353,419.708a3.332,3.332,0,0,1-1.018,2.268,3.44,3.44,0,0,1-2.389.791,3.213,3.213,0,0,1-1.8-.515,3.383,3.383,0,0,1-1.217-1.464,5.238,5.238,0,0,1-.44-2.169v-1.477a5.331,5.331,0,0,1,.427-2.182,3.378,3.378,0,0,1,1.217-1.487,3.209,3.209,0,0,1,1.815-.525,3.456,3.456,0,0,1,2.382.788,3.3,3.3,0,0,1,1.024,2.258H284a3.036,3.036,0,0,0-.919-2,3.088,3.088,0,0,0-2.133-.686,2.761,2.761,0,0,0-2.248,1.05,4.32,4.32,0,0,0-.856,2.815v1.4a4.94,4.94,0,0,0,.381,2,3.092,3.092,0,0,0,1.093,1.355,2.818,2.818,0,0,0,1.631.486,3.139,3.139,0,0,0,2.143-.676,2.98,2.98,0,0,0,.909-2.028Z" transform="translate(-116.062 -289.175)"/>
      <path class="cls-5" d="M294.855,422.636H294.5V417.9h-6.1v4.739h-.354V413.08h.354v4.463h6.1V413.08h.354Z" transform="translate(-116.062 -289.175)"/>
      <path class="cls-5" d="M305.844,422.636h-.354l-6.17-8.952v8.952h-.361V413.08h.361l6.17,8.932V413.08h.354Z" transform="translate(-116.062 -289.175)"/>
      <path class="cls-5" d="M310.563,422.636h-.354V413.08h.354Z" transform="translate(-116.062 -289.175)"/>
      <path class="cls-5" d="M321.428,419.708a3.334,3.334,0,0,1-1.018,2.268,3.441,3.441,0,0,1-2.389.791,3.21,3.21,0,0,1-1.8-.515A3.384,3.384,0,0,1,315,420.788a5.238,5.238,0,0,1-.439-2.169v-1.477a5.331,5.331,0,0,1,.427-2.182,3.377,3.377,0,0,1,1.217-1.487,3.211,3.211,0,0,1,1.815-.525,3.455,3.455,0,0,1,2.382.788,3.3,3.3,0,0,1,1.024,2.258h-.354a3.038,3.038,0,0,0-.919-2,3.088,3.088,0,0,0-2.133-.686,2.761,2.761,0,0,0-2.248,1.05,4.318,4.318,0,0,0-.856,2.815v1.4a4.94,4.94,0,0,0,.381,2,3.085,3.085,0,0,0,1.093,1.355,2.817,2.817,0,0,0,1.631.486,3.141,3.141,0,0,0,2.143-.676,2.982,2.982,0,0,0,.909-2.028Z" transform="translate(-116.062 -289.175)"/>
      <path class="cls-5" d="M330.151,419.78h-4.68l-1.062,2.855h-.388l3.577-9.556h.433l3.577,9.556h-.388Zm-4.548-.354h4.417l-2.206-5.919Z" transform="translate(-116.062 -289.175)"/>
      <path class="cls-5" d="M334.983,422.281h4.9v.354h-5.264V413.08h.361Z" transform="translate(-116.062 -289.175)"/>
      <path class="cls-5" d="M353.455,420.345a1.805,1.805,0,0,0-.285-1.034,2.414,2.414,0,0,0-.9-.748,9.654,9.654,0,0,0-1.854-.666,8.7,8.7,0,0,1-1.86-.689,2.453,2.453,0,0,1-.909-.807,2.056,2.056,0,0,1-.289-1.116,2,2,0,0,1,.88-1.69,3.773,3.773,0,0,1,2.29-.646,3.7,3.7,0,0,1,1.65.358,2.675,2.675,0,0,1,1.132,1,2.712,2.712,0,0,1,.4,1.46h-.354a2.263,2.263,0,0,0-.788-1.769,2.961,2.961,0,0,0-2.041-.7,3.407,3.407,0,0,0-2.038.561,1.707,1.707,0,0,0-.1,2.792,6.388,6.388,0,0,0,2.231.929,6.87,6.87,0,0,1,2.277.936,2.137,2.137,0,0,1,.919,1.811,2.1,2.1,0,0,1-.407,1.276,2.589,2.589,0,0,1-1.155.857,4.453,4.453,0,0,1-1.68.3,4.8,4.8,0,0,1-1.864-.345,2.649,2.649,0,0,1-1.243-.981,2.678,2.678,0,0,1-.417-1.5h.354a2.135,2.135,0,0,0,.88,1.824,3.758,3.758,0,0,0,2.29.65,3.5,3.5,0,0,0,2.067-.574A1.754,1.754,0,0,0,353.455,420.345Z" transform="translate(-116.062 -289.175)"/>
      <path class="cls-5" d="M362.3,417.9h-4.791v4.384h5.46v.354h-5.814V413.08h5.814v.354h-5.46v4.108H362.3Z" transform="translate(-116.062 -289.175)"/>
      <path class="cls-5" d="M369.926,418.546h-3.314v4.089h-.354V413.08H369.3a3.355,3.355,0,0,1,2.287.742,2.537,2.537,0,0,1,.85,2.015,2.635,2.635,0,0,1-2.152,2.619l2.553,4.089v.092h-.374Zm-3.314-.354h3.013a2.43,2.43,0,0,0,1.782-.669,2.272,2.272,0,0,0,.679-1.687,2.193,2.193,0,0,0-.751-1.759,3.063,3.063,0,0,0-2.058-.643h-2.665Z" transform="translate(-116.062 -289.175)"/>
      <path class="cls-5" d="M378.951,421.7l.19.578.19-.578,3.209-8.624h.388l-3.57,9.556h-.434l-3.57-9.556h.388Z" transform="translate(-116.062 -289.175)"/>
      <path class="cls-5" d="M386.56,422.636h-.354V413.08h.354Z" transform="translate(-116.062 -289.175)"/>
      <path class="cls-5" d="M397.423,419.708a3.333,3.333,0,0,1-1.017,2.268,3.442,3.442,0,0,1-2.39.791,3.209,3.209,0,0,1-1.8-.515A3.384,3.384,0,0,1,391,420.788a5.222,5.222,0,0,1-.439-2.169v-1.477a5.315,5.315,0,0,1,.427-2.182,3.371,3.371,0,0,1,1.217-1.487,3.208,3.208,0,0,1,1.814-.525,3.456,3.456,0,0,1,2.383.788,3.3,3.3,0,0,1,1.023,2.258h-.354a3.037,3.037,0,0,0-.918-2,3.092,3.092,0,0,0-2.134-.686,2.759,2.759,0,0,0-2.247,1.05,4.318,4.318,0,0,0-.856,2.815v1.4a4.956,4.956,0,0,0,.38,2,3.1,3.1,0,0,0,1.093,1.355,2.819,2.819,0,0,0,1.631.486,3.142,3.142,0,0,0,2.144-.676,2.981,2.981,0,0,0,.908-2.028Z" transform="translate(-116.062 -289.175)"/>
      <path class="cls-5" d="M406.259,417.9h-4.791v4.384h5.46v.354h-5.814V413.08h5.814v.354h-5.46v4.108h4.791Z" transform="translate(-116.062 -289.175)"/>
    </g>
  </g>
</svg>
