<?xml version="1.0" encoding="utf-8"?>
<!-- Generator: Adobe Illustrator 22.1.0, SVG Export Plug-In . SVG Version: 6.00 Build 0)  -->
<svg version="1.1" id="Layer_1" xmlns="http://www.w3.org/2000/svg" xmlns:xlink="http://www.w3.org/1999/xlink" x="0px" y="0px"
	 viewBox="0 0 283.5 283.5" style="enable-background:new 0 0 283.5 283.5;" xml:space="preserve">
<style type="text/css">
	.st0{fill:#F6BB42;}
	.st1{fill:#FFCE54;}
	.st2{fill:#E8AA3D;}
</style>
<g>
	<polygon class="st0" points="193.9,97.8 154.2,87.8 20.5,146.3 0,187.3 69.6,207.3 213.8,143.2 	"/>
	<polygon class="st1" points="193.9,97.8 59.7,157.5 69.6,207.3 213.8,143.2 	"/>
	<polygon class="st2" points="59.7,157.5 20.5,146.3 0,187.3 69.6,207.3 	"/>
	<polygon class="st0" points="263.6,117.8 223.8,107.8 90.1,166.3 69.6,207.3 139.3,227.3 283.5,163.2 	"/>
	<polygon class="st1" points="263.6,117.8 129.3,177.4 139.3,227.3 283.5,163.2 	"/>
	<polygon class="st2" points="129.3,177.4 90.1,166.3 69.6,207.3 139.3,227.3 	"/>
	<polygon class="st0" points="219.5,66.1 179.7,56.2 57.5,109.9 37,150.9 106.7,170.9 239.4,111.5 	"/>
	<polygon class="st1" points="219.5,66.1 96.7,121.1 106.7,170.9 239.4,111.5 	"/>
	<polygon class="st2" points="96.7,121.1 57.5,109.9 37,150.9 106.7,170.9 	"/>
</g>
</svg>
