<?xml version="1.0" encoding="utf-8"?>
<!-- Generator: Adobe Illustrator 22.1.0, SVG Export Plug-In . SVG Version: 6.00 Build 0)  -->
<svg version="1.1" id="Layer_1" xmlns="http://www.w3.org/2000/svg" xmlns:xlink="http://www.w3.org/1999/xlink" x="0px" y="0px"
	 viewBox="0 0 283.5 283.5" style="enable-background:new 0 0 283.5 283.5;" xml:space="preserve">
<style type="text/css">
	.st0{fill:#61BF2C;}
	.st1{fill:#E54035;}
	.st2{fill:#FFCE54;}
</style>
<g>
	<g>
		<path class="st0" d="M209.6,94.4l24,24C248,132.7,248,154,248,154l3.8-6.4c6.3-10.5,11.1-23.2,10.3-33.6
			c-1.3-17-12-30.1-18.5-36.5l-8.5-8.5l17-17l-61.5-2.2l2.2,61.4L209.6,94.4z"/>
		<path class="st1" d="M73.8,189.5l-24-24C35.5,151.2,35.5,130,35.5,130l-3.8,6.4c-6.3,10.5-11.1,23.2-10.3,33.6
			c1.3,17,12,30.1,18.5,36.6l8.5,8.5l-17,17l61.5,2.2l-2.2-61.4L73.8,189.5z"/>
		<path class="st2" d="M99.8,0C61.7,0,30.7,30.9,30.7,69.1c0,38.2,30.9,69.1,69.1,69.1c38.2,0,69.1-30.9,69.1-69.1
			C168.9,30.9,138,0,99.8,0z M127.7,108.3c-1.1,0.5-2.4,0.9-3.9,1.3c-1.5,0.4-3.1,0.7-4.7,1c-1.6,0.3-3.3,0.4-5,0.6
			c-1.7,0.1-3.4,0.2-4.9,0.2c-21.1,0-33.9-8.4-38.5-25.1h-9.9V73.9h8c-0.1-0.7-0.1-1.4-0.1-2.1c0-0.7,0-1.4,0-2.1
			c0-1.6,0.1-3.2,0.2-4.7h-8V52.7h10.1c2.5-8.6,7.1-15.2,13.5-19.8c6.5-4.6,14.8-6.9,24.9-6.9c1.5,0,3.1,0.1,4.9,0.2
			c1.7,0.2,3.3,0.4,4.9,0.6c1.6,0.3,3.1,0.6,4.4,1c1.4,0.4,2.5,0.8,3.4,1.2v15.3c-2.3-0.8-5-1.5-7.9-2.1c-2.9-0.6-5.8-0.8-8.6-0.8
			c-10.1,0-16.9,3.8-20.4,11.3h25.8V65H87.2c-0.2,1.4-0.2,2.8-0.2,4.4c0,0.8,0,1.7,0.1,2.5c0.1,0.9,0.1,1.6,0.2,2.1h22.9v12.3H89.8
			c1.7,3.5,4.2,5.9,7.6,7.5c3.4,1.5,7.8,2.3,13.3,2.3c1.3,0,2.7-0.1,4.2-0.2c1.5-0.2,3-0.4,4.6-0.6c1.5-0.3,3-0.6,4.4-0.9
			c1.4-0.4,2.7-0.7,3.8-1.1L127.7,108.3L127.7,108.3L127.7,108.3z"/>
		<path class="st2" d="M185.3,144.3c-38.4,0-69.6,31.1-69.6,69.6c0,38.4,31.1,69.6,69.6,69.6s69.6-31.1,69.6-69.6
			C254.8,175.5,223.7,144.3,185.3,144.3z M222.4,225.6c-1.4,5.1-3.6,9.8-6.7,14.2c-2.6,3.7-5.7,7-9.3,9.7c-3.6,2.7-7.5,4.9-11.7,6.5
			c-2.6,1-5.3,1.7-8,2.1c-1.6,0.2-3.2,0.5-4.8,0.7c-4.5,0-9.1,0-13.6,0c-1.1-0.5-1.5-1.4-1.5-2.7c0-12.4,0-24.9,0-37.3
			c0-0.3,0-0.6-0.1-1c-0.3,0-0.4,0.1-0.6,0.1c-3,0.9-6,1.8-9,2.8c-1.3,0.4-2.6,0.8-4,1.2c-1.5,0.4-2.7-0.4-2.7-1.9
			c0-2.7,0-5.4,0-8.1c0-1,0.5-1.7,1.5-2c1.7-0.5,3.5-1.1,5.2-1.6c2.9-0.9,5.9-1.8,8.8-2.7c0.6-0.2,0.8-0.5,0.7-1.1
			c0-1.4,0-2.8,0-4.2c0-0.3,0-0.5,0-0.8c-0.2,0.1-0.4,0.1-0.6,0.1c-4.3,1.3-8.5,2.6-12.8,3.9c-1.8,0.5-3-0.3-3-2.2
			c0-2.4,0-4.9,0-7.3c0-1.6,0.3-2.1,1.8-2.6c4.6-1.4,9.1-2.8,13.7-4.2c0.6-0.2,0.8-0.5,0.8-1.1c0-4.8,0-9.7,0-14.5
			c0-1.2,0.3-2.1,1.5-2.7c3.8,0,7.6,0,11.3,0c1.1,0.5,1.5,1.4,1.5,2.6c0,3.4,0,6.8,0,10.1c0,0.3,0,0.5,0,0.9c1.1-0.3,2.1-0.7,3.1-1
			c4.8-1.5,9.6-2.9,14.3-4.4c2.2-0.7,4.3-1.4,6.5-2c1.4-0.4,2.6,0.4,2.6,1.8c0.1,2.8,0,5.6,0,8.4c0,0.9-0.5,1.5-1.4,1.8
			c-0.9,0.3-1.7,0.6-2.6,0.8c-5.1,1.6-10.3,3.2-15.4,4.8c-2.4,0.7-4.7,1.5-7.1,2.2c0,2,0,3.9,0,5.9c0.3-0.1,0.5-0.1,0.7-0.2
			c3.6-1.1,7.3-2.2,10.9-3.4c4-1.2,8-2.5,12.1-3.7c1.7-0.5,2.9,0.4,2.9,2.2c0,2.5,0,5,0,7.5c0,1.4-0.4,2-1.8,2.4
			c-2.1,0.7-4.2,1.3-6.2,1.9c-5.9,1.8-11.8,3.7-17.7,5.4c-0.7,0.2-0.9,0.5-0.9,1.2c0,9.8,0,19.6,0,29.4c0,0.2,0,0.5,0,0.8
			c1-0.1,1.9-0.1,2.7-0.3c1.5-0.3,3-0.6,4.5-1.1c4.1-1.2,7.7-3.3,10.8-6.1c2.6-2.3,4.8-4.9,6.6-8c1.7-3,2.9-6.1,3.5-9.5
			c0.3-1.9,0.4-3.9,0.6-5.8c0.1-1.3,0.8-1.9,2-1.9c3.4,0,6.8,0,10.1,0c1.3,0,2.1,0.8,2.1,2.2C223.9,218,223.4,221.8,222.4,225.6z"/>
	</g>
</g>
</svg>
