<?xml version="1.0" encoding="utf-8"?>
<!-- Generator: Adobe Illustrator 22.1.0, SVG Export Plug-In . SVG Version: 6.00 Build 0)  -->
<svg version="1.1" id="Layer_1" xmlns="http://www.w3.org/2000/svg" xmlns:xlink="http://www.w3.org/1999/xlink" x="0px" y="0px"
	 viewBox="0 0 283.5 283.5" style="enable-background:new 0 0 283.5 283.5;" xml:space="preserve">
<style type="text/css">
	.st0{fill:#61BF2C;}
	.st1{fill:#E54035;}
	.st2{fill:#FFCE54;}
</style>
<g>
	<g>
		<path class="st0" d="M209.8,94.5l24,24c14.4,14.4,14.4,35.7,14.4,35.7l3.8-6.4c6.3-10.6,11.1-23.2,10.3-33.6
			c-1.3-17-12.1-30.2-18.5-36.6l-8.6-8.5l17-17l-61.6-2.2l2.2,61.6L209.8,94.5z"/>
		<path class="st1" d="M73.7,189.9l-24-24c-14.4-14.4-14.4-35.7-14.4-35.7l-3.8,6.4c-6.3,10.5-11.1,23.2-10.3,33.6
			c1.3,17.1,12.1,30.2,18.5,36.6l8.5,8.6l-17,17l61.6,2.2L90.6,173L73.7,189.9z"/>
		<g>
			<path class="st2" d="M169.5,198.4c0,2.1,0.8,3.8,2.5,4.9c1.6,1.1,4.1,2,7.4,2.6v-14.7c-3.7,0.4-6.3,1.2-7.7,2.5
				C170.2,194.9,169.5,196.5,169.5,198.4z"/>
			<path class="st2" d="M198.8,225.3c-1.6-1.1-3.9-1.9-7.2-2.5v14.4c6.3-0.8,9.5-3.2,9.5-7C201.1,228,200.3,226.4,198.8,225.3z"/>
			<path class="st2" d="M254.6,214.2c0-38.2-31-69.2-69.2-69.2c-38.2,0-69.2,31-69.2,69.2c0,38.2,31,69.2,69.2,69.2
				C223.6,283.5,254.6,252.5,254.6,214.2z M211.1,245.3c-4.6,3.7-11.1,6.1-19.5,7v7.9h-12.2v-7.5c-5-0.2-9.7-0.6-14.1-1.3
				c-4.4-0.7-8.1-1.8-11-3.1v-15c2,0.7,3.9,1.3,5.8,1.9c1.9,0.5,3.8,1,5.8,1.4c2,0.4,4.1,0.7,6.3,0.9c2.2,0.2,4.6,0.4,7.2,0.4V221
				c-3.2-0.5-6.4-1.1-9.6-1.9c-3.2-0.8-6-2-8.5-3.6c-2.5-1.6-4.6-3.7-6.2-6.3c-1.6-2.6-2.4-6-2.4-10.1c0-3.4,0.6-6.4,1.8-9
				c1.2-2.6,3-4.9,5.3-6.8c2.3-1.9,5.1-3.5,8.4-4.6c3.3-1.2,7-2,11.1-2.4v-7.9h12.2v7.7c3.7,0.2,7.5,0.6,11.4,1.3
				c3.9,0.6,7.4,1.5,10.6,2.6v15.2c-7.9-2.6-15.2-4-22-4.3v17c3.2,0.5,6.4,1.2,9.5,2c3.1,0.8,5.9,2.1,8.4,3.7c2.5,1.6,4.5,3.7,6,6.3
				c1.6,2.6,2.3,6,2.3,10C217.9,236.4,215.7,241.5,211.1,245.3z"/>
		</g>
		<path class="st2" d="M99.8,0C61.5,0,30.5,31,30.5,69.2c0,38.2,31,69.2,69.2,69.2c38.2,0,69.2-31,69.2-69.2C169,31,138,0,99.8,0z
			 M127.7,108.5c-1.1,0.5-2.4,0.9-3.9,1.3c-1.5,0.4-3.1,0.7-4.7,1c-1.6,0.3-3.3,0.4-5,0.6c-1.7,0.1-3.4,0.2-4.9,0.2
			c-21.1,0-34-8.4-38.6-25.1h-9.9V74h8c-0.1-0.7-0.1-1.4-0.1-2.1c0-0.7,0-1.4,0-2.1c0-1.6,0.1-3.2,0.2-4.7h-8V52.7h10.1
			c2.5-8.6,7.1-15.2,13.6-19.8c6.5-4.6,14.8-6.9,25-6.9c1.5,0,3.2,0.1,4.9,0.2c1.7,0.2,3.4,0.4,4.9,0.6c1.6,0.3,3.1,0.6,4.4,1
			c1.4,0.4,2.5,0.8,3.4,1.2v15.3c-2.3-0.8-5-1.5-7.9-2.1c-2.9-0.6-5.8-0.8-8.7-0.8c-10.1,0-16.9,3.8-20.5,11.3h25.9v12.3H87.1
			c-0.2,1.4-0.2,2.8-0.2,4.4c0,0.8,0,1.7,0.1,2.5c0.1,0.9,0.1,1.6,0.2,2.1h23v12.3H89.7c1.7,3.5,4.2,6,7.6,7.5
			c3.4,1.5,7.8,2.3,13.3,2.3c1.3,0,2.7-0.1,4.2-0.2c1.5-0.2,3-0.4,4.6-0.6c1.5-0.3,3-0.6,4.4-0.9c1.4-0.4,2.7-0.7,3.8-1.1
			L127.7,108.5L127.7,108.5L127.7,108.5z"/>
	</g>
</g>
</svg>
