<?xml version="1.0" encoding="utf-8"?>
<!-- Generator: Adobe Illustrator 22.1.0, SVG Export Plug-In . SVG Version: 6.00 Build 0)  -->
<svg version="1.1" id="Layer_1" xmlns="http://www.w3.org/2000/svg" xmlns:xlink="http://www.w3.org/1999/xlink" x="0px" y="0px"
	 viewBox="0 0 238.2 284.9" style="enable-background:new 0 0 238.2 284.9;" xml:space="preserve">
<style type="text/css">
	.st0{fill:#FFCE54;}
	.st1{fill:#61BF2C;}
	.st2{fill:#E54035;}
</style>
<g>
	<path class="st0" d="M163.6,144.9c-38.4,0-69.5,31.1-69.5,69.5c0,38.4,31.1,69.6,69.5,69.6c38.4,0,69.5-31.1,69.5-69.6
		C233.1,176.1,202,144.9,163.6,144.9z M121.8,207.6c1.2,0.9,3.2,1.8,6.2,2.8c2.9,0.9,5.4,2,7.3,3.1c4.6,2.7,6.9,6.3,6.9,11
		c0,3.7-1.4,6.7-4.2,8.8c-2.8,2.1-6.7,3.2-11.6,3.2c-3.5,0-6.6-0.6-9.4-1.9c-2.8-1.2-4.9-2.9-6.3-5.1c-1.4-2.2-2.1-4.6-2.1-7.5h10.3
		c0,2.3,0.6,4,1.8,5.1s3.1,1.6,5.8,1.6c1.7,0,3-0.4,4-1.1s1.5-1.8,1.5-3.1c0-1.5-0.5-2.7-1.6-3.5c-1.1-0.8-2.9-1.7-5.6-2.6
		c-2.7-0.9-4.9-1.8-6.6-2.6c-5.5-2.7-8.3-6.4-8.3-11.2c0-2.4,0.7-4.4,2.1-6.3c1.4-1.8,3.3-3.2,5.8-4.2c2.5-1,5.4-1.5,8.5-1.5
		c3.1,0,5.8,0.5,8.2,1.6c2.4,1.1,4.3,2.7,5.7,4.7s2,4.3,2,6.9h-10.3c0-1.7-0.5-3.1-1.6-4c-1.1-1-2.5-1.4-4.3-1.4
		c-1.8,0-3.3,0.4-4.4,1.2c-1.1,0.8-1.6,1.8-1.6,3.1C120,205.7,120.6,206.7,121.8,207.6z M168.2,220.5v15.3h-10.4v-15.3l-13.7-27.3
		h11l7.9,18.5l7.9-18.5H182L168.2,220.5z M214.2,217.6c-3,2.5-7.1,3.7-12.3,3.7h-6.6v14.5h-10.3v-42.7h17c3.3,0,6.1,0.6,8.7,1.8
		s4.5,2.9,5.8,5.1c1.4,2.2,2.1,4.7,2.1,7.5C218.6,211.8,217.2,215.1,214.2,217.6z"/>
	<path class="st0" d="M202.2,201.1h-6.9v12.3h6.7c2,0,3.5-0.5,4.6-1.5s1.6-2.4,1.6-4.2c0-2-0.5-3.6-1.6-4.8
		C205.5,201.7,204.1,201.1,202.2,201.1z"/>
	<g>
		<g>
			<path class="st1" d="M187.9,94.9l24,24c14.4,14.3,14.4,35.6,14.4,35.6l3.8-6.4c6.3-10.5,11.1-23.2,10.3-33.6
				c-1.3-17-12-30.1-18.5-36.5l-8.5-8.5l17-17l-61.5-2.2l2.2,61.4L187.9,94.9z"/>
			<path class="st2" d="M52.1,190l-24-24c-14.3-14.3-14.3-35.5-14.3-35.5l-3.8,6.4c-6.3,10.5-11.1,23.2-10.3,33.6
				c1.3,17,12,30.1,18.5,36.6l8.5,8.5l-17,17l61.5,2.2L69,173.4L52.1,190z"/>
			<path class="st0" d="M91.2,80.7c-1.6-1.1-3.9-1.9-7.2-2.5v14.3c6.3-0.8,9.5-3.2,9.5-7C93.5,83.4,92.8,81.8,91.2,80.7z"/>
			<path class="st0" d="M77.7,0C39.3,0,8.1,31.1,8.1,69.6s31.1,69.6,69.6,69.6c38.4,0,69.6-31.1,69.6-69.6S116.1,0,77.7,0z
				 M114.8,81.3c-1.4,5.1-3.6,9.8-6.7,14.2c-2.6,3.7-5.7,7-9.3,9.7s-7.5,4.9-11.7,6.5c-2.6,1-5.3,1.7-8,2.1
				c-1.6,0.2-3.2,0.5-4.8,0.7c-4.5,0-9.1,0-13.6,0c-1.1-0.5-1.5-1.4-1.5-2.7c0-12.4,0-24.9,0-37.3c0-0.3,0-0.6-0.1-1
				c-0.3,0-0.4,0.1-0.6,0.1c-3,0.9-6,1.8-9,2.8c-1.3,0.4-2.6,0.8-4,1.2c-1.5,0.4-2.7-0.4-2.7-1.9c0-2.7,0-5.4,0-8.1
				c0-1,0.5-1.7,1.5-2c1.7-0.5,3.5-1.1,5.2-1.6c2.9-0.9,5.9-1.8,8.8-2.7c0.6-0.2,0.8-0.5,0.7-1.1c0-1.4,0-2.8,0-4.2
				c0-0.3,0-0.5,0-0.8c-0.2,0.1-0.4,0.1-0.6,0.1c-4.3,1.3-8.5,2.6-12.8,3.9c-1.8,0.5-3-0.3-3-2.2c0-2.4,0-4.9,0-7.3
				c0-1.6,0.3-2.1,1.8-2.6c4.6-1.4,9.1-2.8,13.7-4.2c0.6-0.2,0.8-0.5,0.8-1.1c0-4.8,0-9.7,0-14.5c0-1.2,0.3-2.1,1.5-2.7
				c3.8,0,7.6,0,11.3,0c1.1,0.5,1.5,1.4,1.5,2.6c0,3.4,0,6.8,0,10.1c0,0.3,0,0.5,0,0.9c1.1-0.3,2.1-0.7,3.1-1
				c4.8-1.5,9.6-2.9,14.3-4.4c2.2-0.7,4.3-1.4,6.5-2c1.4-0.4,2.6,0.4,2.6,1.8c0.1,2.8,0,5.6,0,8.4c0,0.9-0.5,1.5-1.4,1.8
				s-1.7,0.6-2.6,0.8c-5.1,1.6-10.3,3.2-15.4,4.8c-2.4,0.7-4.7,1.5-7.1,2.2c0,2,0,3.9,0,5.9c0.3-0.1,0.5-0.1,0.7-0.2
				c3.6-1.1,7.3-2.2,10.9-3.4c4-1.2,8-2.5,12.1-3.7c1.7-0.5,2.9,0.4,2.9,2.2c0,2.5,0,5,0,7.5c0,1.4-0.4,2-1.8,2.4
				c-2.1,0.7-4.2,1.3-6.2,1.9C85.9,65,80,66.9,74.1,68.6c-0.7,0.2-0.9,0.5-0.9,1.2c0,9.8,0,19.6,0,29.4c0,0.2,0,0.5,0,0.8
				c1-0.1,1.9-0.1,2.7-0.3c1.5-0.3,3-0.6,4.5-1.1c4.1-1.2,7.7-3.3,10.8-6.1c2.6-2.3,4.8-4.9,6.6-8c1.7-3,2.9-6.1,3.5-9.5
				c0.3-1.9,0.4-3.9,0.6-5.8c0.1-1.3,0.8-1.9,2-1.9c3.4,0,6.8,0,10.1,0c1.3,0,2.1,0.8,2.1,2.2C116.3,73.7,115.8,77.5,114.8,81.3z"/>
		</g>
	</g>
</g>
</svg>
