<?xml version="1.0" encoding="utf-8"?>
<!-- Generator: Adobe Illustrator 22.1.0, SVG Export Plug-In . SVG Version: 6.00 Build 0)  -->
<svg version="1.1" id="Layer_1" xmlns="http://www.w3.org/2000/svg" xmlns:xlink="http://www.w3.org/1999/xlink" x="0px" y="0px"
	 viewBox="0 0 283.5 283.5" style="enable-background:new 0 0 283.5 283.5;" xml:space="preserve">
<style type="text/css">
	.st0{fill:#61BF2C;}
	.st1{fill:#E54035;}
	.st2{fill:#FFCE54;}
</style>
<g>
	<g>
		<path class="st0" d="M209.6,94.4l24,24C248,132.7,248,154,248,154l3.8-6.4c6.3-10.5,11.1-23.2,10.3-33.6
			c-1.3-17-12-30.1-18.5-36.5l-8.5-8.5l17-17l-61.5-2.2l2.2,61.4L209.6,94.4z"/>
		<path class="st1" d="M73.8,189.5l-24-24C35.5,151.2,35.5,130,35.5,130l-3.8,6.4c-6.3,10.5-11.1,23.2-10.3,33.6
			c1.3,17,12,30.1,18.5,36.6l8.5,8.5l-17,17l61.5,2.2l-2.2-61.4L73.8,189.5z"/>
		<path class="st2" d="M83.7,53.3c0,2.1,0.8,3.8,2.5,4.9c1.6,1.1,4.1,2,7.4,2.6V46.1c-3.7,0.4-6.3,1.2-7.7,2.5
			C84.4,49.8,83.7,51.4,83.7,53.3z"/>
		<path class="st2" d="M112.9,80.2c-1.6-1.1-3.9-1.9-7.2-2.5V92c6.3-0.8,9.5-3.2,9.5-7C115.2,82.9,114.5,81.3,112.9,80.2z"/>
		<path class="st2" d="M168.6,69.1C168.6,30.9,137.7,0,99.5,0C61.4,0,30.4,30.9,30.4,69.1c0,38.2,30.9,69.1,69.1,69.1
			C137.7,138.2,168.6,107.3,168.6,69.1z M125.2,100.1c-4.6,3.7-11,6-19.5,7v7.9H93.6v-7.5c-5-0.2-9.7-0.6-14.1-1.3
			c-4.4-0.7-8.1-1.8-11-3.1V88c2,0.7,3.9,1.3,5.8,1.9c1.9,0.5,3.8,1,5.8,1.4c2,0.4,4.1,0.7,6.3,0.9c2.2,0.2,4.6,0.4,7.2,0.4V75.8
			c-3.2-0.5-6.4-1.1-9.6-1.9c-3.2-0.8-6-2-8.5-3.6c-2.5-1.6-4.6-3.7-6.2-6.3c-1.6-2.6-2.4-6-2.4-10.1c0-3.4,0.6-6.4,1.8-9
			c1.2-2.6,3-4.9,5.3-6.8c2.3-1.9,5.1-3.5,8.4-4.6c3.3-1.2,7-2,11.1-2.4v-7.9h12.2v7.6c3.7,0.2,7.5,0.6,11.4,1.3
			c3.8,0.6,7.4,1.5,10.6,2.6V50c-7.8-2.5-15.2-4-21.9-4.3v17c3.2,0.5,6.4,1.2,9.5,2c3.1,0.8,5.9,2.1,8.4,3.7c2.5,1.6,4.5,3.7,6,6.3
			c1.6,2.6,2.3,5.9,2.3,10C132.1,91.2,129.8,96.4,125.2,100.1z"/>
		<path class="st2" d="M185.3,144.3c-38.4,0-69.6,31.1-69.6,69.6s31.1,69.6,69.6,69.6c38.4,0,69.6-31.1,69.6-69.6
			S223.7,144.3,185.3,144.3z M222.4,225.6c-1.4,5.1-3.6,9.8-6.7,14.2c-2.6,3.7-5.7,7-9.3,9.7c-3.6,2.7-7.5,4.9-11.7,6.5
			c-2.6,1-5.3,1.7-8,2.1c-1.6,0.2-3.2,0.5-4.8,0.7c-4.5,0-9.1,0-13.6,0c-1.1-0.5-1.5-1.4-1.5-2.7c0-12.4,0-24.9,0-37.3
			c0-0.3,0-0.6-0.1-1c-0.3,0-0.4,0.1-0.6,0.1c-3,0.9-6,1.8-9,2.8c-1.3,0.4-2.6,0.8-4,1.2c-1.5,0.4-2.7-0.4-2.7-1.9
			c0-2.7,0-5.4,0-8.1c0-1,0.5-1.7,1.5-2c1.7-0.5,3.5-1.1,5.2-1.6c2.9-0.9,5.9-1.8,8.8-2.7c0.6-0.2,0.8-0.5,0.7-1.1
			c0-1.4,0-2.8,0-4.2c0-0.3,0-0.5,0-0.8c-0.2,0.1-0.4,0.1-0.6,0.1c-4.3,1.3-8.5,2.6-12.8,3.9c-1.8,0.5-3-0.3-3-2.2
			c0-2.4,0-4.9,0-7.3c0-1.6,0.3-2.1,1.8-2.6c4.6-1.4,9.1-2.8,13.7-4.2c0.6-0.2,0.8-0.5,0.8-1.1c0-4.8,0-9.7,0-14.5
			c0-1.2,0.3-2.1,1.5-2.7c3.8,0,7.6,0,11.3,0c1.1,0.5,1.5,1.4,1.5,2.6c0,3.4,0,6.8,0,10.1c0,0.3,0,0.5,0,0.9c1.1-0.3,2.1-0.7,3.1-1
			c4.8-1.5,9.6-2.9,14.3-4.4c2.2-0.7,4.3-1.4,6.5-2c1.4-0.4,2.6,0.4,2.6,1.8c0.1,2.8,0,5.6,0,8.4c0,0.9-0.5,1.5-1.4,1.8
			c-0.9,0.3-1.7,0.6-2.6,0.8c-5.1,1.6-10.3,3.2-15.4,4.8c-2.4,0.7-4.7,1.5-7.1,2.2c0,2,0,3.9,0,5.9c0.3-0.1,0.5-0.1,0.7-0.2
			c3.6-1.1,7.3-2.2,10.9-3.4c4-1.2,8-2.5,12.1-3.7c1.7-0.5,2.9,0.4,2.9,2.2c0,2.5,0,5,0,7.5c0,1.4-0.4,2-1.8,2.4
			c-2.1,0.7-4.2,1.3-6.2,1.9c-5.9,1.8-11.8,3.7-17.7,5.4c-0.7,0.2-0.9,0.5-0.9,1.2c0,9.8,0,19.6,0,29.4c0,0.2,0,0.5,0,0.8
			c1-0.1,1.9-0.1,2.7-0.3c1.5-0.3,3-0.6,4.5-1.1c4.1-1.2,7.7-3.3,10.8-6.1c2.6-2.3,4.8-4.9,6.6-8c1.7-3,2.9-6.1,3.5-9.5
			c0.3-1.9,0.4-3.9,0.6-5.8c0.1-1.3,0.8-1.9,2-1.9c3.4,0,6.8,0,10.1,0c1.3,0,2.1,0.8,2.1,2.2C223.9,218,223.4,221.8,222.4,225.6z"/>
	</g>
</g>
</svg>
