<?xml version="1.0" encoding="utf-8"?>
<!-- Generator: Adobe Illustrator 22.1.0, SVG Export Plug-In . SVG Version: 6.00 Build 0)  -->
<svg version="1.1" id="Layer_1" xmlns="http://www.w3.org/2000/svg" xmlns:xlink="http://www.w3.org/1999/xlink" x="0px" y="0px"
	 viewBox="0 0 241.1 283.5" style="enable-background:new 0 0 241.1 283.5;" xml:space="preserve">
<style type="text/css">
	.st0{fill:#61BF2C;}
	.st1{fill:#E54035;}
	.st2{fill:#FFCE54;}
</style>
<g>
	<path class="st0" d="M188.5,94.4l24,24c14.4,14.3,14.4,35.6,14.4,35.6l3.8-6.4c6.3-10.5,11.1-23.2,10.3-33.6
		c-1.3-17-12-30.1-18.5-36.5L214,69l17-17l-61.5-2.2l2.2,61.4L188.5,94.4z"/>
	<path class="st1" d="M52.7,189.5l-24-24C14.4,151.2,14.4,130,14.4,130l-3.8,6.4C4.3,146.9-0.5,159.6,0.3,170
		c1.3,17,12,30.1,18.5,36.6l8.5,8.5l-17,17l61.5,2.2l-2.2-61.4L52.7,189.5z"/>
	<path class="st2" d="M62.6,53.3c0,2.1,0.8,3.8,2.5,4.9c1.6,1.1,4.1,2,7.4,2.6V46.1c-3.7,0.4-6.3,1.2-7.7,2.5
		C63.3,49.8,62.6,51.4,62.6,53.3z"/>
	<path class="st2" d="M91.8,80.2c-1.6-1.1-3.9-1.9-7.2-2.5V92c6.3-0.8,9.5-3.2,9.5-7C94.1,82.9,93.4,81.3,91.8,80.2z"/>
	<path class="st2" d="M147.5,69.1C147.5,30.9,116.6,0,78.4,0C40.3,0,9.3,30.9,9.3,69.1s30.9,69.1,69.1,69.1S147.5,107.3,147.5,69.1z
		 M104.1,100.1c-4.6,3.7-11,6-19.5,7v7.9H72.5v-7.5c-5-0.2-9.7-0.6-14.1-1.3c-4.4-0.7-8.1-1.8-11-3.1V88c2,0.7,3.9,1.3,5.8,1.9
		c1.9,0.5,3.8,1,5.8,1.4s4.1,0.7,6.3,0.9c2.2,0.2,4.6,0.4,7.2,0.4V75.8c-3.2-0.5-6.4-1.1-9.6-1.9s-6-2-8.5-3.6s-4.6-3.7-6.2-6.3
		c-1.6-2.6-2.4-6-2.4-10.1c0-3.4,0.6-6.4,1.8-9c1.2-2.6,3-4.9,5.3-6.8c2.3-1.9,5.1-3.5,8.4-4.6c3.3-1.2,7-2,11.1-2.4v-7.9h12.2v7.6
		c3.7,0.2,7.5,0.6,11.4,1.3c3.8,0.6,7.4,1.5,10.6,2.6V50c-7.8-2.5-15.2-4-21.9-4.3v17c3.2,0.5,6.4,1.2,9.5,2
		c3.1,0.8,5.9,2.1,8.4,3.7s4.5,3.7,6,6.3c1.6,2.6,2.3,5.9,2.3,10C111,91.2,108.7,96.4,104.1,100.1z"/>
	<path class="st2" d="M164.2,144.4c-38.4,0-69.5,31.1-69.5,69.5c0,38.4,31.1,69.6,69.5,69.6c38.4,0,69.5-31.1,69.5-69.6
		C233.8,175.6,202.6,144.4,164.2,144.4z M122.4,207.1c1.2,0.9,3.2,1.8,6.2,2.8c2.9,0.9,5.4,2,7.3,3.1c4.6,2.7,6.9,6.3,6.9,11
		c0,3.7-1.4,6.7-4.2,8.8c-2.8,2.1-6.7,3.2-11.6,3.2c-3.5,0-6.6-0.6-9.4-1.9c-2.8-1.2-4.9-2.9-6.3-5.1c-1.4-2.2-2.1-4.6-2.1-7.5h10.3
		c0,2.3,0.6,4,1.8,5.1s3.1,1.6,5.8,1.6c1.7,0,3-0.4,4-1.1s1.5-1.8,1.5-3.1c0-1.5-0.5-2.7-1.6-3.5c-1.1-0.8-2.9-1.7-5.6-2.6
		c-2.7-0.9-4.9-1.8-6.6-2.6c-5.5-2.7-8.3-6.4-8.3-11.2c0-2.4,0.7-4.4,2.1-6.3c1.4-1.8,3.3-3.2,5.8-4.2c2.5-1,5.4-1.5,8.5-1.5
		c3.1,0,5.8,0.5,8.2,1.6c2.4,1.1,4.3,2.7,5.7,4.7s2,4.3,2,6.9h-10.3c0-1.7-0.5-3.1-1.6-4c-1.1-1-2.5-1.4-4.3-1.4
		c-1.8,0-3.3,0.4-4.4,1.2c-1.1,0.8-1.6,1.8-1.6,3.1C120.6,205.2,121.2,206.2,122.4,207.1z M168.9,220v15.3h-10.4V220l-13.7-27.3h11
		l7.9,18.5l7.9-18.5h11.1L168.9,220z M214.8,217.1c-3,2.5-7.1,3.7-12.3,3.7H196v14.5h-10.3v-42.7h17c3.3,0,6.1,0.6,8.7,1.8
		s4.5,2.9,5.8,5.1c1.4,2.2,2.1,4.7,2.1,7.5C219.3,211.3,217.8,214.6,214.8,217.1z"/>
	<path class="st2" d="M202.8,200.6H196v12.3h6.7c2,0,3.5-0.5,4.6-1.5s1.6-2.4,1.6-4.2c0-2-0.5-3.6-1.6-4.8
		C206.2,201.2,204.7,200.6,202.8,200.6z"/>
</g>
</svg>
